<svg version="1.1" id="Layer_1" xmlns="http://www.w3.org/2000/svg" xmlns:xlink="http://www.w3.org/1999/xlink" x="0px" y="0px"
	 width="100%" viewBox="0 0 464 320" enable-background="new 0 0 464 320" xml:space="preserve">
<path fill="#000000" opacity="1.000000" stroke="none" 
	d="
M465.000000,196.531342 
	C457.941223,200.375397 451.005280,204.074768 442.754578,203.569809 
	C441.648987,203.502151 440.393951,204.640320 439.326660,205.389114 
	C433.623566,209.390335 427.163544,211.509171 420.464630,213.003677 
	C418.877960,213.357635 416.699310,213.799759 416.252258,211.655014 
	C415.786835,209.422058 418.011322,209.137009 419.604004,208.892700 
	C441.493683,205.535370 452.360077,189.286560 452.812622,168.494949 
	C453.215820,149.972977 450.429291,131.988327 441.615875,115.358765 
	C433.178894,99.439468 420.585724,89.071404 402.526581,85.630943 
	C396.382629,84.460457 390.972382,85.833435 386.344055,89.300850 
	C379.055695,94.761124 372.264709,100.885307 365.095764,106.868118 
	C388.373718,113.469009 401.189209,130.390137 410.329346,150.656784 
	C416.820648,165.050186 420.179413,180.316559 419.311096,196.286392 
	C419.274902,196.951599 419.300476,197.620331 419.259766,198.285126 
	C418.790955,205.945755 414.811127,211.965912 409.488129,213.079224 
	C404.942627,214.029922 399.811371,210.505661 395.985687,203.809128 
	C395.417572,202.814651 394.837769,201.826859 393.938477,200.275543 
	C390.846436,203.167496 388.034515,205.901367 385.097382,208.493423 
	C383.922333,209.530426 382.373810,211.233307 380.857574,209.409637 
	C379.273621,207.504517 381.482300,206.454620 382.609711,205.461716 
	C393.220734,196.116653 400.597687,184.594391 405.666656,171.499680 
	C406.319672,169.812775 406.761169,167.392899 409.160400,168.371994 
	C411.185760,169.198517 409.965546,171.201065 409.457275,172.749466 
	C407.100677,179.928574 403.302368,186.360413 399.325775,192.725540 
	C396.132782,197.836426 401.044403,207.944183 407.043091,208.776505 
	C410.687958,209.282257 412.543549,207.121033 413.705933,204.031357 
	C416.570679,196.416656 415.876831,188.668884 414.713196,180.867767 
	C411.402039,158.669937 403.200623,138.864273 386.444305,123.315117 
	C383.286957,120.385185 379.751648,117.811066 376.168518,115.403526 
	C370.833160,111.818695 365.076080,111.136452 358.578888,112.157494 
	C343.959839,114.454918 329.142120,115.666161 315.608917,122.416313 
	C309.239502,125.593292 309.146667,125.681595 311.283386,132.247650 
	C313.180267,138.076889 315.289978,143.836899 317.646942,150.607559 
	C321.107208,145.714157 323.998474,141.527588 327.006409,137.426605 
	C328.011780,136.055878 329.048645,133.594299 331.183533,135.157455 
	C333.355042,136.747406 331.202209,138.471283 330.256104,139.829620 
	C318.136963,157.228958 305.379120,174.052841 288.267609,187.038834 
	C283.578217,190.597641 279.866425,195.117126 277.470947,200.578857 
	C275.376282,205.354874 276.604675,207.972046 281.556702,209.853622 
	C286.988678,211.917557 292.257294,210.327988 297.169952,208.539795 
	C311.560638,203.301651 325.640808,197.139984 339.081421,189.874542 
	C353.166138,182.260925 360.473145,168.864197 365.482513,154.154297 
	C366.067230,152.437241 366.250519,149.819839 368.529907,150.422882 
	C371.446899,151.194595 369.804382,153.721527 369.237946,155.455673 
	C362.271545,176.783752 349.358917,192.241516 327.425659,199.765213 
	C317.407623,203.201691 308.383911,209.294815 298.114105,212.408783 
	C293.763702,213.727859 289.407990,214.517059 284.855103,214.339310 
	C274.064941,213.918045 269.506561,205.703400 274.956177,196.333420 
	C278.098328,190.930786 282.338623,186.441940 287.278809,182.690887 
	C296.372192,175.786301 303.981445,167.449951 311.342407,158.800842 
	C313.916443,155.776382 314.352753,153.142212 313.060211,149.367783 
	C309.377533,138.613647 309.507690,138.407562 299.177917,142.292175 
	C254.611557,159.051895 210.082474,175.910782 165.533463,192.716721 
	C145.594513,200.238602 125.648193,207.741074 105.689384,215.210083 
	C98.634346,217.850250 98.688728,217.762924 101.409302,224.648636 
	C109.419823,244.923126 117.733719,265.089569 125.170425,285.573669 
	C128.596222,295.009918 137.227768,297.995056 146.205185,294.831787 
	C157.660324,290.795502 168.888016,286.107635 180.180237,281.616333 
	C201.998627,272.938385 223.990311,264.657837 245.545029,255.365585 
	C268.928101,245.285141 292.532104,235.781403 316.162018,226.321304 
	C320.327271,224.653778 324.634918,223.317825 328.467285,220.866989 
	C334.306213,217.132950 335.428497,214.202759 333.915863,207.416992 
	C333.364624,204.944092 331.580292,202.500534 333.083252,199.760025 
	C338.838287,201.705795 339.936798,210.666229 335.632568,221.274475 
	C340.107635,224.833725 345.281433,224.055176 350.265320,223.186966 
	C357.752777,221.882660 364.459167,218.536957 370.784088,214.379089 
	C372.230774,213.428070 374.177826,211.623077 375.523499,213.793182 
	C376.870789,215.965912 374.301514,216.939438 372.884735,217.818832 
	C363.427612,223.688995 353.608582,228.489716 341.974396,227.346100 
	C340.980560,227.248428 339.763611,227.572632 339.015503,227.110107 
	C331.645905,222.553604 325.414886,226.811981 318.964294,229.524780 
	C314.244507,231.509659 309.249786,232.874298 304.845062,235.562546 
	C309.144867,245.364716 306.223114,251.951920 296.028442,255.727402 
	C294.317413,256.361084 292.546631,256.900574 290.757416,257.242981 
	C285.803925,258.191010 281.192505,258.710632 277.914337,263.968475 
	C275.304260,268.154755 269.687775,267.848297 264.974091,266.924622 
	C259.575500,265.866699 254.249451,264.340332 249.391098,261.721039 
	C246.437973,260.128906 243.835403,260.255707 240.848602,261.454071 
	C210.558334,273.607025 180.235657,285.679230 149.925568,297.782837 
	C135.933609,303.370209 126.328499,299.166229 120.929138,285.280640 
	C109.585251,256.107422 98.148384,226.970337 86.748688,197.818802 
	C86.506004,197.198212 86.232910,196.589020 86.004517,195.963379 
	C80.352997,180.481003 83.590714,172.766266 98.913574,167.051300 
	C136.974426,152.855698 175.124756,138.899948 213.240814,124.852432 
	C233.699600,117.312431 254.153320,109.758461 274.631287,102.270851 
	C277.907104,101.073067 281.255280,100.010544 284.645172,99.199753 
	C292.695923,97.274185 299.698395,100.806480 302.908325,108.451973 
	C304.640991,112.578796 306.011353,116.857704 307.834412,121.861870 
	C313.666443,118.931320 319.301758,116.243965 325.295197,114.464928 
	C334.251892,111.806297 343.397919,110.016525 352.636139,108.963921 
	C356.491302,108.524651 359.046997,107.383621 361.934357,104.593964 
	C369.105804,97.665199 376.856140,91.280785 384.789154,85.221275 
	C388.110199,82.684555 389.403412,79.890907 389.712891,76.052856 
	C389.925507,73.416145 390.360443,70.762169 391.031952,68.204094 
	C393.245667,59.771061 396.782013,56.949100 405.629028,56.865314 
	C409.309601,56.830463 412.372101,55.807961 415.358856,53.694019 
	C430.042633,43.301266 444.807281,33.022541 459.567627,22.738380 
	C461.056915,21.700743 462.709106,20.896902 464.642822,19.992275 
	C465.000000,78.687561 465.000000,137.375122 465.000000,196.531342 
M285.318054,103.135788 
	C283.402618,103.669746 281.439514,104.073860 279.578644,104.756569 
	C226.598572,124.193512 173.625275,143.648972 120.660889,163.128632 
	C112.226311,166.230759 103.686462,169.115952 95.477005,172.739685 
	C88.504791,175.817291 86.244583,180.941956 87.645027,187.683624 
	C89.134354,194.853195 89.507797,195.112411 96.471298,192.495331 
	C140.730576,175.861359 184.979950,159.201035 229.227249,142.535156 
	C251.816666,134.026764 274.369080,125.418938 297.006500,117.040588 
	C300.346710,115.804359 301.039459,114.369286 299.752197,111.160591 
	C297.197723,104.792961 293.498627,102.457466 285.318054,103.135788 
M289.176270,253.688644 
	C294.411957,252.673599 298.796356,250.219757 302.252991,246.106522 
	C303.707489,244.375732 304.222290,242.580322 302.798157,240.696518 
	C301.529907,239.018921 300.343231,236.952713 297.580383,238.065414 
	C290.692200,240.839584 283.792633,243.585419 276.906921,246.338898 
	C280.569244,255.457336 280.569244,255.457336 289.176270,253.688644 
M270.747192,248.916138 
	C264.718445,252.773026 257.541382,254.278091 250.930786,258.080139 
	C257.613342,261.177979 263.823608,263.392059 270.667603,262.881073 
	C276.402832,262.452820 278.537750,258.476440 275.529175,253.567429 
	C274.452850,251.811188 273.722321,249.569824 270.747192,248.916138 
z"/>
<path fill="#000000" opacity="1.000000" stroke="none" 
	d="
M144.458344,283.043610 
	C135.096481,279.887360 131.243134,273.747864 132.818649,265.178345 
	C134.045761,258.503906 141.668472,252.595337 149.402283,254.356750 
	C151.629807,254.864059 152.733307,253.471634 154.016052,252.146759 
	C159.417847,246.567596 164.216553,245.395721 169.400558,248.331131 
	C174.702438,251.333282 178.232391,258.587036 177.000702,263.948761 
	C175.553299,270.249512 169.958755,274.877075 163.248550,274.739105 
	C160.900146,274.690826 159.656891,275.379608 158.334244,277.132416 
	C154.992172,281.561401 150.414673,283.510956 144.458344,283.043610 
M148.162506,278.803558 
	C155.643692,277.311554 156.679169,275.083984 152.815964,268.820923 
	C151.496597,266.681976 150.344543,264.411163 150.392288,261.867126 
	C150.454712,258.540741 148.558929,258.078278 145.900650,258.222107 
	C140.526337,258.512817 136.390228,262.817505 136.280991,268.330383 
	C136.153183,274.780731 140.043060,278.475342 148.162506,278.803558 
z"/>
<path fill="#000000" opacity="1.000000" stroke="none" 
	d="
M123.808563,231.021072 
	C121.660629,231.623642 119.835991,233.131195 118.146469,231.163269 
	C118.060158,228.658386 120.012520,228.338989 121.409012,227.767365 
	C134.293243,222.493484 147.207428,217.292404 160.135162,212.125870 
	C161.531296,211.567917 163.456024,210.044907 164.358429,212.421112 
	C165.211258,214.666809 162.870300,215.020981 161.448685,215.607864 
	C149.038300,220.731125 136.605209,225.799332 123.808563,231.021072 
z"/>
<path fill="#000000" opacity="1.000000" stroke="none" 
	d="
M221.534271,56.395027 
	C220.846268,50.285595 219.990234,44.630348 221.734482,38.957298 
	C225.252686,39.566204 224.842804,41.940434 224.899200,43.735615 
	C225.315643,56.994732 226.193863,70.207176 228.190445,83.335724 
	C228.394058,84.674477 228.894791,86.700981 226.838318,87.052147 
	C224.634842,87.428398 224.818787,85.343498 224.564087,83.971291 
	C222.900635,75.009056 221.584503,66.005684 221.534271,56.395027 
z"/>
<path fill="#000000" opacity="1.000000" stroke="none" 
	d="
M125.294525,240.317963 
	C123.742043,240.880753 122.584473,240.966644 122.051102,239.529846 
	C121.524384,238.110992 122.476868,237.352127 123.607956,236.869751 
	C133.206131,232.776398 142.806290,228.687286 152.431198,224.657440 
	C153.578949,224.176895 155.169495,223.391891 155.854004,225.159256 
	C156.596542,227.076370 154.874161,227.776566 153.544556,228.348099 
	C145.176086,231.945389 136.779419,235.477066 128.391876,239.029968 
	C127.477135,239.417450 126.561302,239.802338 125.294525,240.317963 
z"/>
<path fill="#000000" opacity="1.000000" stroke="none" 
	d="
M89.150040,137.225220 
	C87.082176,138.386551 86.071884,137.047592 85.125870,135.955582 
	C79.001404,128.885925 73.840561,121.124664 68.994461,113.148720 
	C68.397095,112.165550 67.940704,111.015076 68.993477,109.891800 
	C70.836906,109.010727 71.719666,110.319763 72.535332,111.585617 
	C77.675140,119.562279 82.874886,127.492401 89.147263,134.655106 
	C89.715866,135.304413 89.841690,136.148956 89.150040,137.225220 
z"/>
<path fill="#000000" opacity="1.000000" stroke="none" 
	d="
M184.456787,215.593842 
	C171.014389,222.319260 163.827316,224.592316 160.481674,223.368546 
	C160.120224,222.136810 160.889420,221.405350 161.803360,221.022720 
	C168.370529,218.273224 174.932785,215.504410 181.578827,212.956146 
	C183.273178,212.306488 185.475021,212.152634 184.456787,215.593842 
z"/>
<path fill="#000000" opacity="1.000000" stroke="none" 
	d="
M42.425827,195.316254 
	C40.449135,195.112534 38.532524,195.827087 37.841621,193.601410 
	C41.567116,190.289413 59.613014,190.126678 64.924805,194.282944 
	C56.972153,196.056656 49.843010,194.841568 42.425827,195.316254 
z"/>
<path fill="#000000" opacity="1.000000" stroke="none" 
	d="
M287.450653,54.002327 
	C287.931915,52.388878 288.529022,51.425941 290.040558,51.959492 
	C291.220123,52.375851 291.307159,53.498138 291.167328,54.465515 
	C290.193207,61.206242 289.154755,67.937759 288.115356,74.668900 
	C287.972839,75.591827 287.327972,76.252266 286.424194,76.180580 
	C284.892426,76.059097 284.636902,74.787415 284.736542,73.596100 
	C285.110443,69.126801 285.510254,64.656952 286.050415,60.205517 
	C286.289307,58.236923 286.886841,56.311844 287.450653,54.002327 
z"/>
<path fill="#000000" opacity="1.000000" stroke="none" 
	d="
M72.300003,252.775558 
	C66.230812,257.191254 59.176498,259.161499 52.876320,262.668243 
	C51.945480,263.186340 50.908417,263.010651 50.331589,261.950226 
	C49.859409,261.082184 50.230713,260.229523 50.952572,259.791138 
	C57.026909,256.102051 63.379440,252.980118 70.185852,250.883926 
	C71.182320,250.577057 72.093216,251.240631 72.300003,252.775558 
z"/>
<path fill="#000000" opacity="1.000000" stroke="none" 
	d="
M305.096252,268.156799 
	C308.928314,273.367279 312.508636,278.359558 316.029572,283.393402 
	C316.795532,284.488495 317.569061,285.865692 316.092743,286.908051 
	C314.620850,287.947266 313.642914,286.797638 312.846313,285.666382 
	C309.498779,280.912415 306.094208,276.195953 302.864075,271.363129 
	C301.470459,269.278076 301.137726,267.343262 305.096252,268.156799 
z"/>
<path fill="#000000" opacity="1.000000" stroke="none" 
	d="
M194.240631,316.198364 
	C192.733551,319.035980 191.220245,318.813904 190.768982,316.195862 
	C189.982315,311.631775 189.683365,306.983002 189.199188,302.367737 
	C189.069168,301.128357 189.306595,299.829987 190.639023,299.546967 
	C192.351486,299.183289 192.963120,300.570099 193.154160,301.941925 
	C193.793625,306.533539 194.656052,311.112854 194.240631,316.198364 
z"/>
<path fill="#000000" opacity="1.000000" stroke="none" 
	d="
M108.103668,310.015808 
	C106.313797,311.898712 106.786491,316.581604 103.554955,315.076355 
	C100.566765,313.684509 103.455559,310.597321 104.398643,308.643951 
	C106.034317,305.256195 106.927826,301.122559 111.628983,298.988495 
	C112.778305,303.681519 109.333138,306.345306 108.103668,310.015808 
z"/>
<path fill="#000000" opacity="1.000000" stroke="none" 
	d="
M363.589722,252.856873 
	C362.465912,252.597809 361.670135,252.372864 360.933197,252.023773 
	C358.893066,251.057434 356.817291,249.728073 358.190216,247.210999 
	C359.276245,245.219833 361.088654,246.670105 362.462555,247.444870 
	C364.717041,248.716202 366.944763,250.081161 363.589722,252.856873 
z"/>
<path fill="#000000" opacity="1.000000" stroke="none" 
	d="
M151.025757,103.747795 
	C150.372833,102.989418 149.931442,102.494049 149.586929,101.938591 
	C148.848053,100.747284 147.415726,99.659058 148.704346,98.045570 
	C149.313812,97.282463 150.267563,97.361137 150.947495,97.828690 
	C152.603958,98.967766 154.061890,100.426559 154.055542,102.565804 
	C154.050003,104.424904 152.769379,104.600266 151.025757,103.747795 
z"/>
</svg>