<svg version="1.1" id="Layer_1" xmlns="http://www.w3.org/2000/svg" xmlns:xlink="http://www.w3.org/1999/xlink" x="0px" y="0px"
	 width="100%" viewBox="0 0 453 383" enable-background="new 0 0 453 383" xml:space="preserve">
<path fill="#EF523C" opacity="0.000000" stroke="none" 
	d="
M284.000000,384.000000 
	C189.333344,384.000000 95.166687,384.000000 1.000025,384.000000 
	C1.000017,256.333374 1.000017,128.666718 1.000008,1.000060 
	C151.999954,1.000040 302.999908,1.000040 453.999908,1.000020 
	C453.999939,128.666611 453.999939,256.333221 453.999969,383.999908 
	C397.500000,384.000000 341.000000,384.000000 284.000000,384.000000 
M308.906097,251.627060 
	C296.752136,238.186050 277.359772,239.001373 265.447327,257.014374 
	C263.049774,255.921036 260.652222,254.827713 257.432526,253.359467 
	C265.379547,240.924545 273.101196,228.697433 281.075653,216.637482 
	C281.718506,215.665268 284.303894,215.182098 285.636230,215.596939 
	C291.879608,217.540909 296.038239,221.879471 298.603516,227.878342 
	C300.967285,233.405960 302.570526,233.717163 306.637756,229.462967 
	C312.536804,223.292709 319.408142,218.847000 327.832153,216.988739 
	C344.759521,213.254745 355.669647,222.393875 355.143188,239.623383 
	C355.024109,243.519897 354.091522,245.080627 349.783966,245.118256 
	C339.296661,245.209885 328.812256,245.897446 318.333710,246.472946 
	C316.596039,246.568375 314.893829,247.309372 312.226532,247.996384 
	C326.411682,255.276489 387.392822,253.667740 395.522888,244.986282 
	C382.994019,244.986282 371.077759,244.986282 359.699890,244.986282 
	C359.699890,239.410843 360.292908,234.370544 359.591492,229.517334 
	C357.250427,213.319473 340.342865,203.839523 323.661896,209.918961 
	C316.225922,212.628998 309.560303,217.452774 303.062561,221.032104 
	C297.751923,217.554733 291.894226,213.719147 285.809601,209.734985 
	C294.635284,196.690002 304.002655,182.844345 313.661957,168.567154 
	C315.696747,170.196304 317.638672,171.286575 318.936218,172.896271 
	C321.006134,175.464066 322.292877,174.985428 324.490967,172.887268 
	C327.933044,169.601654 331.486359,166.022186 335.684906,164.016479 
	C348.271912,158.003479 360.939270,165.528305 362.033661,179.421066 
	C362.369141,183.679947 361.460541,188.023895 361.429260,192.331116 
	C361.417267,193.979523 361.777222,196.302994 362.861511,197.094818 
	C363.911804,197.861816 366.181671,197.318588 367.787506,196.880432 
	C370.172699,196.229599 372.379883,194.707809 374.778046,194.366669 
	C380.524567,193.549240 385.783508,194.920471 389.559021,199.679062 
	C392.474792,203.354126 393.975220,207.416611 391.704193,211.985352 
	C380.382538,212.390991 373.856140,214.495178 368.905975,219.568512 
	C368.058441,220.437134 367.912994,221.990814 367.443237,223.228058 
	C368.649597,223.127182 369.878510,223.140076 371.058380,222.905777 
	C376.209076,221.882874 381.332397,219.988831 386.490112,219.904388 
	C394.495728,219.773346 399.363190,225.016006 400.055817,233.001389 
	C400.199371,234.656311 399.947998,236.359024 400.212982,237.985245 
	C400.395721,239.106750 401.154388,240.134415 401.655670,241.204010 
	C402.453156,240.307800 403.609314,239.542694 403.992279,238.494965 
	C407.535767,228.800995 405.086853,221.200058 396.105438,213.513214 
	C399.777130,196.374542 391.400635,187.969650 370.129120,187.677109 
	C370.902100,174.578308 368.575714,162.531311 354.868164,157.081192 
	C341.016937,151.573944 330.430511,158.236069 321.344391,168.399765 
	C319.371948,167.334671 317.542969,166.347031 315.535095,165.262802 
	C317.863342,161.056595 320.089355,157.170853 322.190155,153.218567 
	C340.787048,118.231979 333.529816,75.301880 304.488770,48.371021 
	C269.053314,15.510380 204.578918,12.225710 165.443390,41.679211 
	C136.846878,63.201027 124.868385,92.680244 125.864868,127.927055 
	C125.985558,132.195801 126.486359,136.453812 126.824997,140.900803 
	C114.520798,140.151520 103.474243,142.538239 95.006287,151.630539 
	C86.086250,161.208252 85.671875,172.307510 90.747337,183.966553 
	C77.309471,187.096893 72.044785,196.104385 71.791252,208.746338 
	C55.120407,205.064636 44.064655,208.878281 39.131504,219.803711 
	C35.454548,227.947067 37.485123,239.747040 43.991508,244.455109 
	C43.991508,242.497589 44.009895,241.045563 43.987892,239.594147 
	C43.932785,235.959457 43.237457,232.204163 43.915813,228.714355 
	C45.608517,220.006165 51.833065,215.542755 60.052147,213.681793 
	C67.019783,212.104172 73.625893,211.788742 77.053131,220.129562 
	C77.690933,221.681778 79.430046,222.900406 80.897682,223.938065 
	C81.544510,224.395401 82.783569,224.015106 84.890060,224.015106 
	C82.997841,221.502518 81.787498,220.002792 80.692863,218.422928 
	C76.323540,212.116837 76.296982,203.842850 80.583939,197.796585 
	C84.367531,192.460266 89.952782,190.754105 96.461861,192.318985 
	C98.525154,192.815048 100.918663,191.937668 103.161057,191.688797 
	C102.531952,189.485489 102.439316,186.899780 101.185944,185.141449 
	C93.530273,174.401413 93.041420,163.696762 100.530373,155.370911 
	C107.702957,147.396790 116.980736,144.610733 127.880020,145.053528 
	C131.158173,162.611282 141.031570,176.351089 152.378113,189.153702 
	C174.699402,214.339417 193.453690,241.900024 209.513657,271.478333 
	C213.008774,277.915436 215.518265,284.357117 218.122543,291.059296 
	C220.880325,298.156525 221.333221,304.907471 220.550659,312.287781 
	C216.243958,312.873199 212.677368,314.965576 212.518661,319.636505 
	C212.289062,326.393463 212.502396,333.208832 213.165070,339.936401 
	C213.557953,343.925171 216.619537,346.820862 220.636749,346.839539 
	C229.556213,346.881073 238.497345,346.505646 247.390945,345.807404 
	C251.025391,345.522034 253.377060,342.821747 253.371490,338.919739 
	C253.363174,333.103851 253.182175,327.286285 252.968964,321.473297 
	C252.797073,316.786957 251.329529,312.990479 246.798065,312.725525 
	C245.949814,307.719177 243.930573,303.043396 244.674850,298.859192 
	C247.067474,285.408264 249.931992,271.985657 255.434021,259.339600 
	C255.683517,258.766144 256.157501,258.290344 256.934174,257.194397 
	C259.030243,258.697388 261.442535,259.759003 262.866486,261.589447 
	C265.693970,265.224121 267.528656,264.462769 269.510742,260.995697 
	C270.247559,259.706848 271.216187,258.518890 272.230804,257.425720 
	C277.797180,251.428467 284.446014,247.864563 292.749023,250.204651 
	C300.809235,252.476303 306.053345,258.151855 307.124542,266.434875 
	C307.696045,270.854156 306.157898,275.526520 305.767029,280.101318 
	C305.638855,281.601624 305.603577,283.713837 306.475922,284.527039 
	C307.361176,285.352295 309.505371,285.290436 310.946503,284.958405 
	C313.847076,284.290192 316.582092,282.822540 319.495575,282.305450 
	C330.910095,280.279816 339.310883,287.289337 339.225983,296.597260 
	C339.214905,297.812500 340.042053,299.035400 340.480927,300.254730 
	C344.275818,295.470337 343.125275,290.787750 340.981384,286.631226 
	C335.511261,276.025970 325.535492,275.272369 314.877136,276.059418 
	C316.173645,267.131256 315.027008,259.096313 308.906097,251.627060 
M158.636490,242.501495 
	C156.104248,241.797104 153.595062,240.581161 151.036255,240.465759 
	C117.529343,238.954773 84.110077,240.378036 50.774662,243.920319 
	C49.406059,244.065765 48.142124,245.196198 46.829414,245.867737 
	C48.172638,246.497437 49.501450,247.642990 50.861206,247.680969 
	C80.674171,248.513809 110.485191,248.822220 140.211182,245.758408 
	C146.262177,245.134750 152.266449,244.057999 158.636490,242.501495 
M136.497070,286.843567 
	C128.316986,292.644104 125.343292,300.481812 129.789688,305.136139 
	C130.200531,304.627258 130.788376,304.201660 130.954117,303.649384 
	C134.702484,291.158936 140.188156,288.312561 152.370682,292.588196 
	C156.635406,294.084961 158.127045,292.328430 157.995468,287.603912 
	C157.884811,283.630188 157.986786,279.085327 159.764038,275.730713 
	C165.013153,265.822845 181.891571,260.621582 191.852371,265.686340 
	C195.048813,267.311615 197.384140,270.688538 199.994064,273.379822 
	C200.997147,274.414185 201.667511,275.771179 202.489471,276.981201 
	C202.986328,276.809998 203.483170,276.638794 203.980011,276.467590 
	C203.852448,274.991547 204.015747,273.415405 203.547958,272.056488 
	C201.281082,265.471222 196.660706,261.174011 190.101273,258.973267 
	C170.997574,252.563889 153.018906,263.526947 149.289185,283.298737 
	C145.061050,284.389374 141.093842,285.412689 136.497070,286.843567 
M314.328827,300.868439 
	C316.562775,300.385498 318.796722,299.902527 321.870361,299.238037 
	C314.429382,293.402222 274.742340,293.392303 267.140839,299.209778 
	C283.095612,303.121796 298.232452,302.857452 314.328827,300.868439 
M176.609558,310.045959 
	C179.745285,309.589600 182.881012,309.133240 186.782333,308.565430 
	C180.357529,301.749969 139.728607,301.566284 136.059418,307.319916 
	C141.694275,310.292603 159.872833,311.569977 176.609558,310.045959 
z"/>
<path fill="#0B0302" opacity="1.000000" stroke="none" 
	d="
M309.135712,251.905365 
	C315.027008,259.096313 316.173645,267.131256 314.877136,276.059418 
	C325.535492,275.272369 335.511261,276.025970 340.981384,286.631226 
	C343.125275,290.787750 344.275818,295.470337 340.480927,300.254730 
	C340.042053,299.035400 339.214905,297.812500 339.225983,296.597260 
	C339.310883,287.289337 330.910095,280.279816 319.495575,282.305450 
	C316.582092,282.822540 313.847076,284.290192 310.946503,284.958405 
	C309.505371,285.290436 307.361176,285.352295 306.475922,284.527039 
	C305.603577,283.713837 305.638855,281.601624 305.767029,280.101318 
	C306.157898,275.526520 307.696045,270.854156 307.124542,266.434875 
	C306.053345,258.151855 300.809235,252.476303 292.749023,250.204651 
	C284.446014,247.864563 277.797180,251.428467 272.230804,257.425720 
	C271.216187,258.518890 270.247559,259.706848 269.510742,260.995697 
	C267.528656,264.462769 265.693970,265.224121 262.866486,261.589447 
	C261.442535,259.759003 259.030243,258.697388 256.934174,257.194397 
	C256.157501,258.290344 255.683517,258.766144 255.434021,259.339600 
	C249.931992,271.985657 247.067474,285.408264 244.674850,298.859192 
	C243.930573,303.043396 245.949814,307.719177 246.798065,312.725525 
	C251.329529,312.990479 252.797073,316.786957 252.968964,321.473297 
	C253.182175,327.286285 253.363174,333.103851 253.371490,338.919739 
	C253.377060,342.821747 251.025391,345.522034 247.390945,345.807404 
	C238.497345,346.505646 229.556213,346.881073 220.636749,346.839539 
	C216.619537,346.820862 213.557953,343.925171 213.165070,339.936401 
	C212.502396,333.208832 212.289062,326.393463 212.518661,319.636505 
	C212.677368,314.965576 216.243958,312.873199 220.550659,312.287781 
	C221.333221,304.907471 220.880325,298.156525 218.122543,291.059296 
	C215.518265,284.357117 213.008774,277.915436 209.513657,271.478333 
	C193.453690,241.900024 174.699402,214.339417 152.378113,189.153702 
	C141.031570,176.351089 131.158173,162.611282 127.880020,145.053528 
	C116.980736,144.610733 107.702957,147.396790 100.530373,155.370911 
	C93.041420,163.696762 93.530273,174.401413 101.185944,185.141449 
	C102.439316,186.899780 102.531952,189.485489 103.161057,191.688797 
	C100.918663,191.937668 98.525154,192.815048 96.461861,192.318985 
	C89.952782,190.754105 84.367531,192.460266 80.583939,197.796585 
	C76.296982,203.842850 76.323540,212.116837 80.692863,218.422928 
	C81.787498,220.002792 82.997841,221.502518 84.890060,224.015106 
	C82.783569,224.015106 81.544510,224.395401 80.897682,223.938065 
	C79.430046,222.900406 77.690933,221.681778 77.053131,220.129562 
	C73.625893,211.788742 67.019783,212.104172 60.052147,213.681793 
	C51.833065,215.542755 45.608517,220.006165 43.915813,228.714355 
	C43.237457,232.204163 43.932785,235.959457 43.987892,239.594147 
	C44.009895,241.045563 43.991508,242.497589 43.991508,244.455109 
	C37.485123,239.747040 35.454548,227.947067 39.131504,219.803711 
	C44.064655,208.878281 55.120407,205.064636 71.791252,208.746338 
	C72.044785,196.104385 77.309471,187.096893 90.747337,183.966553 
	C85.671875,172.307510 86.086250,161.208252 95.006287,151.630539 
	C103.474243,142.538239 114.520798,140.151520 126.824997,140.900803 
	C126.486359,136.453812 125.985558,132.195801 125.864868,127.927055 
	C124.868385,92.680244 136.846878,63.201027 165.443390,41.679211 
	C204.578918,12.225710 269.053314,15.510380 304.488770,48.371021 
	C333.529816,75.301880 340.787048,118.231979 322.190155,153.218567 
	C320.089355,157.170853 317.863342,161.056595 315.535095,165.262802 
	C317.542969,166.347031 319.371948,167.334671 321.344391,168.399765 
	C330.430511,158.236069 341.016937,151.573944 354.868164,157.081192 
	C368.575714,162.531311 370.902100,174.578308 370.129120,187.677109 
	C391.400635,187.969650 399.777130,196.374542 396.105438,213.513214 
	C405.086853,221.200058 407.535767,228.800995 403.992279,238.494965 
	C403.609314,239.542694 402.453156,240.307800 401.655670,241.204010 
	C401.154388,240.134415 400.395721,239.106750 400.212982,237.985245 
	C399.947998,236.359024 400.199371,234.656311 400.055817,233.001389 
	C399.363190,225.016006 394.495728,219.773346 386.490112,219.904388 
	C381.332397,219.988831 376.209076,221.882874 371.058380,222.905777 
	C369.878510,223.140076 368.649597,223.127182 367.443237,223.228058 
	C367.912994,221.990814 368.058441,220.437134 368.905975,219.568512 
	C373.856140,214.495178 380.382538,212.390991 391.704193,211.985352 
	C393.975220,207.416611 392.474792,203.354126 389.559021,199.679062 
	C385.783508,194.920471 380.524567,193.549240 374.778046,194.366669 
	C372.379883,194.707809 370.172699,196.229599 367.787506,196.880432 
	C366.181671,197.318588 363.911804,197.861816 362.861511,197.094818 
	C361.777222,196.302994 361.417267,193.979523 361.429260,192.331116 
	C361.460541,188.023895 362.369141,183.679947 362.033661,179.421066 
	C360.939270,165.528305 348.271912,158.003479 335.684906,164.016479 
	C331.486359,166.022186 327.933044,169.601654 324.490967,172.887268 
	C322.292877,174.985428 321.006134,175.464066 318.936218,172.896271 
	C317.638672,171.286575 315.696747,170.196304 313.661957,168.567154 
	C304.002655,182.844345 294.635284,196.690002 285.809601,209.734985 
	C291.894226,213.719147 297.751923,217.554733 303.062561,221.032104 
	C309.560303,217.452774 316.225922,212.628998 323.661896,209.918961 
	C340.342865,203.839523 357.250427,213.319473 359.591492,229.517334 
	C360.292908,234.370544 359.699890,239.410843 359.699890,244.986282 
	C371.077759,244.986282 382.994019,244.986282 395.522888,244.986282 
	C387.392822,253.667740 326.411682,255.276489 312.226532,247.996384 
	C314.893829,247.309372 316.596039,246.568375 318.333710,246.472946 
	C328.812256,245.897446 339.296661,245.209885 349.783966,245.118256 
	C354.091522,245.080627 355.024109,243.519897 355.143188,239.623383 
	C355.669647,222.393875 344.759521,213.254745 327.832153,216.988739 
	C319.408142,218.847000 312.536804,223.292709 306.637756,229.462967 
	C302.570526,233.717163 300.967285,233.405960 298.603516,227.878342 
	C296.038239,221.879471 291.879608,217.540909 285.636230,215.596939 
	C284.303894,215.182098 281.718506,215.665268 281.075653,216.637482 
	C273.101196,228.697433 265.379547,240.924545 257.432526,253.359467 
	C260.652222,254.827713 263.049774,255.921036 265.450592,257.016052 
	C277.359772,239.001373 296.752136,238.186050 309.135712,251.905365 
M317.113983,149.460999 
	C336.768524,107.852806 321.043945,61.572884 280.089783,40.542629 
	C261.255524,30.871098 241.068176,28.415983 220.323898,30.116093 
	C195.541565,32.147144 173.989212,41.392647 156.629410,59.760666 
	C130.311600,87.606972 120.137238,143.982071 153.687241,181.982361 
	C172.343643,203.113464 189.065613,225.784790 202.629242,250.626129 
	C204.609833,254.253494 206.580658,257.886200 208.507401,261.427124 
	C231.464127,255.510193 228.413300,255.825714 250.084778,261.188232 
	C258.260315,241.085037 270.687531,223.363571 282.388641,205.189896 
	C294.102234,186.996811 305.352295,168.505249 317.113983,149.460999 
M248.788605,322.600586 
	C248.685196,320.832672 248.581787,319.064758 248.470490,317.162170 
	C243.164230,317.162170 238.360138,316.971649 233.575684,317.197418 
	C218.418991,317.912628 217.184784,319.633728 219.836273,334.605011 
	C220.417145,337.884979 221.755402,339.711700 225.184967,339.767700 
	C230.489365,339.854309 235.806519,339.795807 241.093063,340.162384 
	C246.492447,340.536774 248.523468,338.129608 248.344559,332.957794 
	C248.236053,329.821075 248.624054,326.667206 248.788605,322.600586 
M240.673233,283.440796 
	C234.974350,283.440796 229.275467,283.440796 223.564453,283.440796 
	C224.947556,288.428925 226.119659,292.656128 227.335815,297.042175 
	C231.028152,297.042175 234.757767,297.042175 238.138123,297.042175 
	C238.973358,292.606140 239.760132,288.427399 240.673233,283.440796 
M220.615326,270.957733 
	C229.464279,265.341766 238.013855,268.834290 246.612137,272.542511 
	C247.338928,269.930511 247.872528,268.012787 248.544601,265.597382 
	C235.686539,265.597382 223.522110,265.597382 210.475815,265.597382 
	C212.509033,268.938019 214.067825,271.499146 215.682587,274.152252 
	C217.494568,272.948853 218.731537,272.127350 220.615326,270.957733 
M225.901199,310.679016 
	C230.826874,311.379303 235.752548,312.079559 241.305847,312.869049 
	C240.648987,309.163940 242.447495,305.795654 237.669006,305.109100 
	C229.360245,303.915405 227.421234,304.580933 225.901199,310.679016 
z"/>
<path fill="#0C0403" opacity="1.000000" stroke="none" 
	d="
M158.464386,242.845810 
	C152.266449,244.057999 146.262177,245.134750 140.211182,245.758408 
	C110.485191,248.822220 80.674171,248.513809 50.861206,247.680969 
	C49.501450,247.642990 48.172638,246.497437 46.829418,245.867737 
	C48.142124,245.196198 49.406059,244.065765 50.774662,243.920319 
	C84.110077,240.378036 117.529343,238.954773 151.036255,240.465759 
	C153.595062,240.581161 156.104248,241.797104 158.464386,242.845810 
z"/>
<path fill="#0B0403" opacity="1.000000" stroke="none" 
	d="
M136.811859,286.639801 
	C141.093842,285.412689 145.061050,284.389374 149.289185,283.298737 
	C153.018906,263.526947 170.997574,252.563889 190.101273,258.973267 
	C196.660706,261.174011 201.281082,265.471222 203.547958,272.056488 
	C204.015747,273.415405 203.852448,274.991547 203.980011,276.467590 
	C203.483170,276.638794 202.986328,276.809998 202.489471,276.981201 
	C201.667511,275.771179 200.997147,274.414185 199.994064,273.379822 
	C197.384140,270.688538 195.048813,267.311615 191.852371,265.686340 
	C181.891571,260.621582 165.013153,265.822845 159.764038,275.730713 
	C157.986786,279.085327 157.884811,283.630188 157.995468,287.603912 
	C158.127045,292.328430 156.635406,294.084961 152.370682,292.588196 
	C140.188156,288.312561 134.702484,291.158936 130.954117,303.649384 
	C130.788376,304.201660 130.200531,304.627258 129.789688,305.136139 
	C125.343292,300.481812 128.316986,292.644104 136.811859,286.639801 
z"/>
<path fill="#0C0403" opacity="1.000000" stroke="none" 
	d="
M313.895905,300.918030 
	C298.232452,302.857452 283.095612,303.121796 267.140839,299.209778 
	C274.742340,293.392303 314.429382,293.402222 321.870361,299.238037 
	C318.796722,299.902527 316.562775,300.385498 313.895905,300.918030 
z"/>
<path fill="#0E0403" opacity="1.000000" stroke="none" 
	d="
M176.160568,310.076111 
	C159.872833,311.569977 141.694275,310.292603 136.059418,307.319916 
	C139.728607,301.566284 180.357529,301.749969 186.782333,308.565430 
	C182.881012,309.133240 179.745285,309.589600 176.160568,310.076111 
z"/>
<path fill="#EF523C" opacity="0.000000" stroke="none" 
	d="
M316.959747,149.802765 
	C305.352295,168.505249 294.102234,186.996811 282.388641,205.189896 
	C270.687531,223.363571 258.260315,241.085037 250.084778,261.188232 
	C228.413300,255.825714 231.464127,255.510193 208.507401,261.427124 
	C206.580658,257.886200 204.609833,254.253494 202.629242,250.626129 
	C189.065613,225.784790 172.343643,203.113464 153.687241,181.982361 
	C120.137238,143.982071 130.311600,87.606972 156.629410,59.760666 
	C173.989212,41.392647 195.541565,32.147144 220.323898,30.116093 
	C241.068176,28.415983 261.255524,30.871098 280.089783,40.542629 
	C321.043945,61.572884 336.768524,107.852806 316.959747,149.802765 
M288.723358,82.811707 
	C285.910889,78.748787 283.176300,74.627167 280.204712,70.684166 
	C279.741547,70.069565 278.197723,70.269386 277.153564,70.092613 
	C277.297546,71.079506 277.218567,72.171524 277.625519,73.034424 
	C279.098389,76.157570 281.252747,79.049408 282.222321,82.304810 
	C287.353424,99.533195 288.839264,117.192429 287.549622,135.082169 
	C287.300079,138.544052 286.317047,141.947876 285.877533,145.404587 
	C285.755615,146.363235 286.371185,147.415695 286.648407,148.425125 
	C287.486908,147.839981 288.501526,147.395554 289.113586,146.629501 
	C289.706909,145.886917 289.911621,144.822708 290.244232,143.884583 
	C297.433533,123.607002 297.160614,103.480186 288.723358,82.811707 
M283.116364,163.222702 
	C283.409607,160.828400 283.702850,158.434097 284.052124,155.582352 
	C275.845520,158.135437 274.090729,160.686890 275.460266,167.799484 
	C278.027283,166.425629 280.387787,165.162308 283.116364,163.222702 
z"/>
<path fill="#EC513B" opacity="0.000000" stroke="none" 
	d="
M248.788803,323.060791 
	C248.624054,326.667206 248.236053,329.821075 248.344559,332.957794 
	C248.523468,338.129608 246.492447,340.536774 241.093063,340.162384 
	C235.806519,339.795807 230.489365,339.854309 225.184967,339.767700 
	C221.755402,339.711700 220.417145,337.884979 219.836273,334.605011 
	C217.184784,319.633728 218.418991,317.912628 233.575684,317.197418 
	C238.360138,316.971649 243.164230,317.162170 248.470490,317.162170 
	C248.581787,319.064758 248.685196,320.832672 248.788803,323.060791 
z"/>
<path fill="#EA503B" opacity="0.000000" stroke="none" 
	d="
M240.610077,283.844727 
	C239.760132,288.427399 238.973358,292.606140 238.138123,297.042175 
	C234.757767,297.042175 231.028152,297.042175 227.335815,297.042175 
	C226.119659,292.656128 224.947556,288.428925 223.564453,283.440796 
	C229.275467,283.440796 234.974350,283.440796 240.610077,283.844727 
z"/>
<path fill="#F3543D" opacity="0.000000" stroke="none" 
	d="
M220.291916,271.131775 
	C218.731537,272.127350 217.494568,272.948853 215.682587,274.152252 
	C214.067825,271.499146 212.509033,268.938019 210.475815,265.597382 
	C223.522110,265.597382 235.686539,265.597382 248.544601,265.597382 
	C247.872528,268.012787 247.338928,269.930511 246.612137,272.542511 
	C238.013855,268.834290 229.464279,265.341766 220.291916,271.131775 
z"/>
<path fill="#E7503B" opacity="0.000000" stroke="none" 
	d="
M225.934937,310.235229 
	C227.421234,304.580933 229.360245,303.915405 237.669006,305.109100 
	C242.447495,305.795654 240.648987,309.163940 241.305847,312.869049 
	C235.752548,312.079559 230.826874,311.379303 225.934937,310.235229 
z"/>
<path fill="#0B0302" opacity="1.000000" stroke="none" 
	d="
M288.866699,83.163513 
	C297.160614,103.480186 297.433533,123.607002 290.244232,143.884583 
	C289.911621,144.822708 289.706909,145.886917 289.113586,146.629501 
	C288.501526,147.395554 287.486908,147.839981 286.648407,148.425125 
	C286.371185,147.415695 285.755615,146.363235 285.877533,145.404587 
	C286.317047,141.947876 287.300079,138.544052 287.549622,135.082169 
	C288.839264,117.192429 287.353424,99.533195 282.222321,82.304810 
	C281.252747,79.049408 279.098389,76.157570 277.625519,73.034424 
	C277.218567,72.171524 277.297546,71.079506 277.153564,70.092606 
	C278.197723,70.269386 279.741547,70.069565 280.204712,70.684166 
	C283.176300,74.627167 285.910889,78.748787 288.866699,83.163513 
z"/>
<path fill="#0C0403" opacity="1.000000" stroke="none" 
	d="
M282.932312,163.560837 
	C280.387787,165.162308 278.027283,166.425629 275.460266,167.799484 
	C274.090729,160.686890 275.845520,158.135437 284.052124,155.582352 
	C283.702850,158.434097 283.409607,160.828400 282.932312,163.560837 
z"/>
</svg>