<svg version="1.1" id="Layer_1" xmlns="http://www.w3.org/2000/svg" xmlns:xlink="http://www.w3.org/1999/xlink" x="0px" y="0px"
	 width="100%" viewBox="0 0 437 328" enable-background="new 0 0 437 328" xml:space="preserve">
<path fill="#FEB0E2" opacity="0.000000" stroke="none" 
	d="
M267.000000,329.000000 
	C179.333359,329.000000 92.166679,328.974274 5.000211,329.095856 
	C1.576145,329.100647 0.900835,328.424194 0.904576,325.000000 
	C1.021110,218.333481 1.021096,111.666794 0.904613,5.000280 
	C0.900874,1.576639 1.575744,0.902436 4.999895,0.905087 
	C147.999771,1.015783 290.999725,1.015768 433.999634,0.905154 
	C437.422760,0.902506 438.099213,1.575142 438.095459,4.999796 
	C437.978912,111.666306 437.978912,218.332993 438.095367,324.999512 
	C438.099091,328.422638 437.426025,329.105682 434.000153,329.097229 
	C378.500366,328.959778 323.000122,329.000000 267.000000,329.000000 
z"/>
<path fill="#0B080A" opacity="1.000000" stroke="none" 
	d="
M127.839417,205.349991 
	C127.627884,203.538406 127.595482,201.958954 126.988693,200.644699 
	C120.280640,186.115341 122.171349,171.171768 124.339462,156.079483 
	C125.970177,144.727966 126.821686,133.264481 127.968834,121.429359 
	C127.085533,115.737595 128.314590,110.490021 128.065292,105.207428 
	C127.823853,100.090958 128.022888,94.951958 127.738617,89.413086 
	C127.611244,80.820511 126.089058,72.850334 124.053436,64.955353 
	C122.497681,58.921520 124.435974,55.092346 130.430130,53.003761 
	C140.142593,49.619576 148.856415,52.160378 156.419846,58.527809 
	C167.694885,68.019928 172.165009,80.805069 172.952423,95.107254 
	C173.189606,99.415527 173.005524,103.747002 173.072876,108.533096 
	C173.861099,117.034958 172.306244,125.074799 173.126984,133.558167 
	C173.075241,134.173782 173.061768,134.342453 173.162048,134.738037 
	C175.934052,136.975021 178.566483,135.700912 181.233887,134.951584 
	C184.589401,134.008987 187.473145,132.025299 191.032166,130.722427 
	C191.372513,130.654312 191.539337,130.619370 191.586121,130.548157 
	C191.240311,129.442184 192.153992,129.604935 192.966949,129.385284 
	C193.292557,129.393692 193.086548,129.143829 193.204315,129.254944 
	C193.346222,128.521896 194.053101,128.547791 194.890076,128.271576 
	C195.183319,128.177368 195.064316,128.044846 195.105194,128.123962 
	C195.253525,127.825043 195.470154,127.522484 196.054153,127.373154 
	C196.327560,127.461449 196.338776,127.406525 196.366104,127.400299 
	C196.339111,126.489281 197.095993,126.556107 197.919250,126.228622 
	C198.508316,126.101578 198.771088,126.001099 199.100677,125.609688 
	C199.232010,124.961952 199.434509,124.593452 200.062378,124.491714 
	C200.335770,124.679474 200.539749,124.646294 200.589493,124.555725 
	C200.239502,123.471931 201.125046,123.602020 201.902802,123.291481 
	C202.209274,123.212898 202.044876,123.028152 202.114517,123.130310 
	C202.254761,122.843452 202.453949,122.533798 203.044952,122.350418 
	C203.325745,122.408195 203.352478,122.364960 203.374863,122.352905 
	C203.279449,121.892128 203.428513,121.547081 204.059509,121.480087 
	C204.313690,121.669670 204.507965,121.630287 204.552582,121.541779 
	C204.268951,120.458298 205.139389,120.591393 205.913742,120.228416 
	C206.511963,120.082268 206.770523,119.961624 207.068573,119.533844 
	C207.239761,118.917297 207.448715,118.574760 208.062866,118.387726 
	C208.359207,118.479485 208.436340,118.433174 208.462418,118.396515 
	C208.257172,117.935051 208.370087,117.610542 209.021301,117.568565 
	C209.266113,117.765564 209.564575,117.716339 209.630539,117.580238 
	C209.336914,116.529442 210.137009,116.579681 210.890442,116.257492 
	C211.176514,116.161942 211.063171,116.057549 211.099319,116.125595 
	C211.245697,115.831749 211.454483,115.537628 212.024673,115.326942 
	C212.300873,115.351784 212.171387,115.169373 212.255829,115.242706 
	C212.277954,114.871063 212.447479,114.532669 213.061768,114.475174 
	C213.309235,114.665375 213.506989,114.626686 213.551682,114.536400 
	C213.273956,113.461166 214.134659,113.590378 214.899506,113.222694 
	C215.498032,113.066849 215.758057,112.938614 216.052338,112.494293 
	C216.240967,111.903114 216.445084,111.579620 217.030899,111.344421 
	C217.322601,111.377853 217.279877,111.279053 217.328430,111.302261 
	C217.284271,110.876755 217.443542,110.534386 218.064484,110.478241 
	C218.311798,110.674011 218.510284,110.637184 218.556580,110.547485 
	C218.261627,109.463608 219.131973,109.593712 219.904449,109.230850 
	C238.343246,95.562943 256.416718,81.924568 274.671844,68.533852 
	C286.754059,59.671150 299.078094,51.120922 312.473633,44.299644 
	C317.694794,41.640953 323.292053,38.679485 328.672546,43.587631 
	C334.122070,48.558762 333.471649,54.880692 331.285889,61.187260 
	C329.228851,67.122437 325.651337,72.156555 321.366333,76.625305 
	C308.104309,90.456070 294.721527,104.171036 281.389465,117.934677 
	C280.710175,118.635925 280.066864,119.372017 279.222534,120.292870 
	C292.374237,127.124084 296.414581,138.188065 294.691986,151.979004 
	C294.534546,153.239670 293.882690,154.187149 295.754425,155.112228 
	C307.288666,160.812958 311.893402,169.676529 309.576447,182.194885 
	C309.013794,185.234833 309.721863,186.883545 311.726074,189.053528 
	C318.927032,196.849930 320.090973,206.163452 317.321533,216.085159 
	C314.295197,226.927063 307.161346,235.083344 299.187225,242.523682 
	C281.624878,258.910431 261.369110,271.440125 240.136978,282.330658 
	C225.519409,289.828430 212.207718,299.092621 199.246490,309.050995 
	C186.406601,318.916138 185.382446,318.718292 174.789169,306.701538 
	C159.220657,289.040955 141.618317,273.432831 124.892998,256.938660 
	C123.341492,255.408585 119.443527,253.657089 121.650475,251.319962 
	C123.989548,248.842896 125.714073,252.806656 127.351486,254.237793 
	C143.657700,268.489746 160.451523,282.206573 175.593002,297.749237 
	C177.802078,300.016815 180.331482,302.084625 182.066040,304.677460 
	C185.128632,309.255463 188.109360,308.614532 191.702576,305.509186 
	C194.850815,302.788452 198.332153,300.447968 201.432419,297.677704 
	C216.043365,284.622101 233.906967,276.957031 250.779724,267.632538 
	C266.981476,258.678864 282.761566,249.039932 296.526428,236.519775 
	C304.352478,229.401413 311.481506,221.656723 313.481049,210.695038 
	C314.860687,203.131775 313.244843,196.330734 307.737274,190.045197 
	C304.322845,197.380432 300.144196,203.286072 293.879852,207.450424 
	C292.739075,208.208755 291.537720,209.859894 290.023926,208.184540 
	C288.442566,206.434418 290.389343,205.562134 291.273926,204.588699 
	C299.642731,195.379486 302.322510,184.304855 301.801056,172.245453 
	C301.649048,168.730759 300.632660,165.329315 298.359650,162.505646 
	C295.211426,158.594727 293.136383,158.823883 290.811432,163.086578 
	C287.666168,168.853333 283.564209,173.862518 278.403320,177.948013 
	C277.227081,178.879166 275.970947,180.960526 274.269592,179.050476 
	C272.920593,177.536057 274.619080,176.331680 275.521423,175.229813 
	C282.715942,166.444153 286.893860,156.481171 287.094910,145.049866 
	C287.229431,137.400024 285.150116,130.577240 278.975800,125.474144 
	C277.014709,123.853287 275.533112,123.594147 273.583038,125.784111 
	C270.041534,129.761261 266.158508,133.436310 262.377106,137.196274 
	C261.493622,138.074753 260.548462,139.663101 259.099121,138.441681 
	C257.446991,137.049332 258.776398,135.773651 259.807587,134.671692 
	C268.461578,125.423630 277.124115,116.183571 285.785248,106.942207 
	C295.700104,96.363152 305.633087,85.801033 315.523285,75.198975 
	C319.397400,71.046051 322.918152,66.633804 325.219971,61.357559 
	C326.439667,58.561775 327.242859,55.707981 326.906281,52.642719 
	C326.388214,47.924217 323.770905,46.226440 319.338531,47.933510 
	C312.930939,50.401310 307.198578,54.126495 301.545288,57.957558 
	C269.241425,79.848976 238.886337,104.302162 208.493683,128.709106 
	C200.809616,134.879822 192.729004,140.507492 183.240387,143.587769 
	C171.263901,147.475662 164.568283,143.079926 164.245117,130.505508 
	C163.975937,120.032440 164.876053,109.534538 165.009247,99.044464 
	C165.143097,88.501472 162.994690,78.504967 156.611115,69.811508 
	C151.838959,63.312584 145.662445,59.095264 137.324371,58.997818 
	C131.490540,58.929642 130.499802,60.390587 131.766174,66.098938 
	C133.682159,74.735519 134.806351,83.481674 135.259216,92.792358 
	C135.466583,93.127548 135.593155,93.007622 135.659363,92.860527 
	C135.895233,92.336372 136.133026,92.328110 136.170227,92.864487 
	C136.555984,98.426758 137.017838,103.992340 135.654007,109.104187 
	C134.002655,131.254745 130.622635,153.594360 127.217415,175.926773 
	C126.354378,181.586853 127.485504,186.976990 129.574432,192.008240 
	C134.929611,204.906372 133.420013,216.806091 125.894875,228.375992 
	C122.645897,233.371307 120.166992,238.861847 117.150116,244.017319 
	C116.296265,245.476456 115.835640,248.629257 113.238541,247.159256 
	C110.948990,245.863342 113.194283,243.942093 113.923416,242.475418 
	C117.543053,235.194412 121.263069,227.963303 124.986053,220.363205 
	C125.048828,218.778763 125.302299,217.603851 126.243988,216.671600 
	C126.577225,216.824158 126.807495,216.627014 126.787262,216.476807 
	C127.404236,212.814819 128.608780,209.355606 127.839417,205.349991 
z"/>
<path fill="#0C080A" opacity="1.000000" stroke="none" 
	d="
M243.468323,53.853165 
	C242.604263,56.780918 241.853867,59.312523 241.782822,62.017384 
	C241.720749,64.380676 242.325806,66.202744 244.523483,67.405388 
	C245.887512,68.151825 246.907425,69.349373 246.528015,71.048164 
	C246.174789,72.629745 245.061172,73.725578 243.426529,73.879959 
	C236.460175,74.537865 232.514221,78.895905 229.790939,84.809120 
	C228.536804,87.532280 226.580963,89.457932 223.558212,87.881966 
	C220.489365,86.281952 221.068817,83.576378 222.617111,81.033539 
	C226.154465,75.223930 227.254288,69.025841 225.578812,62.395153 
	C224.839523,59.469360 226.066544,57.161736 228.902786,58.027790 
	C233.389328,59.397785 235.368515,56.701332 237.563065,54.075741 
	C239.151230,52.175636 240.407394,49.998539 241.818573,47.949757 
	C242.464981,47.011261 243.060028,45.718632 244.481262,46.393883 
	C246.084564,47.155621 245.675827,48.468307 245.065979,49.780815 
	C244.508652,50.980293 244.092209,52.245239 243.468323,53.853165 
z"/>
<path fill="#090608" opacity="1.000000" stroke="none" 
	d="
M340.080292,121.209091 
	C339.947937,128.255219 343.910065,132.331390 348.988129,135.642441 
	C351.061249,136.994202 353.028381,138.470764 352.056610,141.203461 
	C350.910370,144.426819 348.373901,145.100571 345.714844,143.115570 
	C339.745667,138.659576 333.361115,136.117706 325.745300,137.181351 
	C323.366028,137.513657 321.395447,135.753174 322.419800,133.567352 
	C325.011719,128.036392 320.606842,125.829163 318.063171,122.585327 
	C316.433929,120.507683 311.494537,119.379883 313.315552,116.730164 
	C315.397064,113.701355 318.221649,118.050163 320.823120,118.826241 
	C325.595917,120.250092 330.011536,123.574600 334.839142,118.210449 
	C337.141266,115.652466 339.258972,117.956924 340.080292,121.209091 
z"/>
<path fill="#100B0E" opacity="1.000000" stroke="none" 
	d="
M187.256989,56.339142 
	C190.820038,56.248604 195.112946,56.513935 195.723602,53.141605 
	C196.325867,49.815647 191.697861,50.106041 189.386856,48.835083 
	C186.750122,47.384979 184.120682,46.021667 182.169220,43.640236 
	C178.032364,38.591835 178.946426,33.320225 184.803726,30.561079 
	C187.007294,29.523054 188.348511,28.552210 188.195389,25.975132 
	C188.127731,24.836029 188.470505,23.513521 189.827942,23.211653 
	C191.249161,22.895601 192.002182,24.126156 192.397736,25.135269 
	C193.454178,27.830526 194.976944,29.862055 197.820770,30.945709 
	C198.893616,31.354528 200.321716,32.457787 199.393616,34.034557 
	C198.396057,35.729298 197.166611,34.557064 195.992783,34.003696 
	C195.105820,33.585567 194.112518,33.102310 193.178970,33.126579 
	C190.002716,33.209152 186.176468,33.315266 185.166870,36.754807 
	C184.221237,39.976479 187.615341,41.487484 190.061722,42.813347 
	C192.532288,44.152306 195.350555,44.893429 197.713120,46.378963 
	C203.008865,49.708813 202.978317,55.746677 197.558136,58.769855 
	C195.312790,60.022243 194.064758,61.104321 194.070328,63.849373 
	C194.073593,65.462318 193.663513,67.973167 191.476822,68.105255 
	C188.915649,68.259972 188.950806,65.607925 189.015945,64.034378 
	C189.124268,61.417023 187.943954,60.660114 185.707199,60.306873 
	C182.961441,59.873241 180.704041,58.521126 179.347824,55.980843 
	C178.786392,54.929237 178.336105,53.740627 179.482773,52.817204 
	C180.856552,51.710869 181.545166,52.880066 182.179626,53.861721 
	C183.278046,55.561211 184.903320,56.207939 187.256989,56.339142 
z"/>
<path fill="#0F0A0D" opacity="1.000000" stroke="none" 
	d="
M101.123779,134.672882 
	C101.340797,137.121414 102.254570,139.759583 100.407005,141.119797 
	C96.419868,144.055176 93.623009,147.428528 92.652267,152.425980 
	C92.345337,154.006073 90.457283,153.928818 89.706520,152.394226 
	C89.076698,151.106888 89.028236,149.535110 88.614899,147.779236 
	C88.507782,147.072556 88.331367,146.774506 87.744843,146.451874 
	C84.248299,145.614273 81.232986,144.327042 79.433327,141.445068 
	C78.439194,139.853073 77.265907,137.354538 81.501617,138.026810 
	C82.150223,138.252426 82.470406,138.491058 82.601257,139.082916 
	C82.468575,139.357956 82.515518,139.475037 82.570572,139.505798 
	C83.053436,139.280823 83.407967,139.372940 83.581528,140.068344 
	C83.463318,140.373825 83.529144,140.495346 83.594788,140.516922 
	C87.048935,141.262939 90.389595,141.161240 94.007202,139.937775 
	C94.347878,139.916519 94.772049,139.815155 94.886780,139.629730 
	C95.232201,136.096954 92.396790,136.017776 90.297562,134.771942 
	C87.425446,133.020020 84.566872,131.670959 82.406631,129.242203 
	C77.724403,123.977974 78.673981,118.434998 84.998459,115.491837 
	C86.782890,114.661438 88.375275,114.164078 87.939575,111.397804 
	C87.581299,110.560753 87.484085,110.068390 87.961060,109.323448 
	C88.595497,109.053177 88.811028,108.883263 89.012291,108.407814 
	C89.369835,107.672501 89.812050,107.467102 90.659134,107.906372 
	C90.960999,108.528114 91.114899,108.766945 91.577431,109.014191 
	C92.143044,109.245171 92.451447,109.473373 92.676331,110.053299 
	C92.638184,110.342285 92.902367,110.043556 92.758194,110.181313 
	C94.237312,111.098755 93.529305,113.065041 94.795647,114.373703 
	C95.461685,114.772484 95.893692,114.943092 96.666893,115.185387 
	C97.164604,115.092842 97.321121,114.928612 97.305756,115.058075 
	C97.133858,115.351776 97.309853,115.663239 97.487144,115.686981 
	C98.031197,115.367668 98.379883,115.401031 98.624046,116.073090 
	C98.535194,116.385132 98.718658,116.236450 98.648911,116.331718 
	C100.045364,117.131989 100.858963,118.038315 99.261719,119.789810 
	C98.966248,119.982376 98.997902,120.003807 98.991272,119.986038 
	C98.314041,120.584579 97.555153,120.681656 96.538727,119.986801 
	C96.353638,119.620857 96.087502,119.870743 96.207001,119.732765 
	C92.888710,118.643806 89.561745,118.774925 86.070015,120.665779 
	C85.730682,120.721054 85.953499,120.985115 85.834084,120.860077 
	C85.589500,121.719444 85.342201,122.701286 85.645432,123.994263 
	C85.638351,124.293701 85.903107,124.084236 85.782578,124.202415 
	C86.115417,124.269447 86.467232,124.442009 86.583405,125.088943 
	C86.434799,125.371597 86.491371,125.504234 86.557312,125.533371 
	C87.020683,125.284813 87.372757,125.318298 87.651291,126.037186 
	C87.630730,126.359055 87.762161,126.261055 87.721176,126.332047 
	C88.375427,126.315643 89.008301,126.477997 89.471321,127.195786 
	C89.360771,127.513725 89.478737,127.664368 89.574295,127.668739 
	C92.123703,127.787682 94.126534,129.307465 96.328857,130.195175 
	C96.213844,130.543045 96.364891,130.737701 96.487991,130.732727 
	C97.526466,130.510193 98.025894,131.177200 98.775452,131.908112 
	C99.335403,132.725327 99.728516,133.301498 100.334381,134.035431 
	C100.775238,134.242126 101.003342,134.291031 101.123779,134.672882 
z"/>
<path fill="#100B0E" opacity="1.000000" stroke="none" 
	d="
M361.439697,65.543877 
	C368.831116,70.505951 369.424103,75.565834 362.837341,80.102310 
	C360.331787,81.827950 361.750549,83.997986 360.646027,85.661011 
	C359.866241,86.835098 360.046875,88.921989 358.110504,88.974358 
	C355.999115,89.031441 355.948395,87.038795 355.881622,85.686760 
	C355.731110,82.638931 354.507324,81.160660 351.333557,80.701431 
	C348.840912,80.340790 346.827881,78.659187 345.858612,76.087982 
	C345.474487,75.068909 345.393890,74.064796 346.348877,73.409233 
	C347.445557,72.656410 348.148956,73.457672 348.782196,74.298225 
	C352.119934,78.728722 356.341614,77.356392 360.509705,76.008102 
	C361.616394,75.650116 362.782806,74.961021 362.835022,73.671295 
	C362.889130,72.334114 361.660919,71.726715 360.598541,71.285576 
	C357.380463,69.949249 354.039429,68.880959 351.253418,66.669189 
	C344.351379,61.189728 344.840302,54.662880 352.671631,50.829853 
	C354.602234,49.884941 354.799835,48.690113 354.944855,47.010899 
	C355.055084,45.734730 354.992462,44.121914 356.787354,43.938232 
	C358.172668,43.796467 358.869843,45.021912 359.270905,46.061268 
	C360.161743,48.369888 361.131805,50.356361 363.721771,51.376606 
	C364.580750,51.714966 366.057251,53.253513 365.206146,54.665752 
	C364.352814,56.081795 363.177277,54.803967 362.175446,54.390816 
	C362.022491,54.327744 361.876617,54.226135 361.718140,54.201027 
	C357.953796,53.604610 353.501831,53.469948 352.096222,57.251244 
	C350.647736,61.147816 355.058380,62.480091 357.899475,64.024765 
	C358.914490,64.576591 360.039917,64.925247 361.439697,65.543877 
z"/>
<path fill="#E1A8D8" opacity="0.000000" stroke="none" 
	d="
M127.686485,89.329941 
	C129.317825,99.373138 128.924316,109.766914 128.009247,120.585526 
	C126.061867,116.736252 127.174149,112.249207 127.119202,107.878983 
	C127.042961,101.815086 126.551094,95.722855 127.686485,89.329941 
z"/>
<path fill="#E5A8D8" opacity="0.000000" stroke="none" 
	d="
M173.324326,133.666275 
	C170.844955,125.970810 172.837341,117.914764 173.048065,109.433319 
	C174.767242,117.081734 173.968582,125.208023 173.324326,133.666275 
z"/>
<path fill="#D6A6CF" opacity="0.000000" stroke="none" 
	d="
M191.008286,130.550095 
	C187.416000,133.366959 183.138779,135.368225 178.446991,136.427902 
	C176.692825,136.824097 174.885193,137.398132 173.360962,135.313324 
	C179.828705,136.392822 184.813736,131.795013 191.008286,130.550095 
z"/>
<path fill="#FFBDF2" opacity="0.000000" stroke="none" 
	d="
M135.509644,109.016396 
	C135.322754,103.782669 135.265610,98.890701 135.288086,93.629333 
	C135.545746,92.794830 135.612869,92.230614 135.922989,91.883507 
	C136.798447,90.903625 136.932220,91.952087 136.934021,92.420296 
	C136.956528,98.238373 137.187805,104.076874 136.744965,109.862625 
	C136.611679,111.603935 136.018066,109.636551 135.509644,109.016396 
z"/>
<path fill="#ECAEDF" opacity="0.000000" stroke="none" 
	d="
M127.684830,205.312714 
	C129.677063,208.723114 128.961502,212.277649 126.967590,216.041397 
	C126.992233,212.761322 127.217438,209.196014 127.684830,205.312714 
z"/>
<path fill="#DDA5D3" opacity="0.000000" stroke="none" 
	d="
M93.950653,139.752258 
	C91.155693,141.995392 87.772247,142.266266 83.942642,140.762970 
	C86.958099,140.221680 90.255768,139.904846 93.950653,139.752258 
z"/>
<path fill="#E1AAD9" opacity="0.000000" stroke="none" 
	d="
M86.157944,120.731705 
	C88.761978,118.083504 92.120895,117.418488 96.092941,119.316780 
	C93.079407,119.977310 89.832298,120.359833 86.157944,120.731705 
z"/>
<path fill="#DDA5D3" opacity="0.000000" stroke="none" 
	d="
M90.353569,134.811371 
	C92.406120,135.580994 96.242645,134.806854 95.295212,139.297668 
	C94.034721,137.442978 91.933853,136.643066 90.353569,134.811371 
z"/>
<path fill="#E1AAD9" opacity="0.000000" stroke="none" 
	d="
M96.246002,130.200836 
	C94.200607,129.723648 92.187370,128.904266 89.921997,127.878990 
	C92.243668,127.279732 94.506897,127.825439 96.246002,130.200836 
z"/>
<path fill="#E1AAD9" opacity="0.000000" stroke="none" 
	d="
M95.012138,114.266312 
	C92.713943,114.357956 93.714653,112.078796 92.708450,110.646179 
	C94.436714,110.844597 94.644455,112.434601 95.012138,114.266312 
z"/>
<path fill="#ECAEDF" opacity="0.000000" stroke="none" 
	d="
M126.279419,216.750244 
	C126.214928,217.756989 125.852631,218.689804 125.257355,219.817200 
	C123.686890,218.424545 124.511757,217.457886 126.279419,216.750244 
z"/>
<path fill="#E1AAD9" opacity="0.000000" stroke="none" 
	d="
M99.294067,119.928879 
	C99.602722,118.932259 99.742722,117.909157 98.690063,116.685944 
	C100.794212,117.011757 101.848000,117.947678 99.294067,119.928879 
z"/>
<path fill="#E1AAD9" opacity="0.000000" stroke="none" 
	d="
M96.382790,119.929718 
	C97.007111,119.750343 97.660591,119.879822 98.649353,119.988792 
	C98.368706,122.358307 97.467979,122.037537 96.382790,119.929718 
z"/>
<path fill="#E1AAD9" opacity="0.000000" stroke="none" 
	d="
M98.877899,131.810486 
	C98.299873,131.801819 97.657455,131.454468 96.813065,130.917450 
	C97.563873,130.328552 98.381119,130.330551 98.877899,131.810486 
z"/>
<path fill="#E1AAD9" opacity="0.000000" stroke="none" 
	d="
M85.717239,123.852776 
	C84.522514,123.389931 84.596046,122.291840 85.417274,120.927612 
	C85.741821,121.627312 85.768967,122.519585 85.717239,123.852776 
z"/>
<path fill="#D6A6CF" opacity="0.000000" stroke="none" 
	d="
M197.891785,126.113472 
	C197.787277,126.475288 197.368835,126.852654 196.671906,127.312035 
	C196.788239,126.972382 197.183044,126.550705 197.891785,126.113472 
z"/>
<path fill="#E1AAD9" opacity="0.000000" stroke="none" 
	d="
M90.792572,107.992287 
	C90.504395,108.217644 90.097687,108.213013 89.385910,108.207863 
	C89.450363,107.480682 89.941978,107.191093 90.792572,107.992287 
z"/>
<path fill="#E1AAD9" opacity="0.000000" stroke="none" 
	d="
M88.058296,109.207626 
	C88.253349,109.547333 88.209557,109.976646 88.041611,110.705872 
	C87.384903,110.464951 87.159225,109.906494 88.058296,109.207626 
z"/>
<path fill="#D6A6CF" opacity="0.000000" stroke="none" 
	d="
M219.887772,109.124054 
	C219.829941,109.479271 219.467300,109.862480 218.853760,110.351730 
	C218.577744,109.758453 218.945770,109.354225 219.887772,109.124054 
z"/>
<path fill="#D6A6CF" opacity="0.000000" stroke="none" 
	d="
M192.989746,129.355209 
	C192.902008,129.700638 192.511444,130.007584 191.876892,130.395721 
	C191.614594,129.754364 192.014771,129.412018 192.989746,129.355209 
z"/>
<path fill="#D6A6CF" opacity="0.000000" stroke="none" 
	d="
M194.872696,128.176788 
	C194.752930,128.535263 194.322525,128.893143 193.607117,129.308563 
	C193.735397,128.969437 194.148727,128.572800 194.872696,128.176788 
z"/>
<path fill="#D6A6CF" opacity="0.000000" stroke="none" 
	d="
M214.878021,113.110558 
	C214.821335,113.467216 214.460159,113.851868 213.847687,114.341316 
	C213.573898,113.750053 213.938965,113.343613 214.878021,113.110558 
z"/>
<path fill="#E1AAD9" opacity="0.000000" stroke="none" 
	d="
M89.344269,127.204216 
	C88.890007,127.293297 88.419243,127.072876 87.814331,126.627747 
	C88.229385,126.566933 88.778580,126.730820 89.344269,127.204216 
z"/>
<path fill="#D6A6CF" opacity="0.000000" stroke="none" 
	d="
M210.880936,116.174408 
	C210.837723,116.518547 210.498947,116.875153 209.928345,117.337952 
	C209.617844,116.759979 209.955582,116.370193 210.880936,116.174408 
z"/>
<path fill="#D6A6CF" opacity="0.000000" stroke="none" 
	d="
M205.896912,120.121750 
	C205.835236,120.475784 205.467407,120.856491 204.848389,121.345238 
	C204.578705,120.752068 204.950943,120.348366 205.896912,120.121750 
z"/>
<path fill="#D6A6CF" opacity="0.000000" stroke="none" 
	d="
M201.907211,123.212402 
	C201.850052,123.568871 201.490845,123.924843 200.885437,124.372986 
	C200.596680,123.766441 200.956833,123.378128 201.907211,123.212402 
z"/>
<path fill="#D6A6CF" opacity="0.000000" stroke="none" 
	d="
M213.079742,114.640228 
	C213.216415,114.949753 213.031693,115.148842 212.547668,115.289352 
	C212.340363,114.958603 212.510345,114.724945 213.079742,114.640228 
z"/>
<path fill="#D6A6CF" opacity="0.000000" stroke="none" 
	d="
M209.059937,117.724808 
	C209.210831,118.014595 209.068344,118.194572 208.663559,118.332672 
	C208.411850,118.027069 208.533600,117.801796 209.059937,117.724808 
z"/>
<path fill="#E1AAD9" opacity="0.000000" stroke="none" 
	d="
M92.603485,110.071922 
	C92.386917,110.101357 92.135651,109.860428 91.833221,109.354561 
	C92.044304,109.326935 92.306549,109.564247 92.603485,110.071922 
z"/>
<path fill="#E1AAD9" opacity="0.000000" stroke="none" 
	d="
M98.507050,116.157143 
	C98.259193,116.373154 98.031929,116.261742 97.758919,115.880814 
	C97.997841,115.553452 98.269325,115.626259 98.507050,116.157143 
z"/>
<path fill="#DDA5D3" opacity="0.000000" stroke="none" 
	d="
M83.450302,140.135925 
	C83.160210,140.340317 82.925636,140.195663 82.692612,139.738205 
	C82.988297,139.450592 83.258858,139.571091 83.450302,140.135925 
z"/>
<path fill="#DDA5D3" opacity="0.000000" stroke="none" 
	d="
M82.475998,139.093323 
	C82.262589,139.105225 82.056602,138.852478 81.807236,138.352463 
	C82.003708,138.346344 82.243561,138.587509 82.475998,139.093323 
z"/>
<path fill="#D6A6CF" opacity="0.000000" stroke="none" 
	d="
M218.084976,110.647751 
	C218.225998,110.953323 218.049103,111.151207 217.579071,111.296562 
	C217.359924,110.969353 217.520309,110.734688 218.084976,110.647751 
z"/>
<path fill="#E1AAD9" opacity="0.000000" stroke="none" 
	d="
M101.130196,134.866455 
	C101.016106,135.005829 100.671143,134.663315 100.609138,134.428253 
	C100.779518,134.371170 101.011902,134.549133 101.130196,134.866455 
z"/>
<path fill="#D6A6CF" opacity="0.000000" stroke="none" 
	d="
M217.057678,111.425919 
	C217.101257,111.639465 216.879913,111.901077 216.400330,112.226707 
	C216.358963,112.018478 216.575867,111.746231 217.057678,111.425919 
z"/>
<path fill="#D6A6CF" opacity="0.000000" stroke="none" 
	d="
M208.088470,118.501740 
	C208.126480,118.722359 207.893753,118.965233 207.409698,119.271317 
	C207.378174,119.064354 207.597946,118.794174 208.088470,118.501740 
z"/>
<path fill="#D6A6CF" opacity="0.000000" stroke="none" 
	d="
M204.086395,121.646606 
	C204.234177,121.949516 204.062836,122.151421 203.598450,122.308121 
	C203.369415,121.984520 203.523361,121.745407 204.086395,121.646606 
z"/>
<path fill="#D6A6CF" opacity="0.000000" stroke="none" 
	d="
M196.073090,127.471375 
	C196.099655,127.689461 195.871750,127.917473 195.394974,128.174286 
	C195.370270,127.962494 195.594452,127.721909 196.073090,127.471375 
z"/>
<path fill="#E1AAD9" opacity="0.000000" stroke="none" 
	d="
M97.247910,115.253738 
	C97.133858,115.351776 97.049118,115.333649 97.028610,115.295364 
	C97.008095,115.257072 97.252869,114.926872 97.252869,114.926872 
	C97.252869,114.926872 97.361969,115.155708 97.247910,115.253738 
z"/>
<path fill="#D6A6CF" opacity="0.000000" stroke="none" 
	d="
M212.043976,115.387405 
	C212.082932,115.602959 211.864990,115.854141 211.391266,116.149475 
	C211.352676,115.936775 211.569870,115.679909 212.043976,115.387405 
z"/>
<path fill="#D6A6CF" opacity="0.000000" stroke="none" 
	d="
M203.069489,122.434357 
	C203.112213,122.655617 202.898682,122.903046 202.434662,123.191467 
	C202.393845,122.975143 202.603546,122.717834 203.069489,122.434357 
z"/>
<path fill="#E1AAD9" opacity="0.000000" stroke="none" 
	d="
M87.572144,126.116020 
	C87.309944,126.339943 87.047028,126.206650 86.732620,125.760849 
	C86.992012,125.459923 87.288780,125.563416 87.572144,126.116020 
z"/>
<path fill="#D6A6CF" opacity="0.000000" stroke="none" 
	d="
M200.076935,124.666000 
	C200.194168,124.977806 199.970978,125.190552 199.436768,125.370300 
	C199.410919,125.166100 199.614517,124.909309 200.076935,124.666000 
z"/>
<path fill="#E1AAD9" opacity="0.000000" stroke="none" 
	d="
M86.438118,125.120316 
	C86.130394,125.260696 85.906418,125.060013 85.712463,124.545074 
	C85.921844,124.503410 86.181641,124.686218 86.438118,125.120316 
z"/>
<path fill="#D7A1CA" opacity="0.000000" stroke="none" 
	d="
M233.790329,64.102165 
	C237.940399,63.044144 235.210052,66.366333 236.267792,67.248489 
	C235.697784,67.766289 234.876755,68.839455 234.597794,68.713356 
	C232.508163,67.768814 232.889450,66.008598 233.790329,64.102165 
z"/>
<path fill="#D3A1C9" opacity="0.000000" stroke="none" 
	d="
M332.630707,127.179466 
	C334.163208,128.660355 334.761200,129.922318 332.136810,130.078842 
	C330.869965,130.154388 329.178680,130.593063 329.037384,128.648788 
	C328.837006,125.891838 331.200897,127.748657 332.630707,127.179466 
z"/>
<path fill="#FEB0E2" opacity="0.000000" stroke="none" 
	d="
M87.730301,146.635071 
	C88.222069,145.999771 88.810020,145.924927 88.629951,147.250610 
	C88.329056,147.288986 88.150688,147.108749 87.730301,146.635071 
z"/>
</svg>