 <svg version="1.0" xmlns="http://www.w3.org/2000/svg"  width="300.000000pt" height="205.000000pt" viewBox="0 0 300.000000 205.000000"  preserveAspectRatio="xMidYMid meet">  <g transform="translate(0.000000,205.000000) scale(0.100000,-0.100000)" fill="#000000" stroke="none"> <path d="M2802 1824 c-167 -117 -197 -134 -231 -134 -47 0 -77 -31 -86 -89 -12 -70 -15 -76 -49 -99 -19 -13 -63 -50 -98 -83 -49 -46 -70 -59 -94 -59 -47 0 -221 -47 -260 -69 l-33 -20 -16 54 c-22 69 -52 98 -102 97 -23 0 -167 -48 -368 -122 -181 -66 -440 -162 -575 -211 -307 -113 -317 -117 -341 -147 -38 -49 -35 -58 160 -552 88 -223 100 -240 173 -240 19 0 167 53 353 128 l320 127 55 -22 c75 -30 133 -30 157 0 12 15 39 29 73 37 86 21 132 79 95 120 -14 15 -7 20 79 54 81 32 98 36 117 25 38 -20 130 -5 198 32 34 19 61 37 61 42 0 10 3 11 -73 -27 -60 -30 -128 -43 -172 -32 -24 6 -25 8 -10 29 18 25 18 39 4 91 -7 24 -14 35 -20 29 -6 -6 -5 -22 2 -42 15 -44 0 -75 -48 -99 -21 -11 -114 -50 -208 -87 -93 -37 -192 -78 -220 -90 -153 -71 -736 -295 -767 -295 -20 0 -45 8 -57 18 -11 9 -45 82 -76 162 -31 80 -72 183 -91 229 -19 47 -31 88 -27 92 5 4 100 42 213 84 113 42 306 115 430 162 276 104 659 249 681 258 11 4 19 -7 33 -50 l17 -55 -42 -50 c-23 -27 -78 -82 -121 -121 -119 -108 -137 -164 -62 -195 41 -17 104 -8 177 25 209 95 239 112 282 156 40 42 115 174 115 204 0 29 -18 5 -44 -62 -47 -115 -107 -168 -281 -244 -166 -73 -219 -84 -255 -54 l-25 20 24 46 c14 27 49 66 85 95 34 28 80 71 101 97 59 70 155 197 155 206 0 20 -21 2 -56 -49 l-38 -55 -28 82 c-26 77 -27 83 -10 95 33 24 167 62 263 74 86 11 99 10 130 -5 115 -60 214 -199 253 -356 23 -93 22 -210 -3 -240 -17 -21 -22 -22 -45 -11 -15 7 -34 28 -42 48 -14 32 -13 37 6 64 32 46 71 138 60 145 -6 4 -15 -6 -21 -22 -26 -69 -58 -121 -108 -175 -60 -65 -62 -93 -3 -35 l38 37 16 -32 c20 -44 60 -65 92 -50 16 7 27 7 34 0 12 -12 68 3 118 32 17 10 51 21 75 25 53 9 95 29 132 63 43 41 31 47 -15 8 -39 -34 -113 -64 -126 -52 -3 3 1 6 9 6 31 0 117 50 139 80 22 31 22 31 -31 -9 -30 -23 -61 -41 -70 -41 -15 0 -14 4 2 38 42 84 33 269 -18 407 -65 174 -177 265 -350 284 -6 0 -10 9 -8 19 2 9 4 25 4 35 2 29 38 57 76 57 19 0 35 5 35 10 0 6 9 10 19 10 11 0 21 3 23 8 2 4 53 41 113 82 61 41 116 80 123 87 7 7 16 13 20 13 4 0 20 11 35 24 16 14 33 26 39 28 6 2 9 11 7 20 -3 13 -50 -16 -197 -118z m-159 -337 c136 -63 221 -220 234 -432 4 -79 2 -113 -12 -160 -23 -79 -78 -136 -157 -161 -63 -19 -75 -16 -59 14 17 32 13 159 -8 237 -32 126 -79 210 -162 294 -47 46 -141 97 -160 85 -6 -4 -10 -2 -8 3 7 18 150 133 165 133 8 0 14 5 14 11 0 18 94 3 153 -24z m-786 -87 c34 -12 73 -77 50 -85 -6 -3 -311 -117 -677 -254 -365 -138 -666 -248 -669 -246 -2 3 -6 26 -8 52 -4 41 -1 51 19 70 19 18 391 162 718 278 36 13 162 59 280 103 118 44 224 82 235 85 11 2 20 5 21 6 1 0 14 -4 31 -9z m81 -152 c11 -42 3 -53 -56 -73 -26 -9 -55 -21 -64 -26 -10 -5 -27 -9 -38 -9 -11 0 -20 -4 -20 -10 0 -5 -8 -10 -17 -10 -19 0 -91 -24 -121 -39 -9 -5 -48 -21 -87 -36 -38 -15 -78 -31 -87 -36 -10 -5 -27 -9 -38 -9 -11 0 -20 -4 -20 -10 0 -5 -9 -10 -20 -10 -11 0 -28 -4 -38 -9 -9 -6 -41 -17 -69 -26 -29 -9 -55 -21 -58 -26 -4 -5 -15 -9 -25 -9 -10 0 -41 -11 -68 -25 -28 -14 -58 -25 -69 -25 -10 0 -24 -5 -31 -12 -7 -7 -12 -9 -12 -4 0 4 -12 1 -27 -7 -38 -20 -68 -32 -135 -53 -32 -10 -58 -21 -58 -25 0 -4 -17 -10 -37 -14 -21 -4 -41 -11 -44 -16 -3 -6 -25 -11 -49 -12 -41 -2 -43 -1 -56 36 -11 32 -11 37 2 37 7 0 14 4 14 10 0 5 7 7 15 4 8 -4 15 -1 15 5 0 6 9 11 19 11 11 0 23 5 26 11 4 6 13 8 20 5 7 -2 22 2 34 10 11 8 21 12 21 8 0 -3 6 -1 13 5 8 6 17 8 20 4 4 -3 7 -1 7 5 0 7 11 12 25 12 14 0 25 3 25 8 0 4 23 13 52 20 28 6 55 18 60 24 4 7 8 9 8 4 0 -5 6 -3 13 3 8 6 23 12 34 14 12 2 28 9 37 16 8 7 20 10 25 7 5 -4 12 -2 16 4 4 6 11 8 16 5 5 -4 9 -1 9 4 0 6 11 11 24 11 14 0 28 5 31 10 4 6 10 8 14 5 5 -2 17 2 27 10 10 8 29 15 42 15 12 0 22 4 22 9 0 4 15 11 33 14 30 5 57 15 152 58 17 7 35 13 41 14 6 0 18 6 26 13 8 6 18 9 21 6 3 -3 16 1 29 10 12 9 32 16 45 16 12 0 25 5 28 10 3 6 17 10 31 10 14 0 22 4 19 10 -3 6 2 10 13 10 23 0 115 31 122 41 5 7 37 15 72 18 12 1 20 -10 26 -31z m-20 -710 c31 -31 -5 -78 -73 -97 -57 -16 -63 -14 -79 18 l-15 29 72 30 c84 36 80 35 95 20z m-170 -91 c35 -57 -25 -83 -121 -51 l-52 17 35 14 c19 7 51 21 70 32 43 23 47 22 68 -12z"/> <path d="M1405 1713 c7 -101 21 -202 30 -211 12 -13 14 9 6 59 -5 30 -13 98 -16 152 -4 53 -11 97 -17 97 -6 0 -8 -35 -3 -97z"/> <path d="M1826 1715 c-12 -32 -19 -145 -9 -145 6 0 14 30 18 67 4 36 9 72 12 80 3 7 1 13 -5 13 -5 0 -12 -7 -16 -15z"/> <path d="M940 1428 c0 -18 27 -44 37 -34 4 4 -3 16 -15 29 -18 17 -22 18 -22 5z"/> <path d="M430 1353 c0 -22 113 -173 129 -173 5 0 -15 35 -46 78 -30 42 -58 83 -60 90 -6 13 -23 17 -23 5z"/> <path d="M247 832 c-9 -2 -15 -7 -13 -10 6 -11 166 -2 166 9 0 9 -112 10 -153 1z"/> <path d="M891 655 c-127 -51 -172 -75 -143 -75 22 0 292 112 292 121 0 13 -4 12 -149 -46z"/> <path d="M1125 689 c-11 -5 -42 -18 -69 -29 -27 -11 -46 -23 -43 -26 8 -8 157 46 157 57 0 11 -19 10 -45 -2z"/> <path d="M880 588 c-52 -22 -99 -44 -104 -49 -14 -13 1 -24 16 -12 7 5 55 27 106 48 50 21 92 42 92 46 0 13 -6 11 -110 -33z"/> <path d="M2272 478 c6 -17 36 -34 45 -24 4 4 -1 14 -11 22 -24 17 -39 18 -34 2z"/> <path d="M983 457 c-13 -17 -28 -23 -57 -23 -76 0 -114 -91 -61 -148 33 -36 92 -36 125 -1 13 14 35 25 49 25 30 1 53 16 69 47 18 33 14 59 -14 92 -33 39 -83 43 -111 8z m90 -22 c39 -16 8 -95 -37 -95 -30 0 -43 11 -51 43 -13 50 30 76 88 52z m-117 -49 c2 -15 11 -37 21 -48 25 -28 6 -52 -45 -56 -32 -2 -43 1 -56 20 -24 35 -20 73 11 98 36 28 65 23 69 -14z"/> <path d="M375 429 c-33 -16 -62 -34 -64 -40 -2 -6 1 -10 6 -8 67 28 143 65 143 71 0 14 -23 7 -85 -23z"/> <path d="M1920 344 c0 -5 42 -66 77 -113 2 -2 6 -2 9 1 7 8 -66 118 -77 118 -5 0 -9 -3 -9 -6z"/> <path d="M1510 240 c0 -5 7 -10 16 -10 8 0 12 5 9 10 -3 6 -10 10 -16 10 -5 0 -9 -4 -9 -10z"/> <path d="M670 110 c-21 -41 -25 -60 -12 -60 4 0 16 19 27 43 11 23 21 45 23 50 2 4 -1 7 -7 7 -6 0 -20 -18 -31 -40z"/> <path d="M1204 119 c3 -17 6 -44 6 -60 0 -16 5 -29 10 -29 6 0 10 13 10 29 0 44 -11 91 -22 91 -6 0 -8 -13 -4 -31z"/> </g> </svg> 