<svg xmlns="http://www.w3.org/2000/svg" viewBox="0 0 48 48" fill="currentColor" aria-hidden="true" class="css-4b375e"><path d="M28 10h9a1 1 0 0 1 1 1v9a1 1 0 0 1-1 1h-2a1 1 0 0 1-1-1v-6h-6a1 1 0 0 1-1-1v-2a1 1 0 0 1 1-1zm9 28h-9a1 1 0 0 1-1-1v-2a1 1 0 0 1 1-1h6v-6a1 1 0 0 1 1-1h2a1 1 0 0 1 1 1v9a1 1 0 0 1-1 1zM11 10h9a1 1 0 0 1 1 1v2a1 1 0 0 1-1 1h-6v6a1 1 0 0 1-1 1h-2a1 1 0 0 1-1-1v-9a1 1 0 0 1 1-1zm3 24h6a1 1 0 0 1 1 1v2a1 1 0 0 1-1 1h-9a1 1 0 0 1-1-1v-9a1 1 0 0 1 1-1h2a1 1 0 0 1 1 1v6z"></path></svg>