<svg xmlns="http://www.w3.org/2000/svg" xml:space="preserve" id="logos" x="0" y="0" style="enable-background:new 0 0 553.4 417.9" version="1.1" viewBox="0 0 553.4 417.9"><style>.st4{fill:#94949b}.st5{fill:#003}</style><g id="New_Symbol"><g id="New_Symbol_2_00000055676435727600483780000015786405247744515984_"><linearGradient id="SVGID_1_" x1="285.51" x2="240.22" y1="364.676" y2="232.256" gradientTransform="matrix(1 0 0 -1 0 417.89)" gradientUnits="userSpaceOnUse"><stop offset="0" style="stop-color:#00649c"/><stop offset=".11" style="stop-color:#0875ac"/><stop offset=".37" style="stop-color:#1a9acf"/><stop offset=".62" style="stop-color:#28b5e9"/><stop offset=".83" style="stop-color:#30c6f9"/><stop offset="1" style="stop-color:#3cf"/></linearGradient><path d="M267.2 177.4c8.7 7 19.8 11.2 31.9 11.2H279c-19.7 0-37.5-8-50.4-20.9s-20.9-30.7-20.9-50.4c0-39.3 31.9-71.2 71.2-71.2 8.3 0 16.3 1.4 23.8 4.1-4.6-1.4-9.5-2.1-14.5-2.1-21.1 0-39.3 12.8-47.1 31.1-2.6 6.1-4.1 12.9-4.1 20 0 12.1 4.2 23.2 11.2 32-.2 2.1-.4 4.2-.4 6.3 0 14.1 5.7 26.9 15 36.1 1.5 1.4 2.9 2.7 4.4 3.8z" style="fill:url(#SVGID_1_)"/><linearGradient id="SVGID_00000053538506339154161030000017341345996962879651_" x1="251.57" x2="355.17" y1="282.887" y2="277.397" gradientTransform="matrix(1 0 0 -1 0 417.89)" gradientUnits="userSpaceOnUse"><stop offset="0" style="stop-color:#00649c"/><stop offset=".11" style="stop-color:#0875ac"/><stop offset=".37" style="stop-color:#1a9acf"/><stop offset=".62" style="stop-color:#28b5e9"/><stop offset=".83" style="stop-color:#30c6f9"/><stop offset="1" style="stop-color:#3cf"/></linearGradient><path d="M350.2 137.5v51.1h-51.1c-12.1 0-23.2-4.2-31.9-11.2-1.5-1.2-2.9-2.4-4.2-3.8-9.3-9.2-15-22-15-36.1 0-2.1.1-4.2.4-6.3 1.2 1.4 2.4 2.8 3.7 4.1 9.3 9.2 22 15 36.1 15h24v-24c0-16-7.3-30.2-18.8-39.6 1.9-.2 3.7-.3 5.6-.3 16.3 0 30.9 7.7 40.2 19.6 6.9 8.7 11 19.6 11 31.5z" style="fill:url(#SVGID_00000053538506339154161030000017341345996962879651_)"/><linearGradient id="SVGID_00000075141592686116028270000013480670726971352465_" x1="347.089" x2="242.109" y1="303.297" y2="338.297" gradientTransform="matrix(1 0 0 -1 0 417.89)" gradientUnits="userSpaceOnUse"><stop offset="0" style="stop-color:#00649c"/><stop offset=".11" style="stop-color:#0875ac"/><stop offset=".37" style="stop-color:#1a9acf"/><stop offset=".62" style="stop-color:#28b5e9"/><stop offset=".83" style="stop-color:#30c6f9"/><stop offset="1" style="stop-color:#3cf"/></linearGradient><path d="M350.2 117.4v20.1c0-11.9-4-22.8-10.9-31.5-9.4-11.9-23.9-19.6-40.2-19.6-1.9 0-3.8.1-5.6.3-23.5 2.6-42.2 21.1-45.1 44.5-7-8.8-11.2-19.9-11.2-32 0-7.1 1.4-13.8 4.1-20 7.8-18.3 25.9-31.1 47.1-31.1 5 0 9.9.7 14.5 2.1 6 2.1 11.6 5 16.7 8.5 18.4 12.9 30.6 34.4 30.6 58.7z" style="fill:url(#SVGID_00000075141592686116028270000013480670726971352465_)"/><linearGradient id="SVGID_00000033367531165820364080000010790881553363837326_" x1="299.185" x2="301.245" y1="258.72" y2="323.9" gradientTransform="matrix(1 0 0 -1 0 417.89)" gradientUnits="userSpaceOnUse"><stop offset="0" style="stop-color:#3cf;stop-opacity:0"/><stop offset="1" style="stop-color:#3cf"/></linearGradient><path d="M350.2 137.5v51.1h-51.1c-12.1 0-23.2-4.2-31.9-11.2-1.5-1.2-2.9-2.4-4.2-3.8-9.3-9.2-15-22-15-36.1 0-2.1.1-4.2.4-6.3 1.2 1.4 2.4 2.8 3.7 4.1 9.3 9.2 22 15 36.1 15h24v-24c0-16-7.3-30.2-18.8-39.6 1.9-.2 3.7-.3 5.6-.3 16.3 0 30.9 7.7 40.2 19.6 6.9 8.7 11 19.6 11 31.5z" style="fill:url(#SVGID_00000033367531165820364080000010790881553363837326_)"/><path d="M174.9 342.5v-21.8h-7.8v-3.3h19.3v3.3h-7.8v21.8h-3.7zM218.9 323.9c5.4 0 8.8 4.2 8.8 9.8v.8h-14.4c.3 3.1 2.5 5.6 6.2 5.6 1.9 0 4-.8 5.4-2.1l1.6 2.2c-1.8 1.8-4.4 2.7-7.3 2.7-5.4 0-9.4-3.8-9.4-9.5 0-5.3 3.8-9.5 9.1-9.5zm-5.5 8.2h11.1c-.1-2.4-1.7-5.4-5.5-5.4s-5.4 2.9-5.6 5.4zM241.7 330c0-7.7 5.7-13 12.9-13 4.9 0 8 2.4 10 5.3l-3.2 1.7c-1.3-2.1-3.8-3.6-6.8-3.6-5.1 0-9 4-9 9.6s3.9 9.6 9 9.6c3 0 5.5-1.5 6.8-3.6l3.2 1.7c-2 2.9-5 5.3-10 5.3-7.2-.1-12.9-5.3-12.9-13zM268.7 342.5v-25.1h3.4v25.1h-3.4zM276.4 333.4c0-5.2 3.5-9.5 9.2-9.5s9.2 4.3 9.2 9.5-3.5 9.5-9.2 9.5-9.2-4.2-9.2-9.5zm14.8 0c0-3.4-2-6.5-5.6-6.5s-5.6 3.1-5.6 6.5 2 6.5 5.6 6.5 5.6-3 5.6-6.5zM310.9 342.5V340s-1.9 2.9-6 2.9c-3.5 0-6.3-2.8-6.3-6.3v-12.3h3.4V336c0 3 2.1 3.9 4.4 3.9 2.1 0 3.4-1.2 4.4-2.6v-13h3.4v18.2h-3.3zM349.4 342.5v-25.1h17.7v4.6h-12.4v5.5h12.1v4.6h-12.1v5.8h12.4v4.6h-17.7zM387.3 342.5l-4.9-9h-3.9v9h-5.3v-25.1h11.7c5.2 0 8.4 3.4 8.4 8.1s-2.8 6.8-5.5 7.4l5.6 9.5-6.1.1zM384 322h-5.6v6.9h5.6c2.1 0 3.8-1.4 3.8-3.5s-1.6-3.4-3.8-3.4zM398.6 342.5v-25.1h11.7c5.5 0 8.4 3.7 8.4 8.1s-3 8-8.4 8H404v9h-5.4zm11-20.5H404v6.9h5.7c2.1 0 3.7-1.4 3.7-3.5s-1.7-3.4-3.8-3.4zM194 317.4v9.4s1.9-2.9 6-2.9c3.5 0 6.3 2.8 6.3 6.3v12.3h-3.4v-11.7c0-3-2.1-3.9-4.4-3.9-2.1 0-3.4 1.2-4.4 2.6v13h-3.4v-25.1h3.3zM332.2 317.4v9.5c-1.5-2-3.6-3.1-5.9-3.1-4.7 0-8.1 3.7-8.1 9.5s3.4 9.5 8.1 9.5c2.4 0 4.6-1.2 5.9-3v2.6h3.4v-25.1l-3.4.1zm-5.1 22.3c-3.4 0-5.2-2.8-5.2-6.3s2.1-6.3 5.2-6.3 5.2 2.8 5.2 6.3-2 6.3-5.2 6.3z" class="st4"/><path d="m87.6 224.9 25.8 65.9h-11l-6-15.3-.1-.2H67.9l-5.8 15.5h-11l24.7-65.9h11.8zm4.7 40.2-10.2-25.9-.4-1.1-9.8 26.4-.2.6h20.6zM206.1 290.3v-48.8h-10.4v34.7l-.1.4c-.1.2-3.1 5.6-9.5 5.6-7.5 0-10.8-5.4-10.8-10.8v-29.9H165V275c0 9.1 7.4 16.6 16.6 16.6 7.2 0 11.9-3.6 14.2-7v5.7h10.3zM140.3 240.5c9.5 0 15.2 4 18.6 8.7l-6.9 6.4c-2.7-3.8-6.4-5.7-11.2-5.7-8.9 0-14.7 6.7-14.7 16.1s5.8 16.2 14.7 16.2c4.7 0 8.5-2 11.2-5.7l6.9 6.4c-3.4 4.6-9.2 8.7-18.6 8.7-14.8 0-25.2-10.8-25.2-25.6s10.4-25.5 25.2-25.5zM390.7 241.5h10.1v48.6h-10.1zM389.7 227.6V226c0-3.1 1.9-5.3 6.1-5.3s6 2.2 6 5.3v1.6c0 3.1-1.8 5.3-6 5.3s-6.1-2.2-6.1-5.3zM371 229.2h-10.1v12.2h-6.6v8.9h6.4l.2 30.8c0 5 4 9 9 9h9.3v-9.6H371v-30.2h9.9v-8.9H371v-12.2zM334.9 241.6v5.9c-2.7-3.6-8.5-7.2-15.6-7.2-13.7 0-23.7 10.8-23.7 25.6 0 12.9 8.1 25.9 23.5 25.9 10.9 0 15.7-7.3 15.7-7.3v5.8H345v-48.7h-10.1zm-14.1 41.1c-8.5 0-14.6-7-14.6-16.7s6.2-16.8 14.6-16.8c7.4 0 14.9 5.2 14.9 16.9-.1 8.1-4.7 16.6-14.9 16.6zM497 241.6v5.9c-2.7-3.6-8.5-7.2-15.6-7.2-13.7 0-23.7 10.8-23.7 25.6 0 12.9 8.1 25.9 23.5 25.9 10.9 0 15.7-7.3 15.7-7.3v5.8h10.2v-48.7H497zm-14.1 41.1c-8.5 0-14.6-7-14.6-16.7s6.2-16.8 14.6-16.8c7.4 0 14.9 5.2 14.9 16.9 0 8.1-4.7 16.6-14.9 16.6zM434.4 240.5c9.5 0 15.2 4 18.6 8.7l-7 6.4c-2.7-3.8-6.5-5.7-11.2-5.7-8.9 0-14.7 6.7-14.7 16.1s5.8 16.2 14.7 16.2c4.7 0 8.5-2 11.2-5.7l7 6.4c-3.4 4.6-9.2 8.7-18.6 8.7-14.8 0-25.2-10.8-25.2-25.6-.1-14.8 10.3-25.5 25.2-25.5zM271.7 240.1c-7.5 0-13.5 4.8-16 9.3-2.7-5.5-8.4-9.3-14.9-9.3-7.2 0-11.9 3.6-14.2 7v-5.7h-10.4v48.8h10.4v-34.7l.1-.4c.1-.2 3.1-5.6 9.5-5.6 7.5 0 10.8 5.4 10.8 10.8v29.9h10.3V256l.1-.5.1-.4c.1-.2 3.1-5.6 9.5-5.6 7.5 0 10.8 5.4 10.8 10.8v29.9H288v-33.6c.3-9.1-7.2-16.5-16.3-16.5z" class="st5"/></g></g></svg>