<svg xmlns="http://www.w3.org/2000/svg" style="shape-rendering:geometricPrecision;text-rendering:geometricPrecision;image-rendering:optimizeQuality;fill-rule:evenodd;clip-rule:evenodd" viewBox="0 0 1570 605"><path fill="#089948" d="M32.5-.5h416c28.342 10.106 38.175 29.773 29.5 59l-30.5 53a1924.62 1924.62 0 0 0 62 1.5c16.679 1.756 28.513 10.256 35.5 25.5 2.883 9.57 3.217 19.237 1 29a366.965 366.965 0 0 1-17 32l-138 238-1 100c-2.504 16.171-11.337 27.337-26.5 33.5a3236.886 3236.886 0 0 1-95 33.5h-9c-19.34-3.503-31.507-14.836-36.5-34l-1-133L5 61.5C2.374 55.962.54 50.295-.5 44.5v-7c3.133-19.468 14.133-32.134 33-38Zm7 36c134-.167 268 0 402 .5 3.716 3.541 3.882 7.375.5 11.5a6181.244 6181.244 0 0 1-37.5 64.5l-191 1c-15.568 3.736-24.235 13.569-26 29.5.356 5.667 1.856 11 4.5 16l89 154c11.459 13.892 25.293 16.725 41.5 8.5 3.833-2.5 7-5.667 9.5-9.5l60-104c5.535-12.739 2.035-21.906-10.5-27.5-7.597-1.892-14.097-.059-19.5 5.5a6959.789 6959.789 0 0 1-56 97A26032.192 26032.192 0 0 0 229.5 150c93-.667 186-.667 279 0 3.687 3.196 3.853 6.696.5 10.5a50397.192 50397.192 0 0 0-151 261 45.34 45.34 0 0 0-4 17l-1 96a1933.515 1933.515 0 0 1-86.5 32.5c-2.525.896-4.692.396-6.5-1.5a4619.819 4619.819 0 0 1-2-135 54.628 54.628 0 0 0-2-7 67404.236 67404.236 0 0 0-219-380c-.982-3.275-.148-5.941 2.5-8Z" style="opacity:.976"/><path d="M949.5 35.5c15.342-2.575 26.842 2.758 34.5 16 5.458 17.082.291 29.582-15.5 37.5-16.296 4.574-28.796-.26-37.5-14.5-5.62-18.755.547-31.755 18.5-39Z" style="opacity:.97"/><path d="M1297.5 35.5c24.82-2.011 36.65 9.322 35.5 34-5.48 16.667-16.98 23.5-34.5 20.5-18.69-5.865-25.52-18.365-20.5-37.5 3.93-8.77 10.43-14.437 19.5-17Z" style="opacity:.968"/><path d="M681.5 46.5a3144.26 3144.26 0 0 1 134 1.5c50.852 7.811 72.352 37.311 64.5 88.5-5.603 20.938-18.769 34.771-39.5 41.5 35.477 7.592 53.144 29.592 53 66-1.02 40.679-21.354 65.346-61 74a125.099 125.099 0 0 1-22 3c-42.999.5-85.999.667-129 .5v-275Zm53 38c19.003-.167 38.003 0 57 .5 31.32 2.766 43.486 19.599 36.5 50.5-2.174 10.171-8.007 17.338-17.5 21.5a55.89 55.89 0 0 1-19 4c-18.997.5-37.997.667-57 .5v-77Zm0 113c21.336-.167 42.669 0 64 .5 26.784 1.502 40.451 15.502 41 42 1.017 18.322-6.65 31.322-23 39a66.69 66.69 0 0 1-20 4c-20.664.5-41.331.667-62 .5v-86Z" style="opacity:.982"/><path d="M1104.5 115.5c23.77-1.981 44.77 4.519 63 19.5 3.88 4.214 7.38 8.714 10.5 13.5.5-9.661.67-19.328.5-29h49c.17 66.334 0 132.668-.5 199-5.53 39.862-28.03 64.028-67.5 72.5a230.909 230.909 0 0 1-57 3c-29.22-1.686-52.38-14.186-69.5-37.5-2.24-3.453-3.57-7.119-4-11a1262.454 1262.454 0 0 1 37-16c7.28 12.906 18.11 21.406 32.5 25.5 61.33 11.008 87.83-14.492 79.5-76.5-18.65 25.405-43.82 36.905-75.5 34.5-42.77-6.098-68.93-30.265-78.5-72.5-6.86-34.554.14-65.888 21-94 15.97-17.899 35.8-28.233 59.5-31Zm14 38c36.23-1.273 56.73 16.06 61.5 52 1.65 16.735-1.68 32.402-10 47-14.92 19.283-34.42 26.45-58.5 21.5-21.34-7.344-34.17-22.178-38.5-44.5-3.48-21.443.85-41.11 13-59 9.04-9.269 19.88-14.936 32.5-17Z" style="opacity:.979"/><path d="M1569.5 187.5v134h-50c.47-45.367-.03-90.7-1.5-136-5.02-20.349-18.02-30.015-39-29-27.02.017-42.68 13.35-47 40-.5 41.665-.67 83.332-.5 125h-49v-202h49c-.17 10.006 0 20.006.5 30 8.8-14.488 21.3-24.321 37.5-29.5 20.13-6.252 40.13-5.918 60 1 19.16 9.446 31.32 24.613 36.5 45.5a345.017 345.017 0 0 1 3.5 21Z" style="opacity:.976"/><path d="M932.5 120.5h49v201h-49v-201Z" style="opacity:.981"/><path d="M1280.5 120.5h49v201h-49v-201Z" style="opacity:.976"/><path d="M681.5 431.5h13c-.167 15.337 0 30.67.5 46 9.412-10.803 21.245-14.636 35.5-11.5 18.082 6.446 26.748 19.446 26 39-1.312 28.321-15.978 41.321-44 39-7.001-1.583-12.834-5.083-17.5-10.5a50.464 50.464 0 0 0-.5 10h-13v-112Zm31 45c15.715-1.899 25.548 4.767 29.5 20 1.319 9.299.319 18.299-3 27-6.557 9.078-15.39 12.244-26.5 9.5-9.388-3.256-15.222-9.756-17.5-19.5-2.736-13.248.764-24.415 10.5-33.5l7-3.5Z" style="opacity:.934"/><path d="M1051.5 431.5h13c-.17 14.67 0 29.337.5 44 8.85-9.542 19.68-12.709 32.5-9.5 11.7 4.386 18.2 12.886 19.5 25.5.5 17.33.67 34.663.5 52h-13c.43-18.38-.07-36.714-1.5-55-2.94-8.063-8.77-12.063-17.5-12-9.14-.186-15.64 3.814-19.5 12a530.805 530.805 0 0 0-1.5 55h-13v-112Z" style="opacity:.946"/><path d="M1299.5 436.5c17.5-.166 31.66 6.5 42.5 20a39.358 39.358 0 0 1 4.5 11c-3.65.906-7.15 2.24-10.5 4-11.92-23.085-29.42-28.918-52.5-17.5-10.62 9.75-15.95 21.917-16 36.5-.29 13.315 4.05 24.815 13 34.5 24.78 14.885 43.78 9.385 57-16.5 3.76 1.186 7.09 3.019 10 5.5-12.98 26.898-33.98 36.231-63 28-21.5-9.972-31.84-26.972-31-51 .53-31.011 15.87-49.177 46-54.5Z" style="opacity:.918"/><path d="M874.5 438.5h73c.252 2.82-.248 5.486-1.5 8a5657.372 5657.372 0 0 0-56.5 84c18.988 1 37.988 1.333 57 1v12h-77c-.163-2.357.003-4.69.5-7 19.71-28.92 39.543-57.754 59.5-86.5-18.33-.5-36.664-.667-55-.5v-11Z" style="opacity:.923"/><path d="M1365.5 438.5c14.67-.167 29.34 0 44 .5 19.97 2.962 29.14 14.462 27.5 34.5-1.18 7.878-5.02 14.045-11.5 18.5a113.14 113.14 0 0 1-13 6c10.33 15 20.67 30 31 45-5.36.829-10.7.663-16-.5a3140.698 3140.698 0 0 0-30-43.5c-5.99-.499-11.99-.666-18-.5v45h-14v-105Zm14 11c9.34-.166 18.67 0 28 .5 10.31 1.636 15.64 7.636 16 18-.15 11.82-6.15 18.153-18 19-8.66.5-17.33.666-26 .5v-38Z" style="opacity:.932"/><path d="M1459.5 438.5a98.26 98.26 0 0 1 19.5 1 2279.874 2279.874 0 0 0 32.5 79 4090.043 4090.043 0 0 0 32-79c6.3-.996 12.63-1.33 19-1v105h-14c.17-27.669 0-55.335-.5-83a6045.251 6045.251 0 0 0-33 82c-2.96 1.577-5.62 1.244-8-1-11.33-27.333-22.67-54.667-34-82-.5 27.998-.67 55.998-.5 84h-13v-105Z" style="opacity:.925"/><path d="M986.5 465.5c29.44-3.055 45.44 10.111 48 39.5-3.34 29.345-19.68 42.345-49 39-13.733-3.4-22.567-11.9-26.5-25.5-6.019-25.972 3.147-43.639 27.5-53Zm2 11c17.22-2.15 27.72 5.183 31.5 22 2 11.845-1.17 22.012-9.5 30.5-8.62 5.163-17.617 5.83-27 2-8.82-6.305-13.153-14.972-13-26-.115-13.648 5.885-23.148 18-28.5Z" style="opacity:.927"/><path d="M1162.5 465.5c22.58-3.635 38.08 5.032 46.5 26 4.62 17.708.45 32.875-12.5 45.5-13.62 8.42-27.95 9.754-43 4-16.53-11.228-22.69-26.728-18.5-46.5 3.57-15.071 12.74-24.738 27.5-29Zm3 11c20.17-1.335 30.84 8.165 32 28.5-2.66 24.68-15.66 33.014-39 25-7.92-6.411-11.59-14.744-11-25-.2-13.595 5.8-23.095 18-28.5Z" style="opacity:.926"/><path d="M763.5 466.5a49.87 49.87 0 0 1 14 1 1742.316 1742.316 0 0 0 22 51 819.709 819.709 0 0 0 20-52 49.87 49.87 0 0 1 14 1l-42 102a43.117 43.117 0 0 1-13 1 281.95 281.95 0 0 1 14-35 3074.876 3074.876 0 0 1-29-69Z" style="opacity:.919"/></svg>