<svg xmlns="http://www.w3.org/2000/svg" fill="none" viewBox="0 0 869 530"><path fill="#FF9C6C" d="M251.766 188.772V102.91l83.877 64.908c29.048 22.774 34.557 55.922 33.876 55.093-18.911-23.496-44.167-33.806-61.554-34.083l-56.199-.056Z"/><path fill="#FF5A0A" d="M477.761 207.303H415v227.091h62.761V207.303Zm110.031-107.212h-62.761v334.304h62.761V100.091Zm109.987 0h-62.761v334.304h62.761V100.091ZM306.704 355.944c0 10.115-8.775 18.419-18.695 18.419h-53.568V266.272h53.568c9.982 0 18.695 8.206 18.695 18.419v71.253Zm-71.845-148.567V100.229h-62.444v334.134H303.09c36.762 0 66.545-31.272 66.545-69.872v-87.242c0-38.6-29.783-69.872-66.545-69.872h-68.231Z"/><circle cx="446" cy="134.001" r="41" fill="#FF5A0A"/></svg>