<svg xmlns="http://www.w3.org/2000/svg" viewBox="0 0 400 400"><path fill="#801ED7" d="M0 0h400v400H0V0Z"/><path fill="#FBF9FD" d="M86.125 128.313C89 129 89 129 90 130c1.296 10.365-1.741 21.224-5 31l1.723-.656c8.129-2.932 13.971-3.076 21.976.398 5.131 2.805 7.941 7.254 9.797 12.801 1.93 9.414.556 18.481-2.496 27.457l-1.188 3.688L114 207c10.326-10.138 15.253-22.242 19-36a678.049 678.049 0 0 1 1.563-5.625l.628-2.352c.921-2.304 1.871-3.485 3.809-5.023 2.563-.313 2.563-.313 5 0 2 2 2 2 2.125 4.625L146 165l2.93-.438c16.526-2.356 16.526-2.356 22.07-1.562 2 2 2 2 2.395 4.563-.543 4.73-2.528 8.251-4.708 12.437-5.026 10.105-8.116 19.531-7.687 31l1 2c3.756.077 5.937.009 8.72-2.633 4.832-6.196 7.886-12.616 10.843-19.867 5.33-12.958 10.983-25.072 24.5-30.938 5.686-2.017 9.844-2.272 15.625-.312 3.09 1.632 5.048 3.124 7.312 5.75l2.188-3c2.436-2.92 2.436-2.92 5.437-3.563C239 159 239 159 240.875 160c3.894 6.923-2.488 20.223-4.512 27.591-3.72 12.129-3.72 12.129-2.3 24.409 1.87 2.325 1.87 2.325 5.25 2.563C251.517 212.7 259.772 197.94 267 189c1.624-1.98 3.25-3.96 4.875-5.938 2.445-2.974 4.839-5.964 7.125-9.062l-1.74-.044a946.207 946.207 0 0 1-7.885-.268l-2.738-.069c-5.417-.217-10.555-.537-14.637-4.619-.313-2.875-.313-2.875 0-6 2.176-2.184 3.512-2.942 6.59-3.309l2.918.086 3.242.057 3.375.103c7.181.2 13.789.196 20.798-1.516 2.942-.597 5.237-.344 8.077.579 2 3 2 3 1.93 5.813-1.133 3.884-3.128 6.273-5.805 9.187a1169.753 1169.753 0 0 0-3.016 3.43l-1.564 1.776c-2.492 2.894-4.83 5.902-7.17 8.919a675.773 675.773 0 0 1-12.5 15.57A167.05 167.05 0 0 0 264 210l2.703-.07 3.547-.055 3.516-.07C277 210 277 210 279.109 211.07c2.661 1.309 4.071.728 6.891-.07l3.043-.777c3.673-1.356 6.09-2.524 8.957-5.223 1.805-5.06 1.604-10.63 1.834-15.943.34-4.21 2.002-7.508 4.166-11.057l1.277-2.285c4.789-7.946 11.786-13.941 20.723-16.715 6.37-1.312 11.636-1.748 17.34 1.719 3.546 2.737 5.285 5.251 6.105 9.691.586 8.846-2.856 15.871-8.132 22.809-6.977 7.578-16.558 12.554-25.313 17.781 5.224 3.162 11.105 2.58 17 2 3.236-.988 6.06-2.345 9-4 3.538-1.927 5.924-2.354 10-2 2 2 2 2 2.125 5.313-1.384 4.535-2.78 5.371-6.8 7.558L345 221l-2.355 1.16c-8.216 3.84-17.27 5.623-26.215 3.121-4.817-2.024-8.693-4.64-12.43-8.281v-2l-2.773 1.313-3.602 1.687-3.586 1.688C291 221 291 221 289 221l.488 2.176c2.328 12.849-.677 24.851-7.488 35.824-5.509 7.152-13.843 13.012-22.98 14.273-6.237.287-10.313-1.13-15.02-5.273-4.105-5.26-3.7-11.628-3-18 2.829-12.223 11.893-19.498 22-26 1.21-.811 2.418-1.623 3.625-2.438L269 220c-9.597-.692-17.79 1.36-26.61 5.11-4.382 1.632-8.943 1.733-13.386.202-4.462-2.302-6.603-5.087-9.004-9.312l-1.504 1.426c-6.113 5.602-11.674 9.309-20.226 8.988-6.74-1.23-11.442-6.031-15.27-11.414v-2l-2.125 2.188c-5.794 5.744-11.083 10.223-19.438 11.25-4.195-.534-6.214-1.728-9.437-4.438-4.843-6.575-3.638-14.541-2.531-22.277 1.794-8.641 5.076-16.64 8.531-24.723l-14 1-1.031 3.48C137.962 195.751 131.087 209.968 116 219c-3.92 1.92-7.89 3.533-12 5l-2.082.75c-8.479 2.57-18.132 2.577-26.047-1.547-4.7-3.022-6.956-6.06-8.871-11.203l-2.598 1.969c-1.154.844-2.309 1.688-3.465 2.531-.56.43-1.122.859-1.7 1.3-4.113 2.962-7.018 3.966-12.237 3.2-2.163-3.244-2.691-4.234-2-8 2.72-2.407 5.653-4.246 8.691-6.23 8.052-6.091 11.656-15.147 14.434-24.52l1.01-3.287c3.66-12.164 6.653-24.506 8.728-37.041l.397-2.397c.236-1.473.459-2.948.665-4.425.302-1.96.302-1.96 1.075-5.1 3-2 3-2 6.125-1.688Z"/><path fill="#8120D7" d="M100 170c3.322 1.329 4.684 2.575 6.813 5.438 2.728 8.186 1.822 16.797-1.813 24.562-1.938 3.25-1.938 3.25-4 6l-1.875 2.688c-3.5 3.808-7.06 5.46-12.188 5.75-4.422-.492-5.957-1.195-8.937-4.438-3.4-6.774-3.276-16.153-.938-23.313C81.56 176.822 88.629 168.738 100 170Z"/><path fill="#8121D7" d="M218 170c2.802 2.133 4.43 4.859 6 8 .895 9.957-.017 18.694-6.129 26.836-7.707 8.863-7.707 8.863-14.809 9.539-3.115-.087-4.127-.413-6.937-2.063-4.233-4.606-4.56-9.306-4.445-15.332 1.095-10.192 5.968-18.32 13.734-24.78 3.827-2.894 7.951-3.073 12.586-2.2Z"/><path fill="#8223D8" d="M279 228c.56 11.097-1.083 18.402-8.223 27.05-3.406 3.737-6.54 6.707-11.652 7.262-3.125-.312-3.125-.312-5.5-1.875-2.35-3.526-2.303-5.236-1.625-9.437 3.811-9.126 16.111-23 27-23Z"/><path fill="#8324D8" d="M335 170c2 2 2 2 2.563 5.563-.159 5.804-3.66 9.445-7.563 13.437-4.757 4.247-13.509 12-20 12-.779-9.343 1.99-17.628 7.875-25 5.053-5.273 9.644-8.054 17.125-6Z"/></svg>