<svg xmlns="http://www.w3.org/2000/svg" version="1.0" viewBox="0 0 5000 5000"><path d="M1 2499.5V4999h4999V0H1v2499.5zM4121 2283v1091h-917.2c-613.7 0-921.1.4-928.8 1-42.4 3.8-85.9 21.4-120.5 48.9-12.7 10.1-28.6 27.1-42.3 45.1-7.2 9.6-28.5 37.7-47.2 62.5-73.8 97.7-72.8 96.4-101.4 125-78.2 77.9-179.5 128.6-291 145.5-38 5.7-12.7 5.4-419.8 5.7l-373.8.3V1626l922.8-.3c867.4-.2 923.3-.3 933.1-2 48.1-8 93.3-30.6 125.6-63.1 12.1-12.2 13.3-13.7 74-94.1 61.5-81.4 67.1-88.6 83.2-106 93.9-101.8 224-161.6 364.3-167.4 10.2-.4 180.6-.9 378.8-.9l360.2-.2v1091z"/><path d="M2888.5 1761.1c-16.6 1.6-40.2 7.4-57.2 14-33.7 13.2-67.3 36.9-88.6 62.8-3.5 4.2-30.8 40-60.7 79.6-29.9 39.6-58.2 76.7-62.8 82.5-78.2 97.7-193.9 165.1-319.2 185.9-42.4 7.1-.9 6.5-448.7 6.8l-404.3.3v1047l332.3-.3c307.4-.2 332.9-.4 341.8-2 49.2-8.7 91.6-30.2 124.4-63.1 11.8-11.9 11.9-11.9 73.1-92.8 64.8-85.7 68.3-90.1 83.6-106.8 90.4-98.1 216.3-158.1 350.3-166.9 10.7-.8 144.9-1.1 408.1-1.1h392.1l.7-126.3c.3-69.4.8-280.6 1.1-469.2.3-188.7.8-367.4 1.1-397.3l.6-54.2-329.9.1c-181.4.1-333.4.5-337.8 1z"/></svg>