<svg xmlns="http://www.w3.org/2000/svg" xml:space="preserve" id="Layer_1" x="0" y="0" style="enable-background:new 0 0 320 132" version="1.1" viewBox="0 0 320 132"><style>.st0{fill:#97c940}</style><path d="M36.96 76.19c-.78 0-1.58.34-2.17.93-3.57 3.26-6.97 4.66-11.38 4.66-4.03 0-7.75-1.61-10.48-4.54C10.2 74.3 8.69 70.31 8.69 66v-.12c0-8.92 6.33-15.65 14.72-15.65 4.19 0 7.58 1.35 11 4.39l.12.09c.71.47 1.39.7 2.09.7 1.83 0 3.37-1.52 3.37-3.31 0-.98-.46-1.92-1.29-2.65l-.02-.02C35.38 46.7 31 43.9 23.47 43.9c-6 0-11.52 2.32-15.54 6.53C4 54.55 1.84 60.08 1.84 66v.12c0 5.97 2.16 11.5 6.09 15.58 3.98 4.13 9.44 6.4 15.36 6.4 6.28 0 11.01-1.87 15.81-6.25.69-.6 1.11-1.5 1.11-2.41 0-1.74-1.51-3.25-3.25-3.25zM67.58 43.9c-6.14 0-11.76 2.36-15.81 6.64-3.9 4.12-6.05 9.61-6.05 15.45v.12c0 5.85 2.13 11.31 5.99 15.4 4.02 4.25 9.62 6.59 15.76 6.59 6.14 0 11.76-2.36 15.81-6.64 3.9-4.12 6.05-9.61 6.05-15.45v-.12c0-5.85-2.13-11.31-5.99-15.4-4.03-4.25-9.62-6.59-15.76-6.59zM82.48 66v.12c0 8.92-6.4 15.65-14.9 15.65-4.16 0-7.98-1.64-10.76-4.61-2.74-2.93-4.26-6.9-4.26-11.16v-.12c0-8.92 6.4-15.65 14.9-15.65 4.16 0 7.98 1.64 10.76 4.61 2.74 2.93 4.26 6.9 4.26 11.16zm46.14-21.69c-1.86 0-3.37 1.51-3.37 3.37v15.01h-21.42V47.68c0-1.86-1.51-3.37-3.37-3.37-1.83 0-3.31 1.51-3.31 3.37v36.64c0 1.86 1.48 3.37 3.31 3.37 1.86 0 3.37-1.51 3.37-3.37V69.08h21.42v15.25c0 1.86 1.51 3.37 3.37 3.37 1.79 0 3.31-1.54 3.31-3.37V47.68c0-1.83-1.51-3.37-3.31-3.37zm41.5 36.82H147.9V68.96h19.32c1.73 0 3.14-1.41 3.14-3.14 0-1.7-1.44-3.13-3.14-3.13H147.9V50.87h21.93c1.73 0 3.14-1.41 3.14-3.13 0-1.73-1.41-3.14-3.14-3.14h-25.3c-1.83 0-3.31 1.51-3.31 3.37v36.06c0 1.86 1.48 3.37 3.31 3.37h25.59c1.73 0 3.14-1.41 3.14-3.14 0-1.72-1.41-3.13-3.14-3.13zM230 44.31c-1.79 0-3.31 1.54-3.31 3.37v36.64c0 1.86 1.48 3.37 3.31 3.37 1.86 0 3.37-1.51 3.37-3.37V47.68c0-1.86-1.52-3.37-3.37-3.37zm41.36.29h-28.27c-1.73 0-3.2 1.46-3.2 3.19s1.43 3.14 3.2 3.14h10.77v33.39c0 1.86 1.51 3.37 3.37 3.37s3.37-1.51 3.37-3.37V50.93h10.77c1.76 0 3.19-1.41 3.19-3.14-.01-1.73-1.47-3.19-3.2-3.19zm43.49-.29c-1.49 0-2.35.93-3.01 1.84l-12.7 18.14-12.59-18.15c-.61-.85-1.51-1.83-3.06-1.83-1.86 0-3.43 1.52-3.43 3.31 0 .69.22 1.39.68 2.12l14.96 20.95v13.63c0 1.86 1.51 3.37 3.37 3.37s3.37-1.51 3.37-3.37V70.58l14.87-20.67.04-.06c.34-.55.8-1.38.8-2.24a3.29 3.29 0 0 0-3.3-3.3zm-111.48 12.4h-9.6c-1.76 0-3.2 1.43-3.2 3.2 0 1.76 1.44 3.2 3.2 3.2h9.6c4.95 0 8.97 4.02 8.97 8.97 0 4.95-4.02 8.97-8.97 8.97h-19.18c-1.76 0-3.2 1.43-3.2 3.2 0 1.76 1.43 3.2 3.2 3.2h19.18c8.47 0 15.37-6.89 15.37-15.37s-6.9-15.37-15.37-15.37z" class="st0"/><path d="M193.54 75.33h9.68c1.76 0 3.2-1.44 3.2-3.2 0-1.76-1.44-3.2-3.2-3.2h-9.68c-4.95 0-8.97-4.02-8.97-8.97 0-4.95 4.02-8.97 8.97-8.97h18.56c1.76 0 3.2-1.43 3.2-3.2 0-1.76-1.44-3.2-3.2-3.2h-18.56c-8.47 0-15.37 6.89-15.37 15.37s6.89 15.37 15.37 15.37z" class="st0"/></svg>