<svg xmlns="http://www.w3.org/2000/svg" viewBox="0 0 400 103.04"><path fill="#045ca4" fill-rule="evenodd" d="M158.333 50.583v50.584H175V50.75c0-33.5.056-50.417.167-50.417a.167.167 0 0 0 .166-.166c0-.109-2.944-.167-8.5-.167h-8.5v50.583m153.167 0v50.584H328V82.839c0-15.651.034-18.315.234-18.239.128.049.276.216.328.37.126.371.421.801.984 1.429.407.455 1.207 1.502 1.704 2.228.092.134.41.499.708.811.298.313.542.632.542.711 0 .079.295.456.656.839.36.383.679.757.708.832.088.224.862 1.206 1.261 1.599.206.203.375.453.375.555 0 .102.188.308.417.458.229.15.416.348.416.44 0 .164.688 1.047 1.338 1.717.181.187.329.404.329.483 0 .078.154.301.343.494.894.915 1.657 1.808 1.657 1.938 0 .079.145.245.321.369.177.123.413.427.526.674.112.246.38.564.595.705.215.14.391.337.391.437 0 .18.186.407 1.375 1.681.344.369.625.73.625.803 0 .072.225.344.5.604s.5.534.5.611c0 .076.282.433.625.793.344.36.788.861.987 1.112.199.251.631.766.959 1.144.328.378.596.734.596.792 0 .057.3.396.667.752.366.356.666.698.666.76 0 .11.13.261 1.412 1.65.326.353.703.803.839 1 .29.424 1.218 1.483 2.208 2.523.389.409.708.796.708.86 0 .064.337.44.75.835.412.395.75.778.75.851 0 .072.337.449.75.837.412.389.75.77.75.847 0 .077.184.339.409.582l.408.441h10.675c11.912 0 11.267.074 10.008-1.148-.367-.356-.667-.709-.667-.785 0-.075-.336-.478-.747-.894-1.282-1.298-2.104-2.212-2.392-2.658-.152-.236-.559-.689-.902-1.007-.344-.318-.625-.645-.625-.726 0-.082-.338-.467-.75-.857-.413-.39-.75-.763-.75-.829 0-.066-.299-.433-.664-.816-.893-.937-1.611-1.751-2.122-2.407a27.05 27.05 0 0 0-1.065-1.25 47.889 47.889 0 0 1-1.061-1.207c-.23-.275-.757-.869-1.17-1.321-.413-.452-.752-.87-.752-.929 0-.094-.504-.664-1.928-2.18-.223-.237-.405-.49-.405-.561 0-.072-.3-.422-.667-.778-.366-.356-.666-.718-.666-.804 0-.087-.138-.256-.305-.376-.168-.119-.445-.432-.615-.694-.17-.262-.576-.765-.903-1.117a26.9 26.9 0 0 1-.972-1.107 33.916 33.916 0 0 0-1.042-1.188c-.365-.397-.663-.763-.663-.813 0-.05-.269-.4-.597-.778a46.489 46.489 0 0 1-.958-1.14 25.87 25.87 0 0 0-.904-1.045c-.298-.325-.541-.66-.541-.743 0-.083-.176-.29-.391-.458a2.742 2.742 0 0 1-.609-.718 2.777 2.777 0 0 0-.61-.717c-.215-.169-.39-.374-.39-.456 0-.153-.293-.504-1.375-1.651-.344-.364-.625-.724-.625-.799 0-.132-.666-.946-1.336-1.633-.182-.186-.331-.402-.331-.48 0-.078-.169-.309-.375-.513-.586-.579-1.292-1.474-1.292-1.638 0-.081-.187-.296-.416-.476-.229-.18-.417-.396-.417-.479 0-.083-.262-.422-.583-.752-.642-.661-.71-.868-.334-1.012.138-.053.25-.184.25-.291 0-.107.207-.383.459-.612.252-.23.661-.682.91-1.006.248-.323.623-.783.833-1.022.21-.239.682-.783 1.048-1.209a45.73 45.73 0 0 1 1.375-1.51c.39-.404.709-.81.709-.902 0-.092.175-.282.389-.422.214-.14.495-.457.625-.704.13-.248.517-.716.86-1.041.344-.325.625-.649.625-.72.001-.071.3-.446.665-.834 1.862-1.973 2.169-2.316 2.171-2.422.001-.063.263-.37.583-.68.32-.311.582-.63.582-.709 0-.079.3-.435.666-.79.367-.356.667-.699.667-.763 0-.064.3-.404.667-.757.366-.352.666-.719.666-.816 0-.097.175-.291.389-.431.214-.14.496-.456.625-.703.13-.246.555-.742.945-1.103.389-.361.708-.721.708-.801 0-.081.3-.437.667-.793.366-.356.666-.702.666-.769 0-.068.3-.414.667-.77.367-.355.667-.703.668-.772.001-.069.264-.379.584-.69.32-.311.581-.628.581-.705 0-.077.338-.451.75-.831.413-.38.75-.757.75-.837 0-.08.3-.437.667-.793.367-.356.667-.702.667-.769 0-.067.3-.413.666-.769.367-.356.668-.704.669-.772.001-.069.263-.38.583-.691.32-.311.582-.631.582-.712 0-.081.337-.46.75-.842.412-.381.75-.76.75-.842 0-.081.3-.436.666-.789.367-.352.667-.721.667-.82 0-.127-3.02-.18-10.21-.18h-10.21l-.415.528c-.228.29-.584.692-.79.894-.206.202-.375.433-.375.515 0 .081-.225.36-.5.62-.275.259-.5.569-.5.688s-.187.34-.417.49c-.229.15-.416.344-.416.43 0 .087-.263.42-.584.741-.321.321-.583.659-.583.752 0 .092-.187.291-.417.441-.229.15-.416.371-.416.49s-.225.429-.5.688c-.275.26-.5.526-.5.592 0 .066-.156.291-.345.5l-1 1.103c-.361.397-.655.787-.655.866 0 .079-.133.241-.295.361-.162.12-.437.443-.612.718-.174.275-.454.598-.622.718-.167.12-.305.286-.305.369 0 .156-.289.503-1.375 1.654-.343.364-.625.736-.625.826 0 .09-.144.265-.321.389-.177.124-.413.427-.526.674-.112.247-.38.564-.595.705-.215.141-.391.332-.391.424 0 .093-.263.431-.583.752-.321.321-.584.652-.584.735 0 .084-.132.25-.294.37-.162.119-.437.442-.612.717-.174.275-.454.598-.622.718-.168.12-.305.286-.305.369 0 .083-.155.323-.345.532l-1 1.103c-.36.397-.655.787-.655.866 0 .079-.133.241-.295.361-.162.12-.437.443-.611.718-.175.275-.455.598-.622.718-.168.12-.305.286-.305.369 0 .156-.29.503-1.375 1.654-.344.364-.625.724-.625.799 0 .148-.738 1.047-1.409 1.716-.234.233-.425.477-.425.542 0 .065-.131.256-.291.423a12.11 12.11 0 0 0-.667.786l-.375.482V0h-16.5v50.583M0 50.656v50.511h17.923c16.861 0 23.17-.129 23.994-.488.183-.08 1.195-.239 2.25-.354 1.054-.114 1.954-.254 2-.312.045-.057.908-.241 1.916-.408 1.009-.168 1.871-.365 1.917-.438.046-.074.552-.226 1.125-.339.573-.113 1.042-.27 1.042-.35 0-.079.104-.145.231-.145.319 0 2-.541 2.102-.677.046-.061.271-.166.5-.233.496-.145 2.547-1.106 2.667-1.249.045-.055.402-.24.791-.412.39-.172.709-.358.709-.413 0-.056.236-.206.525-.333.289-.128.664-.353.833-.499l.642-.559c.183-.16.403-.291.488-.291.085 0 .302-.188.482-.417.18-.229.398-.417.485-.417.156 0 1.314-1.094 1.979-1.871.193-.225.501-.515.684-.644.182-.129.458-.478.611-.776.154-.298.354-.542.446-.542.091 0 .238-.187.325-.417.087-.229.231-.416.321-.416s.295-.279.457-.62c.162-.341.428-.753.591-.916.164-.164.297-.402.297-.53s.098-.27.218-.315c.119-.046.319-.392.443-.768.124-.377.274-.685.333-.685s.242-.375.407-.833c.165-.458.358-.833.43-.833.071 0 .215-.338.319-.75.103-.413.247-.75.318-.75.071 0 .273-.525.449-1.167s.369-1.167.43-1.167c.06 0 .202-.468.315-1.041.112-.573.26-1.08.327-1.125.137-.093.678-2.712.678-3.278 0-.199.07-.386.156-.417.086-.03.25-.88.364-1.889.115-1.008.259-1.871.32-1.916.152-.113.482-3.704.609-6.625.056-1.307.166-2.375.244-2.375.077 0 .14-3.863.14-8.584 0-5.611-.057-8.583-.166-8.583-.094 0-.167-.473-.167-1.086 0-1.535-.513-7.314-.658-7.414-.066-.046-.214-.871-.328-1.833-.114-.963-.276-1.775-.361-1.806-.084-.03-.153-.218-.153-.417 0-.565-.541-3.185-.678-3.277-.067-.046-.215-.552-.327-1.125-.113-.573-.262-1.042-.332-1.042s-.256-.525-.413-1.167c-.157-.641-.336-1.166-.398-1.166s-.212-.338-.334-.75c-.122-.413-.272-.75-.333-.75-.062 0-.213-.342-.336-.76-.124-.417-.314-.848-.424-.958-.109-.11-.335-.555-.501-.991-.167-.435-.358-.791-.426-.791-.069 0-.223-.244-.343-.542-.12-.298-.317-.602-.437-.675-.12-.073-.218-.211-.218-.306 0-.166-.813-1.389-1.333-2.005a71.777 71.777 0 0 1-.667-.807c-.378-.464-3.244-3.381-4.101-4.174-.193-.179-.436-.325-.54-.325-.104 0-.283-.15-.398-.333-.114-.183-.284-.334-.376-.334-.093 0-.431-.225-.752-.499-.321-.275-.665-.5-.766-.5-.1 0-.358-.152-.572-.338-.214-.186-.558-.38-.764-.432-.205-.052-.409-.185-.451-.296-.043-.112-.386-.304-.762-.428-.377-.125-.685-.286-.685-.358 0-.072-.412-.261-.916-.42-.505-.159-.917-.342-.917-.406s-.338-.201-.75-.305c-.412-.104-.75-.25-.75-.324 0-.075-.6-.279-1.333-.454-.734-.174-1.334-.363-1.334-.418 0-.056-.431-.201-.958-.323-.527-.121-1.033-.274-1.125-.338-.092-.065-.917-.255-1.833-.423-.917-.167-1.705-.354-1.75-.415-.046-.061-.984-.208-2.084-.328-1.1-.12-2.037-.27-2.083-.334-.293-.409-5.339-.549-22.042-.614L0 .145v50.511M196.333 9.375c0 2.04-.05 6.352-.11 9.583l-.11 5.875h-12.28V38.5h12.342l-.013 23.542c-.011 22.493.041 26.291.362 26.291.078 0 .143.18.143.399 0 .537.512 2.997.645 3.101.059.046.205.384.325.75.24.735 1.039 2.452 1.202 2.584.056.045.247.339.424.653.481.855 2.273 2.847 2.561 2.847.093 0 .282.173.421.385.138.211.515.488.837.614.321.126.585.281.585.345 0 .063.225.208.5.322.275.114.5.261.5.327s.487.259 1.083.43c.596.17 1.083.359 1.083.42s.469.209 1.042.329c.573.119 1.079.272 1.125.34.472.693 13.347.687 14.25-.007.092-.07.785-.222 1.542-.337.756-.115 1.375-.265 1.375-.333 0-.069.281-.17.625-.226 1.339-.217 2.277-.451 2.365-.59.051-.08.524-.242 1.051-.359.527-.117.959-.274.959-.347 0-.074.3-.215.666-.313l.667-.18v-.993c0-.547-.062-.994-.137-.994-.076 0-.237-1.913-.36-4.25-.122-2.338-.285-4.25-.363-4.25-.077 0-.14-.487-.14-1.083 0-.611-.073-1.084-.167-1.084-.091 0-.166.065-.166.144 0 .079-.45.24-1 .356-.55.117-1 .265-1 .329 0 .063-.75.253-1.667.421-.917.169-1.667.357-1.667.418 0 .183-3.02.499-4.768.499-1.664 0-3.732-.272-3.732-.49 0-.068-.308-.225-.684-.349-.376-.124-.722-.324-.768-.444-.046-.119-.175-.217-.287-.217-.184 0-.452-.277-1.418-1.465-.17-.21-.409-.716-.529-1.125-.121-.409-.27-.743-.331-.743-.584 0-.604-1.178-.524-30.375l.041-15.292H232.5V24.833h-19.721l.108-9.583.108-9.583h-16.662v3.708M32.132 14.478c.034.104.334.189.667.189.924 0 4.94.515 5.034.646.046.064.646.21 1.334.324.687.115 1.275.281 1.305.369.031.088.191.161.356.161.35 0 2.05.52 2.172.665.046.054.402.201.792.327.389.125.708.285.708.354 0 .07.375.251.833.404.459.152.834.331.834.399 0 .067.262.225.583.351.321.126.583.288.583.36 0 .072.221.245.491.385s.694.442.941.671c.248.229.533.417.634.417.102.001.327.214.502.475.174.26.531.616.791.791.261.175.583.542.715.817.132.275.395.595.583.71.189.115.343.322.343.458 0 .137.072.249.159.249.088 0 .29.281.45.625.16.344.347.665.417.714.196.137 1.308 2.367 1.308 2.623 0 .126.098.327.219.448.121.12.317.659.437 1.196.119.538.284 1.02.367 1.072.082.053.233.578.336 1.167.103.589.244 1.109.315 1.155.141.092.659 4.062.659 5.048 0 .34.075.619.167.619.109 0 .166 4.139.166 12.083s-.057 12.083-.166 12.083c-.092 0-.167.279-.167.619 0 .986-.518 4.956-.659 5.048-.071.046-.212.566-.315 1.155-.103.589-.252 1.114-.331 1.167-.079.052-.276.638-.438 1.303-.161.665-.36 1.208-.442 1.208-.081 0-.148.086-.148.191 0 .316-1.168 2.643-1.327 2.643-.081 0-.192.206-.248.458-.099.444-.341.809-1.3 1.955-.252.301-.459.596-.459.656 0 .096-.489.574-2.767 2.701a5.492 5.492 0 0 1-1.145.8c-.323.153-.588.331-.589.396-.001.064-.339.265-.75.446-.412.181-.749.372-.749.425 0 .053-.281.196-.625.319-.343.123-.662.273-.708.334-.103.135-1.785.676-2.102.676-.127 0-.231.067-.231.148 0 .081-.507.242-1.125.358-.619.115-1.163.267-1.209.336-.119.181-4.202.658-5.631.658-.69 0-1.202.071-1.202.167 0 .109-2.75.167-7.917.167h-7.916V14.118l7.701.086c5.519.061 7.718.139 7.764.274m84.535 8.33c0 .077-1.144.187-2.542.244-2.573.104-5.306.413-5.458.616-.046.061-.665.208-1.375.328-.711.12-1.292.27-1.292.334 0 .063-.6.253-1.333.42-.734.167-1.334.362-1.334.432s-.412.248-.916.394c-.505.147-.917.328-.917.402 0 .074-.3.234-.667.355-.366.121-.667.265-.668.319-.001.054-.338.246-.75.427s-.748.387-.748.458c0 .071-.094.13-.209.13-.114 0-.471.225-.791.5-.321.274-.675.499-.786.499-.111 0-.283.151-.381.334-.098.183-.265.333-.371.333-.106 0-.473.3-.815.667-.342.367-.683.667-.759.667-.159 0-1.388 1.235-1.388 1.394 0 .058-.3.397-.667.753-.367.356-.667.728-.667.827 0 .099-.15.261-.333.359-.183.098-.333.255-.333.349 0 .094-.218.447-.483.786-.266.338-.534.784-.595.99-.061.206-.177.375-.256.375-.08 0-.24.262-.356.583-.116.321-.259.584-.319.584-.059 0-.248.318-.42.708-.172.39-.352.746-.401.792-.049.045-.193.38-.32.744-.127.363-.319.748-.426.855-.107.107-.296.616-.42 1.131-.123.515-.282.936-.352.936-.071 0-.221.413-.334.917-.112.504-.258.917-.324.917s-.253.693-.416 1.541c-.163.848-.356 1.581-.429 1.63-.072.048-.263 1.06-.424 2.25-.161 1.189-.343 2.2-.404 2.245-.15.113-.488 4.415-.488 6.214 0 .858-.068 1.453-.167 1.453-.105 0-.166 1.139-.166 3.083 0 1.945.061 3.084.166 3.084.1 0 .167.672.167 1.684 0 2.265.336 6.552.519 6.621.081.031.147.256.146.5-.004.726.545 4.438.669 4.528.063.046.248.777.411 1.625.163.848.35 1.542.416 1.542.065 0 .218.412.339.916.121.504.264.917.318.917.054 0 .246.488.426 1.083.18.596.374 1.084.431 1.084.058 0 .204.3.325.666.121.367.273.667.337.667.065 0 .247.338.404.75.158.412.348.75.423.75.075 0 .215.225.311.5s.239.5.319.5c.079 0 .249.269.378.597.129.328.368.668.531.756.163.087.297.253.297.368 0 .115.3.485.667.822.366.337.666.672.666.743.001.15 1.239 1.381 1.389 1.381.055 0 .363.262.684.583.32.321.656.583.746.583.089 0 .26.132.38.293.12.161.499.44.843.621s.625.375.625.432c0 .057.319.245.708.418.39.172.808.409.929.525.121.116.322.211.446.211.125 0 .326.099.447.219.121.121.632.364 1.137.542.504.177 1.009.409 1.121.515.113.107.507.245.875.307.369.062.67.172.67.245 0 .072.694.264 1.542.428.848.163 1.582.357 1.631.431.05.075.837.226 1.75.336.914.11 1.699.256 1.745.324.389.572 16.406.57 16.832-.002.046-.061.944-.205 1.995-.319 1.052-.115 1.952-.263 2-.329.049-.067.914-.258 1.922-.425 1.008-.168 1.871-.365 1.917-.438.045-.074.552-.226 1.125-.339.573-.113 1.041-.27 1.041-.35 0-.079.104-.145.231-.145.322 0 2.001-.542 2.103-.679.045-.062.328-.165.626-.23.299-.065.637-.206.75-.313.114-.107.638-.338 1.165-.513s.959-.368.959-.428c0-.059.273-.239.607-.398l.608-.29-.099-1.449a443.81 443.81 0 0 1-.305-5.575c-.112-2.268-.266-4.125-.341-4.125-.075 0-.137-.525-.137-1.166 0-.785-.064-1.167-.197-1.167-.337 0-1.303.394-1.303.531 0 .072-.338.216-.75.32-.413.104-.75.253-.75.331 0 .078-.413.262-.917.409-.504.146-.916.329-.916.406 0 .077-.302.191-.67.254-.369.062-.763.206-.877.32-.114.114-.769.343-1.455.51-.687.167-1.286.355-1.332.418-.046.063-.571.209-1.166.324-.596.115-1.121.266-1.167.334-.086.128-3.155.676-3.785.676-.195 0-.379.067-.409.149-.232.619-13.139.64-13.139.021 0-.064-.527-.21-1.171-.325-.644-.116-1.263-.299-1.375-.408-.112-.109-.523-.293-.913-.408-.389-.115-.708-.269-.708-.342 0-.073-.304-.234-.675-.356-.371-.123-.727-.303-.791-.402-.065-.099-.342-.292-.617-.429-.275-.137-.637-.418-.804-.625-.167-.206-.367-.375-.445-.375-.185 0-1.668-1.483-1.668-1.667 0-.078-.173-.279-.385-.446-.212-.167-.492-.547-.624-.845-.131-.298-.296-.542-.366-.542s-.248-.3-.394-.666c-.147-.367-.328-.667-.403-.667-.074 0-.228-.281-.34-.625-.113-.344-.298-.775-.411-.958-.113-.184-.3-.746-.416-1.25-.115-.505-.265-.955-.333-1-.168-.114-.661-3.055-.661-3.946 0-.397-.075-.721-.167-.721-.103 0-.167-.861-.167-2.25V67h46.972l.117-1.249c.349-3.726.034-17.284-.409-17.583-.068-.047-.218-.872-.333-1.834-.115-.962-.265-1.787-.333-1.833-.069-.046-.264-.778-.434-1.626-.171-.848-.359-1.542-.418-1.542-.06 0-.201-.412-.314-.916-.113-.505-.265-.917-.338-.917-.073 0-.259-.45-.413-1-.154-.55-.336-1-.404-1s-.264-.413-.435-.917c-.172-.504-.373-.916-.448-.916-.075 0-.184-.189-.242-.419-.058-.23-.19-.474-.295-.542-.104-.067-.339-.421-.523-.785-.183-.365-.446-.787-.583-.939-.712-.785-1.167-1.41-1.167-1.601 0-.118-.059-.214-.131-.214-.071 0-.692-.544-1.379-1.209-.687-.664-1.501-1.395-1.81-1.625a13.919 13.919 0 0 1-.833-.666c-.149-.138-.57-.4-.934-.584-.364-.183-.723-.427-.796-.541a.487.487 0 0 0-.363-.209c-.126 0-.337-.107-.469-.239-.132-.131-.643-.371-1.137-.532-.494-.16-.985-.379-1.092-.485-.107-.106-.651-.289-1.209-.407-.557-.119-1.013-.273-1.013-.344 0-.071-.525-.223-1.167-.338-.642-.114-1.167-.261-1.167-.326 0-.186-2.854-.508-5.458-.615-1.306-.054-2.375-.161-2.375-.239 0-.078-.525-.141-1.167-.141-.641 0-1.166.063-1.166.141m150.838.637c-.685.039-1.285.129-1.333.199-.049.07-.914.221-1.922.336-1.008.114-1.858.278-1.889.364-.03.086-.241.156-.467.156-.611 0-2.727.507-2.727.654 0 .069-.432.22-.959.335-.527.115-1.108.303-1.291.418-.184.115-.615.301-.959.414-.343.113-.625.259-.625.324 0 .066-.412.26-.916.431-.505.171-.917.378-.917.46 0 .081-.225.226-.5.322s-.5.239-.5.317c0 .079-.281.273-.625.433-.344.16-.685.388-.758.508a.492.492 0 0 1-.371.217c-.131 0-.361.188-.511.417-.15.229-.355.417-.454.417-.268 0-4.062 3.907-4.192 4.316-.061.193-.179.35-.263.35-.083 0-.273.237-.423.526-.149.29-.414.679-.587.865-.174.186-.316.429-.316.54 0 .11-.098.238-.217.284-.12.046-.32.391-.444.768-.124.376-.277.684-.339.684s-.212.3-.333.667c-.121.366-.276.666-.344.666-.067 0-.258.375-.423.834-.164.458-.346.833-.403.833-.057 0-.206.375-.33.833-.125.459-.275.834-.333.834-.059 0-.239.562-.401 1.25-.162.687-.355 1.25-.429 1.25-.074 0-.173.243-.221.541-.319 1.991-.525 2.959-.627 2.959-.065 0-.214.75-.331 1.666-.117.917-.264 1.667-.326 1.667-.283 0-.582 5.92-.582 11.5.001 5.81.305 11.667.607 11.667.079 0 .142.206.142.458-.002.808.387 3.042.53 3.042.075 0 .137.179.137.399 0 .568.517 3.001.659 3.101.065.045.218.558.339 1.138.121.581.307 1.143.413 1.25.105.107.291.551.412.987.121.435.27.791.331.791s.251.413.422.917c.172.504.369.917.438.917.07 0 .214.262.32.583.106.321.253.583.328.583.074 0 .256.3.402.667.147.367.343.667.435.667.092 0 .168.093.168.208.001.115.225.471.5.792.275.32.499.633.5.695 0 .061.338.449.75.862.412.412.75.813.75.89 0 .077.239.326.531.554.292.229.847.715 1.232 1.082.793.755 1.191 1.05 1.612 1.191.16.054.292.161.292.237 0 .077.262.264.583.417.321.152.583.329.583.393s.263.219.584.345c.32.126.583.284.583.351 0 .068.375.247.833.399.459.153.834.338.834.412 0 .074.26.183.578.243.318.06.675.206.793.324.119.119.759.349 1.422.512.664.162 1.207.348 1.207.411 0 .064.581.214 1.291.333.711.119 1.329.277 1.375.35.377.603 13.13 1.082 18.126.681 2.97-.238 5.436-.546 5.541-.691.046-.063.74-.207 1.542-.32.802-.113 1.458-.257 1.458-.32 0-.062.675-.25 1.5-.416.825-.167 1.5-.359 1.5-.426 0-.068.412-.222.917-.343.504-.121.916-.265.916-.32 0-.055.488-.24 1.084-.411.595-.17 1.083-.366 1.083-.434 0-.069.337-.219.75-.335.412-.115.751-.256.752-.313 0-.057.338-.251.75-.432.411-.181.748-.388.748-.459 0-.071.112-.129.25-.129.167 0 .25-.167.25-.5 0-.275-.062-.5-.138-.5-.076 0-.238-2.062-.359-4.583-.121-2.521-.284-4.584-.362-4.584-.077 0-.141-.67-.141-1.49 0-.909-.072-1.534-.184-1.604-.212-.131-1.483.249-1.483.443 0 .07-.412.248-.916.394-.505.147-.917.331-.917.41 0 .079-.26.192-.578.252-.318.06-.679.21-.803.333-.123.124-.659.322-1.19.441-.532.119-1.057.307-1.168.417-.111.111-.646.293-1.189.406-.544.112-1.026.261-1.072.331-.095.146-2.507.667-3.087.667-.212 0-.41.074-.441.164-.03.091-1.105.294-2.389.454-1.283.159-2.384.362-2.446.451-.168.241-8.81.233-9.319-.008-.221-.105-1.133-.319-2.026-.476-.894-.158-1.625-.335-1.625-.394s-.488-.254-1.084-.434c-.596-.18-1.083-.386-1.083-.459 0-.072-.113-.131-.25-.131-.138 0-.384-.134-.547-.297-.164-.164-.576-.43-.917-.591-.341-.162-.619-.366-.619-.453 0-.088-.111-.159-.246-.159-.136 0-.37-.187-.52-.417-.15-.229-.368-.416-.484-.416-.217 0-1.25-.974-1.25-1.178 0-.063-.3-.433-.667-.822-.367-.39-.667-.808-.667-.929a.483.483 0 0 0-.208-.355c-.115-.073-.321-.358-.459-.633-.137-.275-.328-.584-.424-.686-.096-.103-.28-.515-.409-.917-.13-.402-.285-.768-.345-.814-.06-.046-.24-.608-.399-1.25-.159-.641-.345-1.241-.414-1.333-.151-.201-.508-2.361-.508-3.074 0-.28-.075-.509-.167-.509-.104 0-.167-.973-.167-2.584V67.5h46.949l.108-1.875c.289-5.013.007-16.44-.409-16.597-.081-.031-.148-.246-.148-.479 0-.743-.52-3.958-.655-4.047-.071-.047-.224-.592-.339-1.21-.116-.619-.264-1.125-.331-1.125-.066 0-.257-.6-.425-1.334-.167-.733-.365-1.333-.439-1.333-.074 0-.255-.413-.401-.917-.147-.504-.324-.916-.395-.916-.07 0-.227-.3-.348-.667-.121-.367-.272-.667-.335-.667s-.255-.318-.427-.708c-.171-.39-.408-.768-.525-.842a.488.488 0 0 1-.213-.366.482.482 0 0 0-.227-.367c-.126-.073-.362-.396-.525-.717-.164-.321-.436-.681-.606-.801-.17-.12-.309-.284-.309-.365 0-.346-3.383-3.472-4.008-3.703-.179-.066-.325-.188-.325-.272 0-.083-.225-.245-.5-.359-.275-.114-.5-.266-.5-.339 0-.073-.338-.262-.75-.42-.413-.157-.75-.336-.75-.396 0-.061-.278-.212-.619-.335-.34-.123-.707-.311-.814-.419-.107-.107-.616-.296-1.131-.419-.515-.124-.936-.276-.936-.338 0-.131-2.129-.667-2.649-.667-.193 0-.351-.062-.351-.138 0-.156-2.264-.531-3.194-.53-.337.001-.638-.079-.671-.178-.063-.189-7.238-.344-9.63-.209m-146.69 11.68c.056.084.57.25 1.143.37.573.119 1.042.266 1.042.325s.342.208.759.331c.418.124.851.316.962.427.111.112.375.295.587.408 1.037.556 3.095 2.724 3.295 3.472.055.207.171.375.257.375.087 0 .236.225.332.5.096.275.23.5.298.5.068 0 .263.488.433 1.084.17.595.361 1.083.425 1.083.063 0 .209.506.324 1.125.116.619.261 1.163.324 1.208.231.169.527 3.002.622 5.959l.098 3.041h-31.531l.099-1.791c.055-.986.163-1.817.241-1.848.078-.03.142-.223.142-.429 0-.639.531-3.511.665-3.598.07-.046.226-.523.345-1.061.12-.537.311-1.07.424-1.183.113-.113.288-.51.388-.881.1-.371.278-.712.397-.757.119-.046.317-.391.441-.767.125-.377.291-.685.37-.685.08 0 .216-.187.303-.416.087-.229.235-.417.329-.417.094 0 .171-.094.172-.208.001-.295 2.067-2.625 2.327-2.625.084 0 .251-.139.371-.309.12-.17.48-.442.801-.606.321-.163.639-.391.706-.506.068-.115.321-.258.562-.319.241-.061.538-.209.66-.331.121-.121.562-.321.979-.445.418-.123.76-.276.76-.339s.525-.209 1.166-.324c.642-.114 1.167-.267 1.167-.339 0-.312 6.608-.335 6.815-.024m154.325.639c.06.084.621.283 1.245.442.624.16 1.242.397 1.373.528s.464.288.74.349c.276.061.502.177.502.259 0 .082.238.273.529.423.574.297 2.138 1.764 2.138 2.006 0 .082.15.242.333.357.183.114.333.316.333.448 0 .133.096.301.213.374.118.073.354.452.526.842.171.389.361.708.422.708.06 0 .206.375.323.833.118.459.272.834.344.834.071 0 .266.656.432 1.458.166.802.353 1.496.416 1.542.145.105.491 3.033.491 4.153 0 .466.075.847.167.847.101 0 .166.722.166 1.833v1.833h-31.709l.12-1.875c.066-1.031.188-1.9.271-1.93.084-.031.152-.262.152-.514 0-.588.346-2.379.502-2.597.065-.092.253-.729.417-1.417.164-.687.35-1.288.413-1.333.063-.046.249-.44.414-.875.164-.436.352-.792.416-.792.065 0 .217-.3.338-.667.121-.366.279-.666.352-.666.073 0 .264-.279.426-.62.34-.716.377-.76 2.113-2.54.719-.737 1.371-1.34 1.449-1.34.077 0 .239-.138.359-.305.119-.168.536-.445.926-.616.389-.171.708-.359.708-.418 0-.06.3-.198.667-.308.366-.11.666-.26.666-.333 0-.073.619-.272 1.375-.442.757-.17 1.413-.364 1.46-.43.22-.314 7.247-.362 7.472-.051M392.5 87.667c0 .091-.209.166-.464.166-.683 0-2.267.442-2.337.652-.033.1-.161.182-.284.182-.123 0-.361.172-.528.384-.167.211-.435.433-.595.494-.161.061-.292.218-.292.349 0 .13-.116.282-.258.336-.142.054-.337.325-.433.601-.096.276-.234.502-.306.502-.157 0-.503 1.311-.503 1.907 0 .235-.075.427-.167.427-.091 0-.166.337-.166.75 0 .412.075.75.166.75.092 0 .167.191.167.426 0 .55.341 1.907.479 1.907.059 0 .212.244.342.542.342.787 1.912 2.215 2.637 2.399.207.052.375.152.375.221 0 .209 1.813.505 3.099.505 1.237 0 2.901-.294 2.901-.513 0-.067.225-.2.5-.296.275-.096.5-.253.5-.349 0-.097.094-.176.209-.176.247 0 1.458-1.213 1.458-1.46 0-.094.099-.209.219-.255 1.107-.424.977-7.029-.151-7.668-.129-.073-.235-.21-.235-.304 0-.275-.869-1.063-1.458-1.322-.298-.131-.542-.292-.542-.358 0-.165-1.623-.633-2.197-.633-.258 0-.469-.075-.469-.166 0-.092-.375-.167-.834-.167-.458 0-.833.075-.833.167m2.414 2.019c.365.102.763.326.884.499.122.173.327.315.456.315s.322.164.429.365c.206.384.387.627.848 1.137.649.717.747 4.498.117 4.498-.081 0-.148.109-.148.241 0 .133-.181.437-.403.676l-.402.435-.212-.968c-.117-.532-.255-1.005-.307-1.051-.444-.391-.537-1.408-.156-1.716 1.028-.833.243-2.88-1.178-3.07-.371-.05-.675-.156-.675-.236 0-.079-.488-.144-1.084-.144-.611 0-1.083.072-1.083.166 0 .092-.338.167-.75.167h-.75v7h2v-1.25c0-1.186.019-1.25.375-1.248.755.005 1.128.201 1.22.643.05.241.171.757.269 1.147l.179.708 1.02.005 1.02.006-.467.411c-.257.226-.571.411-.697.411s-.358.129-.516.287c-.331.332-2.667.421-2.87.109-.064-.098-.304-.224-.533-.28-.593-.145-1.215-.639-2.265-1.8-.134-.147-.331-.691-.44-1.208-.108-.518-.257-.941-.329-.941-.193 0-.163-.962.034-1.083.092-.057.167-.265.167-.463 0-.448.501-1.787.669-1.787.068 0 .217-.226.332-.503.126-.306.443-.611.811-.783.333-.154.644-.337.692-.406.322-.457 2.524-.627 3.743-.289m-.749 3.062c.264.318.095.759-.333.871-.182.047-.332.153-.332.234 0 .081-.225.147-.5.147-.481 0-.5-.028-.5-.75v-.75h.73c.442 0 .81.098.935.248"/></svg>