<svg xmlns="http://www.w3.org/2000/svg" xml:space="preserve" id="Layer_1" x="0" y="0" style="enable-background:new 0 0 400 400" version="1.1" viewBox="0 0 400 400"><style>.st1{fill:#002e22}</style><path d="M200 0c110.5 0 200 89.5 200 200s-89.5 200-200 200S0 310.5 0 200 89.5 0 200 0z" style="fill:#03d47c"/><path d="M255.2 153.9v-32.6H144.8v157.3h110.4V246h-69.8v-30.2h56.2v-33.4h-56.2v-28.6h69.8z" class="st1"/><path d="M200.3 69.4c27.9 0 53.5 8.7 74.8 23.4 5.4 3.7 12.8 3.5 17.4-1.2 5.2-5.2 4.9-13.9-1.1-18.2C265.8 54.9 234.3 44 200.3 44 114.1 44 44 114.1 44 200.3c0 34 10.9 65.5 29.4 91.2 4.3 6 13 6.3 18.2 1.1 4.7-4.6 4.9-12 1.2-17.4-14.7-21.3-23.4-46.9-23.4-74.8 0-72.4 58.6-131 130.9-131-.1 0 0 0 0 0zM329.2 112c-4.3-6.2-13.1-6.6-18.5-1.3-4.6 4.6-5 11.9-1.4 17.3 13.6 20.6 21.8 45.6 21.8 72.2 0 26.7-8.4 52.4-22.6 73.5-3.7 5.4-3.3 12.8 1.3 17.4 5.3 5.3 14 4.9 18.3-1.2 17.9-25.4 28.4-56.4 28.4-89.7 0-33.2-10.1-63.2-27.3-88.2zM200.3 331.1c-26.6 0-51.5-8.1-72.2-21.8-5.4-3.6-12.7-3.2-17.3 1.4-5.3 5.3-4.9 14.2 1.3 18.4 25.1 17.3 55.5 27.4 88.2 27.4 32.9 0 64.2-10.5 89.7-28.4 6.1-4.3 6.5-13 1.2-18.3-4.6-4.6-12-4.9-17.4-1.3-21 14.2-46.3 22.6-73.5 22.6z" class="st1"/></svg>