<svg xmlns="http://www.w3.org/2000/svg" fill="none" viewBox="0 0 234 224"><path fill="#00A0A0" d="M130.215 43.21c.129 1.814-1.368 3.289-3.201 3.289h-40.03c-1.833 0-3.33 1.476-3.201 3.29a46.407 46.407 0 0 0 10.476 26.21 46.696 46.696 0 0 0 26.97 16.107 46.814 46.814 0 0 0 31.103-4.597 46.565 46.565 0 0 0 21.116-23.215 46.343 46.343 0 0 0 1.542-31.292 46.512 46.512 0 0 0-18.73-25.165 46.798 46.798 0 0 0-39.898-5.704 46.775 46.775 0 0 0-9.47 4.13 46.579 46.579 0 0 1 17.244 17.304l.013-.198.094.165a46.378 46.378 0 0 1 5.972 19.677Z"/><path fill="#fff" d="M83.667 93c25.774 0 46.668-20.819 46.668-46.5S109.441 0 83.667 0C57.894 0 37 20.819 37 46.5S57.894 93 83.667 93Z"/><path fill="url(#a)" d="M83.667 93c25.774 0 46.668-20.819 46.668-46.5S109.441 0 83.667 0C57.894 0 37 20.819 37 46.5S57.894 93 83.667 93Z"/><path fill="url(#b)" d="M107.008 86.775c13.945-8.04 23.327-23.066 23.327-40.275.039-1.878-.12-3.29-.12-3.29.089 1.8-1.368 3.29-3.201 3.29h-40.03c-1.833 0-3.33 1.475-3.201 3.289a46.407 46.407 0 0 0 10.476 26.21 46.616 46.616 0 0 0 12.749 10.776Z"/><path fill="#323338" d="M9.69 223.93c5.529 0 9.804-3.021 9.804-7.752 0-3.078-1.596-6.213-6.783-7.467l-3.933-.969c-1.938-.456-4.104-1.539-4.104-4.047s2.109-4.275 5.187-4.275c2.622 0 4.959 1.596 5.13 3.99h3.534c-.171-4.788-4.275-7.239-8.721-7.239-5.073 0-8.778 3.135-8.778 7.467 0 4.446 3.021 6.384 6.783 7.296l3.819.912c2.736.684 4.218 2.109 4.218 4.275 0 2.679-2.337 4.56-6.156 4.56-3.876 0-5.928-2.28-6.327-4.503H0c.456 5.073 5.073 7.752 9.69 7.752Zm38.629-27.189v5.13c-1.995-3.591-6.099-5.7-10.602-5.7-7.467 0-13.509 5.757-13.509 13.851 0 8.094 6.099 13.908 13.509 13.908 4.446 0 8.607-2.109 10.602-5.757v5.187h3.648v-26.619h-3.648Zm-10.317 23.712c-5.586 0-10.146-4.56-10.146-10.488 0-5.871 4.56-10.317 10.146-10.317 5.301 0 10.317 4.047 10.317 10.488 0 6.156-4.788 10.317-10.317 10.317Zm22.529 2.907h3.648v-41.61h-3.648v41.61Zm37.029-13.395c0-8.436-5.529-13.794-13.11-13.794-7.524 0-13.566 5.358-13.566 13.794s6.042 13.965 13.566 13.965c5.016 0 9.576-2.394 11.913-6.669l-3.135-1.368c-1.767 2.907-5.016 4.56-8.664 4.56-5.358 0-9.348-3.192-9.975-8.892h22.914c.057-.513.057-1.083.057-1.596Zm-22.914-1.539c.684-5.7 4.56-8.778 9.804-8.778 5.187 0 9.006 3.249 9.519 8.778H74.646Zm36.967 15.504c5.529 0 9.804-3.021 9.804-7.752 0-3.078-1.596-6.213-6.783-7.467l-3.933-.969c-1.938-.456-4.104-1.539-4.104-4.047s2.109-4.275 5.187-4.275c2.622 0 4.959 1.596 5.13 3.99h3.534c-.171-4.788-4.275-7.239-8.721-7.239-5.073 0-8.778 3.135-8.778 7.467 0 4.446 3.021 6.384 6.783 7.296l3.819.912c2.736.684 4.218 2.109 4.218 4.275 0 2.679-2.337 4.56-6.156 4.56-3.876 0-5.928-2.28-6.327-4.503h-3.363c.456 5.073 5.073 7.752 9.69 7.752ZM132.353 207.045a16.677 16.677 0 0 1 10.651-14.947 16.679 16.679 0 0 1 17.936 3.889l-2.651 2.268a12.745 12.745 0 0 0-21.937 8.823 12.746 12.746 0 0 0 7.988 11.822 12.735 12.735 0 0 0 13.949-2.999l2.701 2.202a16.59 16.59 0 0 1-18.023 4.066 16.597 16.597 0 0 1-10.614-15.124ZM179.588 210.531l9.089 12.192h-4.403l-8.906-12.192h-5.004v12.192h-3.669v-31.539h12.392c6.989 0 9.757 4.853 9.757 9.757a8.945 8.945 0 0 1-2.489 6.859 8.958 8.958 0 0 1-6.767 2.731Zm-9.29-3.219h8.005c5.004 0 6.872-2.869 6.872-6.371a5.941 5.941 0 0 0-1.647-4.617 5.937 5.937 0 0 0-4.557-1.805h-8.673v12.793ZM229.654 222.723l-3.335-24.885-11.208 21.549h-3.219l-11.325-21.682-3.336 25.018h-3.602l4.119-31.539h3.336l12.359 24.317 12.342-24.317h3.336l4.119 31.539h-3.586Z"/><path fill="#323338" fill-rule="evenodd" d="M217.057 133.469h-8.937l-6.265 15.971-6.233-15.971h-8.937l10.869 25.237-6.762 16.682h8.874l17.391-41.919Zm-53.478 14.084c0 4.149 3.558 6.876 7.054 6.876 3.437 0 6.811-2.538 6.811-6.876 0-4.337-3.374-6.879-6.811-6.879-3.496 0-7.054 2.731-7.054 6.879Zm13.601 14.188v-3.213c-1.778 2.73-5.933 3.762-8.066 3.762-7.058 0-14.119-5.639-14.119-14.737 0-9.099 7.057-14.738 14.119-14.738 1.778 0 5.933.605 8.066 3.762v-3.146h8.186v28.313l-8.186-.003Zm-24.827-.063h-8.184v-3.531c-1.367 2.618-4.683 4.142-8.125 4.142-7.117 0-13.403-5.785-13.403-14.744 0-9.126 6.286-14.918 13.403-14.918 3.439 0 6.761 1.46 8.125 4.079V117.75h8.184v43.928Zm-7.924-14.187c0-4.297-3.118-6.817-6.603-6.817-3.607 0-6.602 2.701-6.602 6.817 0 4.248 2.995 6.938 6.602 6.938 3.548.003 6.603-2.821 6.603-6.938Zm-41.932-.78c0-4.29 2.197-5.739 5.105-5.739 2.789 0 4.807 1.874 4.807 5.617v15.046h8.25v-16.857c0-8.034-3.918-11.963-10.152-11.963-3.264 0-6.528 1.874-8.013 4.712v-4.102h-8.246v28.21h8.249v-14.924Zm-25.441 15.575c-7.905 0-14.498-5.83-14.498-14.763s6.586-14.708 14.498-14.708c7.912 0 14.553 5.771 14.553 14.708 0 8.936-6.648 14.767-14.553 14.767v-.004Zm.329-8.516c3.446 0 6.3-2.583 6.3-6.577 0-3.874-2.854-6.518-6.3-6.518a6.041 6.041 0 0 0-4.465 1.881 6.469 6.469 0 0 0-1.777 4.637c.003 3.997 2.853 6.581 6.242 6.581v-.004Zm-29.626-12.791c2.443 0 4.591 1.933 4.591 5.616v15.04h8.227V145.62c0-8.515-4.124-12.805-10.732-12.805-1.966 0-5.664.603-8.347 5.014-1.55-3.262-4.53-4.954-8.935-4.954-3.113-.023-5.953 1.794-7.271 4.651v-4.094H17v28.199h8.285v-14.918c0-4.289 2.326-5.737 4.828-5.737 2.385 0 4.529 1.873 4.591 5.434v15.221h8.285v-14.918c0-4.101 2.148-5.734 4.77-5.734Z" clip-rule="evenodd"/><defs><linearGradient id="a" x1="51.212" x2="130.217" y1="18.586" y2="59.11" gradientUnits="userSpaceOnUse"><stop stop-color="#00D2D2"/><stop offset="1" stop-color="#00D2D2" stop-opacity=".29"/></linearGradient><linearGradient id="b" x1="135.397" x2="61.206" y1="70.497" y2="54.983" gradientUnits="userSpaceOnUse"><stop stop-color="#00A0A0"/><stop offset="1" stop-color="#00D2D2"/></linearGradient></defs></svg>