<svg xmlns="http://www.w3.org/2000/svg" fill="none" viewBox="0 0 1024 1025"><g clip-path="url(#a)"><rect width="1024" height="1024" y=".828" fill="#fff" rx="196.923"/><path fill="#fff" d="M752.246 292.275c0 21.752-17.633 39.385-39.385 39.385-21.751 0-39.384-17.633-39.384-39.385 0-21.751 17.633-39.384 39.384-39.384 21.752 0 39.385 17.633 39.385 39.384Z"/><path fill="url(#b)" d="M0 .828h1024v1024H0z"/><g filter="url(#c)"><path fill="url(#d)" d="M0 .828h1024v1024H0z" shape-rendering="crispEdges"/></g><path fill="#fff" d="M302.409 281.91h98.389c.268 63.455-.064 126.596.182 189.737.708.094 1.405.178 2.112.272 1.533-4.121 3.152-8.211 4.578-12.364 10.4-30.474 21.989-60.487 36.913-89.158 11.215-21.55 24.091-42.031 41.32-59.575 16.682-16.989 35.991-29.951 60.21-33.831 44.654-7.162 82.672 4.793 112.187 39.189 16.307 19.002 26.61 41.213 34.651 64.504 11.118 32.216 17.24 65.501 21.411 99.153 8.105 65.29 8.909 130.906 8.662 196.553-.096 24.068-.01 48.135-.01 71.992-8.041 2.412-80.313 3.146-98.657 1.028-.215-3.755-.601-7.781-.643-11.798-.536-55.852-.376-111.715-1.716-167.557-1.104-46.069-4.149-92.106-14.827-137.209-3.12-13.182-7.569-26.207-12.962-38.665-3.388-7.834-8.792-15.29-14.817-21.498-11.922-12.28-29.205-13.79-44.107-5.076-9.703 5.663-16.972 13.812-23.426 22.683-13.326 18.331-22.836 38.623-31.456 59.345-19.931 47.914-34.812 97.464-48.706 147.266-13.338 47.777-25.785 95.786-38.64 143.689-.815 3.031-1.704 6.041-2.712 9.617h-87.528c-2.134-7.372-2.681-455.011-.408-468.297Z"/></g><defs><linearGradient id="b" x1="-114.215" x2="599.023" y1="-140.956" y2="793.444" gradientUnits="userSpaceOnUse"><stop offset=".047" stop-color="#7300CD"/><stop offset="1" stop-color="#FF7466"/></linearGradient><linearGradient id="d" x1="35.446" x2="1109.27" y1="997.259" y2="-52.769" gradientUnits="userSpaceOnUse"><stop offset=".102" stop-color="#FF7466"/><stop offset=".344" stop-color="#FF7466" stop-opacity=".24"/><stop offset=".516" stop-color="#390066" stop-opacity=".21"/><stop offset=".919" stop-color="#151583" stop-opacity=".85"/></linearGradient><clipPath id="a"><rect width="1024" height="1024" y=".828" fill="#fff" rx="180"/></clipPath><filter id="c" width="1524" height="1524" x="-250" y="-150.71" color-interpolation-filters="sRGB" filterUnits="userSpaceOnUse"><feFlood flood-opacity="0" result="BackgroundImageFix"/><feColorMatrix in="SourceAlpha" result="hardAlpha" values="0 0 0 0 0 0 0 0 0 0 0 0 0 0 0 0 0 0 127 0"/><feOffset dy="98.462"/><feGaussianBlur stdDeviation="125"/><feComposite in2="hardAlpha" operator="out"/><feColorMatrix values="0 0 0 0 0 0 0 0 0 0 0 0 0 0 0 0 0 0 0.1 0"/><feBlend in2="BackgroundImageFix" result="effect1_dropShadow_7271_115731"/><feBlend in="SourceGraphic" in2="effect1_dropShadow_7271_115731" result="shape"/></filter></defs></svg>