<svg xmlns="http://www.w3.org/2000/svg" data-name="Layer 2" viewBox="0 0 256 256"><g data-name="Layer 1"><rect width="256" height="256" rx="24" ry="24" style="fill:#002942"/><path d="M176.32 73.8c9.27 9.55 13.92 23.71 13.92 42.48v73.5h-35.31v-67.77c0-10.18-2.12-17.78-6.34-22.79-4.22-5.01-10.33-7.51-18.33-7.51-8.9 0-16 2.9-21.28 8.7-5.29 5.81-7.92 14.44-7.92 25.9v63.48h-35.3V72.13l33.73-16.1v20.41c4.67-5.41 10.48-9.59 17.42-12.53 6.94-2.95 14.56-4.42 22.86-4.42 15.08 0 27.27 4.78 36.55 14.31" style="fill:#fff"/></g></svg>