<svg xmlns="http://www.w3.org/2000/svg" viewBox="0 0 31 31"><path fill="#0C9BD7" d="M12.9 7.017a5.432 5.432 0 0 1 3.931-1.688c2.046 0 3.832 1.141 4.782 2.835a6.615 6.615 0 0 1 2.703-.575c3.691 0 6.683 3.018 6.683 6.742s-2.992 6.742-6.683 6.742c-.451 0-.891-.045-1.317-.131a4.884 4.884 0 0 1-6.401 2.01A5.574 5.574 0 0 1 6.236 22.7a5.107 5.107 0 0 1-1.064.111C2.317 22.812 0 20.471 0 17.584a5.238 5.238 0 0 1 2.587-4.529 6.017 6.017 0 0 1 5.526-8.404c1.952 0 3.687.928 4.787 2.366z"/><g fill="#FFF"><path d="M4.49 15.903c-.02.051.007.061.013.07.058.042.117.073.177.107.316.167.615.217.927.217.636 0 1.031-.338 1.031-.882v-.011c0-.503-.446-.686-.864-.818l-.054-.018c-.315-.102-.587-.191-.587-.398v-.011c0-.178.159-.308.405-.308.274 0 .599.091.808.207 0 0 .062.04.084-.02l.129-.348c.012-.033-.009-.058-.031-.072a1.806 1.806 0 0 0-.911-.245h-.063c-.582 0-.988.352-.988.856v.011c0 .531.448.703.868.823l.067.021c.306.094.57.175.57.39v.011c0 .197-.172.343-.448.343-.107 0-.449-.002-.819-.236-.045-.026-.07-.045-.105-.066-.018-.011-.064-.031-.084.029l-.125.348zm9.309 0c-.02.051.007.061.013.07.058.042.117.073.177.107.316.167.615.217.927.217.636 0 1.031-.338 1.031-.882v-.011c0-.503-.446-.686-.864-.818l-.055-.018c-.315-.102-.587-.191-.587-.398v-.011c0-.178.159-.308.406-.308.274 0 .599.091.808.207 0 0 .062.04.084-.02l.129-.348c.012-.033-.009-.058-.031-.072a1.806 1.806 0 0 0-.911-.245h-.063c-.582 0-.988.352-.988.856v.011c0 .531.448.703.868.823l.067.021c.306.094.57.175.57.39v.011c0 .197-.172.343-.448.343-.107 0-.449-.002-.819-.236-.045-.026-.071-.044-.105-.066-.012-.007-.065-.028-.084.029l-.125.348zm6.886-1.637a1.278 1.278 0 0 0-.242-.461 1.162 1.162 0 0 0-.408-.31 1.335 1.335 0 0 0-.569-.114c-.215 0-.407.038-.569.114a1.18 1.18 0 0 0-.65.771 2.003 2.003 0 0 0-.078.57c0 .204.026.395.078.57.052.176.133.331.242.461.108.13.246.234.408.307.162.074.354.111.569.111.215 0 .406-.038.569-.111.162-.074.299-.177.408-.307.108-.13.189-.285.242-.461.052-.175.078-.367.078-.57 0-.203-.026-.395-.078-.57m-.531.571c0 .308-.057.55-.17.721-.112.17-.281.252-.517.252s-.404-.082-.514-.252c-.111-.171-.168-.414-.168-.722 0-.307.056-.549.168-.719.11-.168.279-.25.514-.25.236 0 .405.082.517.25.113.17.17.412.17.72"/><path fill-rule="evenodd" d="M25.044 15.728c-.017-.052-.068-.032-.068-.032-.077.03-.159.057-.247.07a1.868 1.868 0 0 1-.291.021c-.257 0-.461-.077-.607-.227-.146-.151-.229-.395-.228-.726.001-.3.074-.526.204-.699.129-.171.326-.259.589-.259.219 0 .386.025.561.08 0 0 .042.018.061-.037.047-.129.081-.221.131-.363.014-.04-.02-.058-.033-.063a2.011 2.011 0 0 0-.354-.089 2.747 2.747 0 0 0-.398-.027c-.223 0-.422.038-.592.114a1.226 1.226 0 0 0-.685.771 1.823 1.823 0 0 0-.087.572c0 .44.119.796.353 1.057.235.262.588.394 1.048.394.272 0 .551-.055.752-.134 0 0 .038-.018.022-.063l-.131-.36zm2.716-1.562a1.126 1.126 0 0 0-.23-.421 1.06 1.06 0 0 0-.341-.26 1.305 1.305 0 0 0-.515-.104c-.224 0-.428.038-.593.115a1.2 1.2 0 0 0-.657.783c-.052.177-.079.37-.079.573 0 .207.027.4.082.574.055.175.142.329.26.457.118.128.27.229.452.299.181.07.4.106.652.106.519-.002.792-.117.905-.18.02-.011.039-.03.015-.086l-.118-.329c-.018-.049-.068-.031-.068-.031-.129.048-.311.134-.738.133-.278-.001-.485-.083-.615-.211-.133-.131-.198-.325-.209-.598l1.796.001s.047-.001.052-.047a1.861 1.861 0 0 0-.051-.774zm-1.787.376a1.04 1.04 0 0 1 .145-.424c.11-.168.278-.261.514-.261a.56.56 0 0 1 .504.261c.074.111.106.259.119.424h-1.282zm-12.603-.376a1.126 1.126 0 0 0-.23-.421 1.06 1.06 0 0 0-.341-.26 1.31 1.31 0 0 0-.515-.104c-.224 0-.428.038-.593.115a1.2 1.2 0 0 0-.657.783c-.052.177-.079.37-.079.573 0 .207.027.4.082.574.055.175.142.329.26.457.118.128.27.229.452.299.181.07.4.106.652.106.519-.002.792-.117.905-.18.02-.011.039-.03.015-.086l-.117-.329c-.018-.049-.068-.031-.068-.031-.129.048-.311.134-.738.133-.278-.001-.485-.083-.615-.211-.133-.131-.198-.325-.209-.598l1.796.001s.047-.001.052-.047c.003-.019.063-.369-.052-.774zm-1.787.376a1.04 1.04 0 0 1 .145-.424c.11-.168.278-.261.514-.261a.56.56 0 0 1 .504.261c.074.111.106.259.119.424h-1.282z" clip-rule="evenodd"/><path d="M8.414 14.456a4.223 4.223 0 0 0-.281-.008c-.154 0-.303.019-.442.057-.14.038-.267.096-.375.174a.874.874 0 0 0-.261.296.864.864 0 0 0-.096.414c0 .159.028.297.082.41a.752.752 0 0 0 .234.281c.1.073.223.126.366.159.141.032.301.049.476.049.184 0 .368-.015.546-.045.176-.03.393-.074.452-.088.06-.014.126-.032.126-.032.045-.011.041-.059.041-.059V14.42c0-.361-.096-.627-.286-.793-.189-.165-.466-.248-.825-.248-.135 0-.352.018-.482.044 0 0-.392.076-.554.203 0 0-.035.022-.016.071l.127.342c.016.044.059.029.059.029s.014-.005.03-.015c.346-.188.783-.182.783-.182.194 0 .344.039.444.116.098.075.148.189.148.428v.076a5.271 5.271 0 0 0-.296-.035zm-.715 1.262a.36.36 0 0 1-.104-.107.429.429 0 0 1-.054-.234c0-.158.052-.271.16-.348 0 0 .155-.134.521-.13.257.003.488.041.488.041v.817s-.228.049-.485.064c-.365.024-.527-.103-.526-.103z"/><path fill-rule="evenodd" d="M22.906 13.53a.049.049 0 0 0-.027-.065 1.53 1.53 0 0 0-.301-.051.883.883 0 0 0-.463.075.81.81 0 0 0-.304.224v-.219c0-.03-.021-.054-.052-.054h-.461c-.03 0-.051.024-.051.054v2.68c0 .03.024.054.054.054h.472c.03 0 .054-.024.054-.054v-1.339c0-.18.02-.359.059-.472a.666.666 0 0 1 .158-.264.543.543 0 0 1 .222-.133.855.855 0 0 1 .438-.01c.035.004.054-.017.066-.048.032-.083.119-.329.136-.378zm-4.431-1.242a1.44 1.44 0 0 0-.422-.061c-.325 0-.581.092-.761.273-.179.18-.3.454-.361.815l-.022.122h-.408s-.05-.002-.06.052l-.067.374c-.005.036.011.058.059.058h.397l-.403 2.249c-.031.181-.068.33-.108.443a.952.952 0 0 1-.125.256.33.33 0 0 1-.164.127.66.66 0 0 1-.211.03.784.784 0 0 1-.144-.016c-.043-.008-.065-.018-.097-.032 0 0-.047-.018-.065.029-.015.038-.121.329-.133.365-.013.036.005.064.028.072.053.019.092.031.164.048.1.024.184.025.263.025.165 0 .316-.023.441-.068a.823.823 0 0 0 .332-.232 1.21 1.21 0 0 0 .234-.402 3.51 3.51 0 0 0 .158-.604l.405-2.29h.592s.05.002.06-.052l.067-.374c.005-.036-.011-.058-.059-.058h-.574c.003-.013.029-.215.095-.405a.522.522 0 0 1 .126-.192.38.38 0 0 1 .15-.094.718.718 0 0 1 .341-.013c.056.012.077.018.092.022.059.018.066.001.078-.028l.137-.377c.012-.04-.022-.057-.035-.062zm-8.027 3.886c0 .03-.021.054-.052.054H9.92a.052.052 0 0 1-.052-.054v-3.835c0-.03.021-.054.052-.054h.477c.03 0 .052.024.052.054v3.835z" clip-rule="evenodd"/></g></svg>