<svg xmlns="http://www.w3.org/2000/svg" xml:space="preserve" id="Layer_1" x="0" y="0" style="enable-background:new 0 0 620 202" version="1.1" viewBox="0 0 620 202"><style>.st2{fill:#fff}</style><path d="M60.477 10.833a20.209 20.209 0 0 0-14.271 5.909L15.614 47.334a20.205 20.205 0 0 0-5.909 14.271v129.402l549.167-.322a20.209 20.209 0 0 0 14.271-5.909l30.25-30.25a20.205 20.205 0 0 0 5.909-14.271l.02-129.423-548.845.001z" style="fill:#00d15f"/><path d="m9.707 74.743.063 116.214 204.856-.122s22.773 1.045 40.481-2.874c32.542-7.196 51.918-20.984 76.138-45.204 40.863-40.863 132.376-132.095 132.376-132.095l-200.358.023-138.02 137.457s-8.819 9.86-20.741 9.866c-8.919.004-14.019-3.598-20.663-9.742-1.951-1.804-74.132-73.472-74.132-73.523z" style="opacity:.25;fill:#fff;enable-background:new"/><path d="m96.629 144.646-41.426-86.51h18.673s29.607 61.927 30.331 65.063h.362c.744-3.136 30.331-65.063 30.331-65.063h18.854l-41.426 86.51H96.629zM233.991 108.024h-67.093c2.412 14.05 12.743 22.914 26.069 22.914 10.914 0 18.11-4.261 21.808-12.201h17.366c-5.186 16.442-20.14 27.718-39.195 27.718-25.145 0-43.617-18.291-43.617-45.104 0-26.612 18.11-45.104 43.617-45.104 22.733 0 41.406 19.416 41.406 45.104.001 2.592.001 4.08-.361 6.673zm-66.912-14.05h49.727c-1.105-11.839-10.713-22.17-23.838-22.17-13.326-.02-23.316 8.683-25.889 22.17zM326.028 108.024h-67.093c2.412 14.05 12.743 22.914 26.069 22.914 10.914 0 18.11-4.261 21.808-12.201h17.366c-5.186 16.442-20.14 27.718-39.195 27.718-25.145 0-43.617-18.291-43.617-45.104 0-26.612 18.11-45.104 43.617-45.104 22.733 0 41.406 19.416 41.406 45.104.001 2.592.001 4.08-.361 6.673zm-66.912-14.05h49.727c-1.105-11.839-10.713-22.17-23.838-22.17-13.326-.02-23.296 8.683-25.889 22.17zM420.116 101.371v43.255h-14.974l-1.487-13.487c-6.653 9.99-18.291 15.336-28.843 15.336-23.657 0-41.587-18.854-41.587-45.104 0-25.868 19.215-45.104 43.797-45.104 22.572 0 43.094 16.26 43.094 45.104zm-17.025 0c0-19.035-12.562-29.567-26.069-29.567-14.793 0-26.793 11.839-26.793 29.567 0 17.748 11.095 29.567 26.793 29.567 13.326 0 26.069-11.096 26.069-29.567zM431.573 144.625V93.431c0-21.627 13.869-37.144 35.496-37.144 17.366 0 26.612 11.638 27.919 15.718h.362c1.286-4.06 10.532-15.718 27.919-15.718 21.627 0 35.496 15.517 35.496 37.144v51.194H541.76V94.718c0-14.05-6.291-22.552-19.034-22.552-12.763 0-19.035 8.502-19.035 22.914v49.727h-17.004V95.079c0-14.412-6.291-22.914-19.035-22.914-12.743 0-19.035 8.502-19.035 22.552v49.908h-17.044z" class="st2"/></svg>