<svg xmlns="http://www.w3.org/2000/svg" xml:space="preserve" id="Layer_1" x="0" y="0" style="enable-background:new 0 0 400 400" version="1.1" viewBox="0 0 400 400"><style>.st2{fill:#fff}</style><path d="M0 0h400v400H0z" style="fill:none"/><linearGradient id="SVGID_1_" x1="43.301" x2="356.699" y1="43.301" y2="356.699" gradientUnits="userSpaceOnUse"><stop offset="0" style="stop-color:#d41d24"/><stop offset="1" style="stop-color:#ab2328"/></linearGradient><path d="M340.2 364H59.8c-12.2 0-22.3-10-22.3-22.3V58.3C37.5 46 47.5 36 59.8 36h280.5c12.2 0 22.3 10 22.3 22.3v283.4c-.1 12.3-10.1 22.3-22.4 22.3z" style="fill:url(#SVGID_1_)"/><path d="M164.4 189.5c0-1.8 1.4-3.2 3.2-3.2h13.9c2.1 0 4.2 1.3 5 3.4 1.1 2.8-.3 5.8-3.1 6.9l-10.8 4c-3.9 1.3-6 5.6-4.6 9.5.7 2 2.2 3.6 4 4.4l20.1 9.1v-7l-17.6-7.8c-.3-.1-.6-.4-.7-.8-.2-.7.1-1.4.8-1.6l11-3.8c6.1-2.3 9.1-9.1 6.8-15.2-1.8-4.7-6.2-7.5-11-7.5h-13.9c-5.3 0-9.6 4.3-9.6 9.6v33.1h6.4l.1-33.1zM199.7 179.9h6.4v42.7h-6.4zM111.3 179.9l-11.5 35.6c-.1.5-.6.7-1 .7-.5 0-.8-.3-1-.7l-11.5-35.6h-6.7l12.1 37.5c1 3.1 3.9 5.2 7.1 5.2 3.2 0 6.1-2 7.1-5.2l12.1-37.5h-6.7zM244.6 222.7l11.5-35.6c.1-.5.6-.7 1-.7s.8.3 1 .7l11.5 35.6h6.7l-12.1-37.5c-1-3.1-3.9-5.2-7.1-5.2-3.2 0-6.1 2-7.1 5.2l-12.1 37.5h6.7zM131.1 186.3h20.3v-6.4h-20.3c-5.9 0-10.7 4.8-10.7 10.7V212c0 5.9 4.8 10.7 10.7 10.7h20.3v-6.4h-20.3c-2.4 0-4.3-1.9-4.3-4.3v-7.5h20.3v-6.3h-20.3v-7.5c.1-2.4 2-4.4 4.3-4.4zM242.6 179.9h-31.2v6.4h12.4v36.4h6.4v-36.4h12.4zM300.1 222.7c6.8 0 12.3-5.5 12.3-12.3 0-6.8-5.5-12.3-12.3-12.3h-10.7c-3.2 0-5.9-2.6-5.9-5.9 0-3.2 2.6-5.9 5.9-5.9h20.8v-6.4h-20.8c-6.8 0-12.3 5.5-12.3 12.3 0 6.8 5.5 12.3 12.3 12.3h10.7c3.2 0 5.9 2.6 5.9 5.9 0 3.2-2.6 5.9-5.9 5.9h-20.8v6.4h20.8zM313.9 179.9h-.6v-2.6h-.9v-.5h2.4v.5h-.9v2.6zm2.9-.7.2-.6.7-1.8h.6v3.1h-.5v-2l-.2.4-.6 1.6h-.5l-.6-1.6-.2-.4v2h-.5v-3.1h.6l.7 1.8.3.6z" class="st2"/></svg>