<svg xmlns="http://www.w3.org/2000/svg" id="Mark_s_List" data-name="Mark's List" viewBox="0 0 100 100"><defs><style>.cls-2{fill:#fff}</style></defs><g id="Xero"><path fill="#00b7e2" d="M50 100A50 50 0 1 0 0 50a50 50 0 0 0 50 50"/><path d="M23.9 49.9l8.5-8.6a1.5 1.5 0 1 0-2.2-2.1l-8.5 8.5-8.6-8.5a1.5 1.5 0 0 0-2.6 1.1 1.5 1.5 0 0 0 .5 1.1l8.5 8.5-8.5 8.5a1.5 1.5 0 1 0 2.1 2.2l8.7-8.6 8.5 8.5a1.5 1.5 0 1 0 2.2-2.1zM74.7 49.9a2.8 2.8 0 1 0 2.8-2.8 2.8 2.8 0 0 0-2.8 2.8" class="cls-2"/><path d="M69.4 49.9a8 8 0 1 1 8 8 8.1 8.1 0 0 1-8-8m-3.2 0a11.2 11.2 0 1 0 11.2-11.3 11.2 11.2 0 0 0-11.2 11.3M65.4 38.8H65a6.3 6.3 0 0 0-3.9 1.3 1.5 1.5 0 0 0-1.5-1.1 1.5 1.5 0 0 0-1.6 1.5v18.9a1.5 1.5 0 0 0 3.1 0V47.7c0-3.9.4-5.4 3.7-5.8h.6a1.5 1.5 0 0 0 1.6-1.5 1.5 1.5 0 0 0-1.5-1.5M36.1 48a8.1 8.1 0 0 1 15.7.1H36.1zm18.9-.3a11.2 11.2 0 0 0-5-7.3 11.2 11.2 0 0 0-17.2 9.5 11 11 0 0 0 .3 2.7 11.3 11.3 0 0 0 9.5 8.4 10.7 10.7 0 0 0 4-.3 11.1 11.1 0 0 0 3.4-1.4 12 12 0 0 0 2.9-2.7h.1a1.7 1.7 0 0 0-.2-2.3 1.5 1.5 0 0 0-2.3.3l-.5.7a8.8 8.8 0 0 1-2.3 1.7 8 8 0 0 1-3.7 1 8.2 8.2 0 0 1-7.7-5.4 8.1 8.1 0 0 1-.3-1.3v-.2h16c2.2 0 3.4-1.6 3-3.4" class="cls-2"/></g></svg>