<svg xmlns="http://www.w3.org/2000/svg" fill="none" viewBox="0 0 800 800"><path fill="url(#a)" d="M0 0h800v800H0V0Z"/><path fill="#fff" d="M238.769 461.231h-98.461c-6.462 0-12.616-3.385-15.693-9.231-3.384-6.769-2.154-14.769 3.077-20l68.616-68.615h-49.231c-13.539 0-24.616-11.077-24.616-24.616h91.077c6.462 0 12.616 3.385 15.693 9.231 3.384 6.769 2.154 14.769-3.077 20l-68.616 68.615h56.923c13.539 0 24.308 11.077 24.308 24.616Zm391.077-124.308c-14.154 0-26.769 6.154-35.692 16-8.616-9.846-21.539-16-35.693-16-26.153 0-47.692 22.462-47.692 48.615v75.693c13.539 0 24.616-11.077 24.616-24.616v-51.384c0-12.616 9.846-23.385 22.461-23.693 13.231-.615 24.308 10.154 24.308 23.385v52c0 13.539 11.077 24.615 24.615 24.615v-76c0-12.615 9.846-23.384 22.462-23.692 13.23-.615 24.307 10.154 24.307 23.385v52c0 13.538 11.077 24.615 24.616 24.615v-75.692c-.616-26.769-22.154-49.231-48.308-49.231ZM362.769 400c0 34.769-28.308 63.077-63.077 63.077S236.615 434.769 236.615 400s28.308-63.077 63.077-63.077 63.077 28.308 63.077 63.077Zm-24.615 0c0-21.231-17.231-38.462-38.462-38.462S261.231 378.769 261.231 400s17.23 38.462 38.461 38.462c21.231 0 38.462-17.231 38.462-38.462Zm160.615 0c0 34.769-28.308 63.077-63.077 63.077S372.615 434.769 372.615 400s28.308-63.077 63.077-63.077 63.077 28.308 63.077 63.077Zm-24.615 0c0-21.231-17.231-38.462-38.462-38.462S397.231 378.769 397.231 400s17.23 38.462 38.461 38.462c21.231 0 38.462-17.231 38.462-38.462Z"/><defs><linearGradient id="a" x1="126.795" x2="673.205" y1="873.205" y2="-73.205" gradientUnits="userSpaceOnUse"><stop stop-color="#0845BF"/><stop offset=".5" stop-color="#0B5CFF"/><stop offset=".612" stop-color="#1463FD"/><stop offset=".795" stop-color="#2C76F7"/><stop offset="1" stop-color="#4F90EE"/></linearGradient></defs></svg>