<?xml version="1.0" encoding="UTF-8"?>
<!DOCTYPE svg PUBLIC "-//W3C//DTD SVG 1.1//EN" "http://www.w3.org/Graphics/SVG/1.1/DTD/svg11.dtd">
<svg xmlns="http://www.w3.org/2000/svg" version="1.1" width="556px" height="307px" style="shape-rendering:geometricPrecision; text-rendering:geometricPrecision; image-rendering:optimizeQuality; fill-rule:evenodd; clip-rule:evenodd" xmlns:xlink="http://www.w3.org/1999/xlink">
<g><path style="opacity:0.064" fill="#faf7f8" d="M -0.5,-0.5 C 1.16667,-0.5 2.83333,-0.5 4.5,-0.5C 4.35055,0.551975 4.51722,1.55198 5,2.5C 11.1424,9.63588 16.4758,17.3026 21,25.5C 25.3489,34.1978 29.6822,42.8644 34,51.5C 44.9492,80.0016 56.1159,108.502 67.5,137C 69.6857,140.18 72.6857,142.18 76.5,143C 128.956,143.237 179.289,153.237 227.5,173C 256.713,184.773 284.379,199.439 310.5,217C 321.032,219.453 331.699,219.953 342.5,218.5C 371.4,217.729 399.733,221.229 427.5,229C 451.484,236.878 474.484,246.878 496.5,259C 516.861,272.523 536.527,287.023 555.5,302.5C 555.5,303.833 555.5,305.167 555.5,306.5C 553.833,306.5 552.167,306.5 550.5,306.5C 483.528,242.737 403.528,214.403 310.5,221.5C 307.003,218.917 303.336,216.584 299.5,214.5C 262.867,190.851 223.534,173.184 181.5,161.5C 175.137,158.883 168.471,156.883 161.5,155.5C 151.241,153.449 140.907,151.782 130.5,150.5C 120.084,148.345 109.417,147.345 98.5,147.5C 88.9162,146.527 79.2496,146.194 69.5,146.5C 64.52,138.547 60.02,130.214 56,121.5C 44.8574,88.4006 31.1908,56.4006 15,25.5C 10.3056,17.4223 5.13889,9.7556 -0.5,2.5C -0.5,1.5 -0.5,0.5 -0.5,-0.5 Z"/></g>
<g><path style="opacity:0.999" fill="#312b39" d="M -0.5,2.5 C 5.13889,9.7556 10.3056,17.4223 15,25.5C 31.1908,56.4006 44.8574,88.4006 56,121.5C 60.02,130.214 64.52,138.547 69.5,146.5C 84.6484,171.815 104.982,191.981 130.5,207C 142.136,213.71 154.47,218.544 167.5,221.5C 180.383,225.627 193.716,227.627 207.5,227.5C 226.329,228.662 245.329,228.829 264.5,228C 265.571,227.148 266.571,226.315 267.5,225.5C 268.167,225.5 268.833,225.5 269.5,225.5C 281.843,225.298 294.176,224.798 306.5,224C 308.058,223.79 309.391,223.29 310.5,222.5C 310.5,222.167 310.5,221.833 310.5,221.5C 403.528,214.403 483.528,242.737 550.5,306.5C 366.833,306.5 183.167,306.5 -0.5,306.5C -0.5,205.167 -0.5,103.833 -0.5,2.5 Z"/></g>
<g><path style="opacity:0.588" fill="#dd868f" d="M 98.5,147.5 C 109.417,147.345 120.084,148.345 130.5,150.5C 119.623,150.225 108.956,149.225 98.5,147.5 Z"/></g>
<g><path style="opacity:0.999" fill="#e86f7e" d="M 69.5,146.5 C 79.2496,146.194 88.9162,146.527 98.5,147.5C 108.956,149.225 119.623,150.225 130.5,150.5C 140.907,151.782 151.241,153.449 161.5,155.5C 161.5,156.5 161.5,157.5 161.5,158.5C 168.295,158.654 174.962,159.654 181.5,161.5C 223.534,173.184 262.867,190.851 299.5,214.5C 300.763,216.43 302.43,218.097 304.5,219.5C 282.116,221.915 259.783,224.081 237.5,226C 214.108,226.163 190.775,224.663 167.5,221.5C 154.47,218.544 142.136,213.71 130.5,207C 104.982,191.981 84.6484,171.815 69.5,146.5 Z"/></g>
<g><path style="opacity:0.706" fill="#de8791" d="M 161.5,155.5 C 168.471,156.883 175.137,158.883 181.5,161.5C 174.962,159.654 168.295,158.654 161.5,158.5C 161.5,157.5 161.5,156.5 161.5,155.5 Z"/></g>
<g><path style="opacity:0.996" fill="#4e2837" d="M 310.5,222.5 C 309.391,223.29 308.058,223.79 306.5,224C 294.176,224.798 281.843,225.298 269.5,225.5C 282.963,223.757 296.63,222.757 310.5,222.5 Z"/></g>
<g><path style="opacity:1" fill="#d47280" d="M 299.5,214.5 C 303.336,216.584 307.003,218.917 310.5,221.5C 310.5,221.833 310.5,222.167 310.5,222.5C 296.63,222.757 282.963,223.757 269.5,225.5C 268.833,225.5 268.167,225.5 267.5,225.5C 247.533,227.023 227.533,227.69 207.5,227.5C 193.716,227.627 180.383,225.627 167.5,221.5C 190.775,224.663 214.108,226.163 237.5,226C 259.783,224.081 282.116,221.915 304.5,219.5C 302.43,218.097 300.763,216.43 299.5,214.5 Z"/></g>
<g><path style="opacity:1" fill="#4e2d3b" d="M 267.5,225.5 C 266.571,226.315 265.571,227.148 264.5,228C 245.329,228.829 226.329,228.662 207.5,227.5C 227.533,227.69 247.533,227.023 267.5,225.5 Z"/></g>
</svg>
