<?xml version="1.0" encoding="UTF-8"?>
<!DOCTYPE svg PUBLIC "-//W3C//DTD SVG 1.1//EN" "http://www.w3.org/Graphics/SVG/1.1/DTD/svg11.dtd">
<svg xmlns="http://www.w3.org/2000/svg" version="1.1" width="196px" height="319px" style="shape-rendering:geometricPrecision; text-rendering:geometricPrecision; image-rendering:optimizeQuality; fill-rule:evenodd; clip-rule:evenodd" xmlns:xlink="http://www.w3.org/1999/xlink">
<g><path style="opacity:0.06" fill="#fcf9fa" d="M 190.5,-0.5 C 192.167,-0.5 193.833,-0.5 195.5,-0.5C 195.5,-0.166667 195.5,0.166667 195.5,0.5C 165.147,30.5692 142.814,65.9025 128.5,106.5C 121.739,110.896 115.739,116.229 110.5,122.5C 81.3248,147.507 58.8248,177.507 43,212.5C 39.4514,221.311 36.6181,230.311 34.5,239.5C 31.9834,248.229 30.15,257.229 29,266.5C 28.5001,278.829 28.3335,291.162 28.5,303.5C 20.128,309.019 11.4613,314.019 2.5,318.5C 1.5,318.5 0.5,318.5 -0.5,318.5C -0.5,318.167 -0.5,317.833 -0.5,317.5C 7.16234,312.698 14.9957,308.031 23,303.5C 24.6391,298.075 24.8057,292.575 23.5,287C 24.0517,245.248 36.2183,207.414 60,173.5C 60.346,171.782 60.846,170.115 61.5,168.5C 71.8184,156.847 82.1517,145.18 92.5,133.5C 101.884,123.947 111.717,114.947 122,106.5C 126.934,100.377 129.934,93.3774 131,85.5C 135.726,78.7141 139.393,71.3807 142,63.5C 145.874,60.4204 148.208,56.4204 149,51.5C 152.082,48.3413 154.416,44.6747 156,40.5C 166.608,25.8648 178.108,12.1982 190.5,-0.5 Z"/></g>
<g><path style="opacity:1" fill="#312b39" d="M 195.5,0.5 C 195.5,106.5 195.5,212.5 195.5,318.5C 131.167,318.5 66.8333,318.5 2.5,318.5C 11.4613,314.019 20.128,309.019 28.5,303.5C 30.2303,302.974 31.5637,301.974 32.5,300.5C 33.1667,300.5 33.8333,300.5 34.5,300.5C 38.88,298.3 42.88,295.467 46.5,292C 49.4468,289.564 51.7801,286.731 53.5,283.5C 66.5758,269.433 77.2425,253.766 85.5,236.5C 86.8589,235.993 87.8589,234.993 88.5,233.5C 89.443,229.053 91.1097,224.886 93.5,221C 94.0767,218.863 94.41,216.696 94.5,214.5C 94.7959,212.597 95.4625,210.93 96.5,209.5C 101.937,198.517 105.603,186.85 107.5,174.5C 111.855,157.746 116.522,141.079 121.5,124.5C 123.817,118.559 126.15,112.559 128.5,106.5C 142.814,65.9025 165.147,30.5692 195.5,0.5 Z"/></g>
<g><path style="opacity:0.877" fill="#d87885" d="M 128.5,106.5 C 126.15,112.559 123.817,118.559 121.5,124.5C 121.27,121.306 121.936,118.306 123.5,115.5C 123.167,114.833 122.833,114.167 122.5,113.5C 118.463,116.549 114.463,119.549 110.5,122.5C 115.739,116.229 121.739,110.896 128.5,106.5 Z"/></g>
<g><path style="opacity:0.996" fill="#e76f7e" d="M 121.5,124.5 C 116.522,141.079 111.855,157.746 107.5,174.5C 103.255,185.906 99.5884,197.572 96.5,209.5C 95.4625,210.93 94.7959,212.597 94.5,214.5C 91.511,221.791 88.511,229.124 85.5,236.5C 77.2425,253.766 66.5758,269.433 53.5,283.5C 46.9373,288.942 40.604,294.609 34.5,300.5C 33.8333,300.5 33.1667,300.5 32.5,300.5C 31.5,300.5 30.5,300.5 29.5,300.5C 29.912,280.049 31.5787,259.716 34.5,239.5C 36.6181,230.311 39.4514,221.311 43,212.5C 58.8248,177.507 81.3248,147.507 110.5,122.5C 114.463,119.549 118.463,116.549 122.5,113.5C 122.833,114.167 123.167,114.833 123.5,115.5C 121.936,118.306 121.27,121.306 121.5,124.5 Z"/></g>
<g><path style="opacity:0.996" fill="#4b2a38" d="M 107.5,174.5 C 105.603,186.85 101.937,198.517 96.5,209.5C 99.5884,197.572 103.255,185.906 107.5,174.5 Z"/></g>
<g><path style="opacity:1" fill="#4b2a38" d="M 94.5,214.5 C 94.41,216.696 94.0767,218.863 93.5,221C 91.1097,224.886 89.443,229.053 88.5,233.5C 87.8589,234.993 86.8589,235.993 85.5,236.5C 88.511,229.124 91.511,221.791 94.5,214.5 Z"/></g>
<g><path style="opacity:0.657" fill="#db838e" d="M 34.5,239.5 C 31.5787,259.716 29.912,280.049 29.5,300.5C 30.5,300.5 31.5,300.5 32.5,300.5C 31.5637,301.974 30.2303,302.974 28.5,303.5C 28.3335,291.162 28.5001,278.829 29,266.5C 30.15,257.229 31.9834,248.229 34.5,239.5 Z"/></g>
<g><path style="opacity:0.996" fill="#4a2836" d="M 53.5,283.5 C 51.7801,286.731 49.4468,289.564 46.5,292C 42.88,295.467 38.88,298.3 34.5,300.5C 40.604,294.609 46.9373,288.942 53.5,283.5 Z"/></g>
</svg>
